SplineFontDB: 3.0
FontName: 3270Medium
FullName: 3270-Medium
FamilyName: IBM 3270
Weight: Medium
Copyright: Copyright (c) 2011-2012, Ricardo Banffy.\nCopyright (c) 1993-2011, Paul Mattes.\nCopyright (c) 2004-2005, Don Russell.\nCopyright (c) 2004, Dick Altenbern.\nCopyright (c) 1990, Jeff Sparkes.\nCopyright (c) 1989, Georgia Tech Research Corporation (GTRC), Atlanta, GA 30332.\nAll rights reserved.\nRedistribution and use in source and binary forms, with or without modification, are permitted provided that the following conditions are met:\n\nRedistributions of source code must retain the above copyright notice, this list of conditions and the following disclaimer.\nRedistributions in binary form must reproduce the above copyright notice, this list of conditions and the following disclaimer in the documentation and/or other materials provided with the distribution.\nNeither the names of Paul Mattes, Don Russell, Dick Altenbern, Jeff Sparkes, GTRC nor the names of their contributors may be used to endorse or promote products derived from this software without specific prior written permission.\nTHIS SOFTWARE IS PROVIDED BY PAUL MATTES, DON RUSSELL, DICK ALTENBERN, JEFF SPARKES AND GTRC "AS IS" AND ANY EXPRESS OR IMPLIED WARRANTIES, INCLUDING, BUT NOT LIMITED TO, THE IMPLIED WARRANTIES OF MERCHANTABILITY AND FITNESS FOR A PARTICULAR PURPOSE ARE DISCLAIMED. IN NO EVENT SHALL PAUL MATTES, DON RUSSELL, DICK ALTENBERN, JEFF SPARKES OR GTRC BE LIABLE FOR ANY DIRECT, INDIRECT, INCIDENTAL, SPECIAL, EXEMPLARY, OR CONSEQUENTIAL DAMAGES (INCLUDING, BUT NOT LIMITED TO, PROCUREMENT OF SUBSTITUTE GOODS OR SERVICES; LOSS OF USE, DATA, OR PROFITS; OR BUSINESS INTERRUPTION) HOWEVER CAUSED AND ON ANY THEORY OF LIABILITY, WHETHER IN CONTRACT, STRICT LIABILITY, OR TORT (INCLUDING NEGLIGENCE OR OTHERWISE) ARISING IN ANY WAY OUT OF THE USE OF THIS SOFTWARE, EVEN IF ADVISED OF THE POSSIBILITY OF SUCH DAMAGE.
UComments: "2011-5-25: Created." 
Version: 001.000
ItalicAngle: 0

StartChar: euro
Encoding: 8364 8364 2
Width: 536
VWidth: 0
InSpiro: 1
Flags: W
HStem: 49 61<288 379> 262 61<61 122 183 423> 384 61<61 121 183 456> 598 62<290 382>
VStem: 122 61<219 262 323 384 445 494>
LayerCount: 2
Back
Fore
SplineSet
61 445 m 1
 121 445 l 1
 122 521 l 1
 261 660 l 1
 408 660 l 1
 473 597 l 1
 479 591 481 583 481 575 c 0
 480 566 476 559 469 553 c 0
 463 548 456 546 448 546 c 0
 441 546 433 548 427 553 c 2
 382 599 l 1
 290 598 l 1
 183 494 l 1
 183 445 l 1
 488 445 l 1
 456 385 l 1
 183 384 l 1
 183 323 l 1
 458 323 l 1
 423 261 l 1
 183 262 l 1
 183 219 l 1
 288 110 l 1
 379 110 l 1
 427 158 l 2
 433 164 442 167 451 167 c 0
 459 167 468 163 473 157 c 0
 480 151 483 142 483 133 c 0
 483 125 479 116 473 110 c 2
 409 49 l 1
 258 49 l 1
 122 189 l 1
 122 262 l 1
 61 262 l 1
 61 293 l 1
 61 323 l 1
 122 323 l 1
 121 384 l 1
 61 385 l 1
 61 445 l 1
  Spiro
    61.0352 445.366 v
    121.116 445.366 v
    122.547 521.183 v
    261.783 659.466 v
    407.695 659.466 v
    473.499 597.477 v
    469.685 553.608 o
    426.77 553.131 v
    382.424 598.431 v
    289.917 597.954 v
    182.629 493.526 v
    183.105 445.366 v
    488.281 445.366 v
    455.856 385.284 v
    183.105 384.331 v
    183.105 323.296 v
    457.764 323.296 v
    423.432 261.307 v
    183.105 262.261 v
    182.629 219.345 v
    288.486 109.673 v
    379.086 110.149 v
    427.246 157.833 v
    473.499 156.88 o
    472.546 110.149 v
    409.126 49.1143 v
    258.445 48.6374 v
    122.07 188.827 v
    122.07 262.261 v
    61.0352 262.261 v
    61.0352 292.778 v
    61.0352 323.296 v
    122.07 323.296 v
    121.116 384.331 v
    61.0352 385.284 v
    0 0 z
  EndSpiro
EndSplineSet
Validated: 1
EndChar

StartChar: eightones
Encoding: 65539 -1 6
Width: 536
VWidth: 0
Flags: W
HStem: 188 269<207.616 337.94>
VStem: 143 260<256.292 390.162>
LayerCount: 2
Back
Fore
SplineSet
214 442 m 0
 235 452 253 457 272 457 c 0
 346 457 403 385 403 314 c 0
 403 270 382 227 331 201 c 0
 311 191 292 188 274 188 c 0
 199 188 143 261 143 332 c 0
 143 375 164 417 214 442 c 0
EndSplineSet
Validated: 1
EndChar

StartChar: hyphen
Encoding: 45 45 7
Width: 536
VWidth: 0
Flags: W
HStem: 293 61<122 428>
VStem: 122 306<293 354>
LayerCount: 2
Back
Fore
SplineSet
122 354 m 1
 428 354 l 1
 428 293 l 1
 122 293 l 1
 122 354 l 1
EndSplineSet
Validated: 1
EndChar

StartChar: greater
Encoding: 62 62 8
Width: 536
VWidth: 0
InSpiro: 1
Flags: W
VStem: 131 294
LayerCount: 2
Back
Fore
SplineSet
138 549 m 1
 134 555 131 563 131 571 c 0
 132 579 135 587 140 592 c 0
 145 598 153 602 160 603 c 0
 168 604 176 602 182 598 c 1
 425 353 l 1
 425 298 l 1
 183 48 l 1
 176 45 170 44 163 46 c 0
 156 47 150 50 145 54 c 0
 139 60 135 67 134 75 c 0
 133 83 135 91 139 97 c 1
 366 325 l 1
 138 549 l 1
  Spiro
    138.283 549.316 v
    140.19 592.231 o
    182.151 597.954 v
    425.339 352.859 v
    425.339 297.547 v
    182.629 48.1605 v
    144.959 54.3595 o
    139.236 97.2748 v
    366.211 325.203 v
    0 0 z
  EndSpiro
EndSplineSet
Validated: 1
EndChar

StartChar: less
Encoding: 60 60 9
Width: 536
VWidth: 0
Flags: W
VStem: 132 294
LayerCount: 2
Back
Fore
SplineSet
418 99 m 5
 423 93 426 85 426 77 c 4
 426 69 422 62 417 56 c 4
 412 50 404 47 396 46 c 4
 388 45 382 46 375 50 c 5
 132 295 l 5
 132 351 l 5
 374 600 l 5
 380 603 387 604 394 603 c 4
 401 602 407 599 412 594 c 4
 418 589 421 581 422 573 c 4
 423 565 422 558 418 551 c 5
 190 323 l 5
 418 99 l 5
EndSplineSet
Validated: 1
EndChar

StartChar: bracketleft
Encoding: 91 91 10
Width: 536
VWidth: 0
Flags: W
HStem: -13 62<244 366> 598 61<244 366>
VStem: 184 182<-13 49 598 659> 184 60<49 598>
LayerCount: 2
Back
Fore
SplineSet
184 659 m 1xe0
 366 659 l 1
 366 598 l 1xe0
 244 598 l 1
 244 49 l 1xd0
 366 49 l 1
 366 -13 l 1
 184 -13 l 1
 184 659 l 1xe0
EndSplineSet
Validated: 1
EndChar

StartChar: bracketright
Encoding: 93 93 11
Width: 536
VWidth: 0
Flags: W
HStem: -13 62<184 305> 598 61<184 305>
VStem: 184 182<-13 49 598 659> 305 61<49 598>
LayerCount: 2
Back
Fore
SplineSet
184 659 m 1xe0
 366 659 l 1
 366 -13 l 1
 184 -13 l 1
 184 49 l 1xe0
 305 49 l 1
 305 598 l 1xd0
 184 598 l 1
 184 659 l 1xe0
EndSplineSet
Validated: 1
EndChar

StartChar: parenright
Encoding: 41 41 12
Width: 536
VWidth: 0
InSpiro: 1
Flags: W
HStem: 49 21G<207 214.5>
VStem: 307 57<214 434>
LayerCount: 2
Back
Fore
SplineSet
357 467 m 2
 362 462 365 454 365 446 c 2
 364 202 l 2
 364 195 361 188 356 182 c 2
 231 57 l 2
 226 51 218 49 211 49 c 0
 203 49 196 51 191 57 c 0
 185 62 182 70 182 77 c 0
 182 85 185 92 191 97 c 2
 307 214 l 1
 308 434 l 1
 192 546 l 2
 186 552 183 560 183 567 c 0
 183 575 186 582 191 587 c 0
 197 593 204 596 212 596 c 0
 219 596 226 594 232 588 c 2
 357 467 l 2
  Spiro
    356.562 466.86 ]
    361.432 460.799 o
    364.325 453.927 o
    365.257 446.208 [
    364.304 202.067 ]
    363.368 194.575 o
    360.582 187.89 o
    355.924 181.948 [
    230.992 57.0174 ]
    218.035 49.5762 o
    203.489 49.5762 o
    190.531 57.0174 o
    183.09 69.9745 o
    183.09 84.5207 o
    190.531 97.4779 [
    307.13 214.076 v
    307.989 434.255 v
    191.801 546.896 ]
    184.16 559.735 o
    183.936 574.279 o
    191.175 587.351 o
    204.015 594.991 o
    218.56 595.217 o
    231.63 587.978 [
    0 0 z
  EndSpiro
EndSplineSet
Validated: 1
EndChar

StartChar: parenleft
Encoding: 40 40 13
Width: 536
VWidth: 0
Flags: W
HStem: 49 21G<341.5 348.5>
VStem: 191 58<214 434>
LayerCount: 2
Back
Fore
SplineSet
199 468 m 2
 324 589 l 2
 330 594 337 596 344 596 c 0
 352 596 359 594 364 588 c 0
 370 582 373 575 373 567 c 0
 373 559 370 553 364 547 c 2
 248 434 l 1
 249 214 l 1
 365 98 l 2
 371 93 374 85 374 77 c 0
 374 69 371 63 365 58 c 0
 359 52 352 49 345 49 c 0
 338 49 330 52 325 58 c 2
 200 183 l 2
 194 189 191 194 191 202 c 2
 190 446 l 2
 190 454 193 462 199 468 c 2
EndSplineSet
Validated: 1
EndChar

StartChar: braceright
Encoding: 125 125 14
Width: 536
VWidth: 0
InSpiro: 1
Flags: W
HStem: -12 60<126 204> 294 60<351 387> 601 60<126 204>
VStem: 249 60<92 251 398 557>
LayerCount: 2
Back
Fore
SplineSet
126 661 m 1
 216 661 l 2
 226 661 234 655 237 652 c 2
 300 591 l 2
 307 584 309 574 309 569 c 2
 309 398 l 1
 351 354 l 1
 387 354 l 1
 387 294 l 1
 351 294 l 1
 309 251 l 1
 309 79 l 2
 309 74 307 65 300 58 c 2
 237 -3 l 2
 234 -7 226 -12 216 -12 c 2
 126 -12 l 1
 126 48 l 1
 204 48 l 1
 249 92 l 1
 249 263 l 2
 249 273 254 281 257 284 c 2
 296 324 l 1
 257 365 l 2
 254 368 249 376 249 386 c 2
 249 557 l 1
 204 601 l 1
 126 601 l 1
 126 661 l 1
  Spiro
    216.334 660.662 ]
    225.424 659.16 o
    232.617 655.746 o
    237.316 652.103 [
    299.982 590.774 ]
    305.532 583.177 o
    308.271 575.514 o
    308.999 569.333 [
    308.999 397.751 v
    350.767 354.332 v
    386.664 354.332 v
    386.664 294.332 v
    350.767 294.332 v
    308.999 250.913 v
    308.999 79.3311 ]
    308.271 73.1507 o
    305.532 65.4876 o
    299.982 57.8906 [
    237.316 -3.43945 ]
    232.617 -7.083 o
    225.424 -10.4973 o
    216.334 -12 [
    126 -12 v
    126 48 v
    204.096 48 v
    248.999 91.9473 v
    248.999 263 ]
    250.483 272.012 o
    253.838 279.156 o
    257.379 283.798 [
    296.371 324.332 v
    257.379 364.866 ]
    253.838 369.508 o
    250.483 376.651 o
    248.999 385.664 [
    248.999 556.717 v
    204.096 600.662 v
    126 600.662 v
    126 660.662 v
    0 0 z
  EndSpiro
EndSplineSet
Validated: 1
EndChar

StartChar: braceleft
Encoding: 123 123 15
Width: 536
VWidth: 0
Flags: W
HStem: -14 60<287 365> 293 60<104 140> 599 60<287 365>
VStem: 182 60<90 249 396 555>
LayerCount: 2
Back
Fore
SplineSet
365 659 m 1
 365 599 l 1
 287 599 l 1
 242 555 l 1
 242 384 l 2
 242 374 237 366 234 363 c 2
 195 323 l 1
 234 282 l 2
 237 279 242 271 242 261 c 2
 242 90 l 1
 287 46 l 1
 365 46 l 1
 365 -14 l 1
 275 -14 l 2
 265 -14 257 -8 254 -5 c 2
 191 56 l 2
 184 63 182 73 182 78 c 2
 182 249 l 1
 140 293 l 1
 104 293 l 1
 104 353 l 1
 140 353 l 1
 182 396 l 1
 182 568 l 2
 182 573 184 582 191 589 c 2
 254 650 l 2
 257 654 265 659 275 659 c 2
 365 659 l 1
EndSplineSet
Validated: 1
EndChar

StartChar: equal
Encoding: 61 61 17
Width: 536
VWidth: 0
Flags: W
HStem: 231 62<61 488> 415 61<61 488>
LayerCount: 2
Back
Fore
SplineSet
61 476 m 5
 488 476 l 5
 488 415 l 5
 61 415 l 5
 61 476 l 5
61 293 m 5
 488 293 l 5
 488 231 l 5
 61 231 l 5
 61 293 l 5
EndSplineSet
Validated: 1
EndChar

StartChar: quotedbl
Encoding: 34 34 19
Width: 536
VWidth: 0
Flags: W
HStem: 476 183<122 184 305 366>
VStem: 122 62<476 659> 305 61<476 659>
LayerCount: 2
Back
Fore
SplineSet
122 659 m 1
 184 659 l 1
 184 476 l 1
 122 476 l 1
 122 659 l 1
305 659 m 1
 366 659 l 1
 366 476 l 1
 305 476 l 1
 305 659 l 1
EndSplineSet
Validated: 1
EndChar

StartChar: slash
Encoding: 47 47 20
Width: 536
VWidth: 0
InSpiro: 1
Flags: W
LayerCount: 2
Back
Fore
SplineSet
428 533 m 2
 434 539 442 542 450 542 c 0
 458 542 466 539 472 533 c 0
 478 527 481 520 481 512 c 0
 481 504 478 495 472 489 c 2
 113 123 l 2
 108 117 100 114 92 114 c 0
 84 114 76 117 70 123 c 0
 63 129 60 137 60 145 c 0
 60 153 63 161 70 167 c 2
 428 533 l 2
  Spiro
    427.988 532.854 ]
    441.939 541.062 o
    457.698 541.229 o
    471.819 533.315 o
    480.027 519.364 o
    480.193 503.605 o
    472.28 489.484 [
    113.699 123.273 ]
    99.748 115.065 o
    83.9892 114.899 o
    69.8678 122.812 o
    61.6596 136.764 o
    61.4939 152.522 o
    69.4068 166.644 [
    0 0 z
  EndSpiro
EndSplineSet
Validated: 1
EndChar

StartChar: backslash
Encoding: 92 92 21
Width: 536
VWidth: 0
Flags: W
LayerCount: 2
Back
Fore
SplineSet
428 123 m 2
 69 489 l 2
 63 495 61 504 61 512 c 0
 61 520 63 527 69 533 c 0
 75 539 84 542 92 542 c 0
 100 542 107 539 113 533 c 2
 472 167 l 2
 478 161 481 153 481 145 c 0
 481 137 478 129 472 123 c 0
 466 117 458 113 450 113 c 0
 442 113 434 117 428 123 c 2
EndSplineSet
Validated: 1
EndChar

StartChar: bar
Encoding: 124 124 22
Width: 536
VWidth: 0
Flags: W
VStem: 244 61<-73 720>
LayerCount: 2
Back
Fore
SplineSet
244 720 m 1
 305 720 l 1
 305 -73 l 1
 244 -73 l 1
 244 720 l 1
EndSplineSet
Validated: 1
EndChar

StartChar: brokenbar
Encoding: 166 166 23
Width: 536
VWidth: 0
Flags: W
HStem: 639 20G<244 305>
VStem: 244 61<-73 231 354 659>
LayerCount: 2
Back
Fore
SplineSet
244 659 m 1
 305 659 l 1
 305 354 l 1
 244 354 l 1
 244 659 l 1
244 231 m 1
 305 231 l 1
 305 -73 l 1
 244 -73 l 1
 244 231 l 1
EndSplineSet
Validated: 1
EndChar

StartChar: question
Encoding: 63 63 24
Width: 536
VWidth: 0
InSpiro: 1
Flags: W
HStem: 50 61<240 307> 475.884 21G<122.07 183.173> 600.338 61.662<214.527 388.349>
VStem: 122.07 61.155<476.003 567.675> 243.981 61.195<50 111 231.902 321.67> 423.283 61.651<515.482 566.65>
LayerCount: 2
Back
Fore
SplineSet
240 111 m 1
 307 111 l 1
 307 50 l 1
 240 50 l 1
 240 111 l 1
  Spiro
    240.326 110.626 v
    307.083 110.626 v
    307.083 49.591 v
    240.326 49.591 v
    0 0 z
  EndSpiro
122 579 m 2
 122 581 122 582 122 583 c 0
 123 584 123 585 123 586 c 0
 124 588 125 590 126 592 c 0
 127 594 128 596 130 598 c 2
 177 652 l 2
 179 654 181 656 183 658 c 0
 186 659 189 660 191 661 c 0
 194 662 197 662 200 662 c 2
 401 662 l 2
 403 662 406 662 408 661 c 0
 411 661 413 660 415 659 c 0
 418 657 420 656 422 654 c 2
 477 603 l 2
 479 600 481 598 483 596 c 0
 484 593 485 591 486 588 c 0
 487 585 487 582 487 579 c 2
 484.934 500.877 l 6
 484.866 498.077 484.547 495.27 483.703 492.599 c 0
 482.896 490.042 481.784 487.579 480.399 485.283 c 0
 478.953 482.885 477.059 480.789 475.002 478.886 c 2
 305.136 321.67 l 1
 305.176 231.743 l 1
 243.981 231.902 l 1
 243.687 336.885 l 2
 243.683 338.264 243.717 339.647 243.937 341.008 c 0
 244.157 342.37 244.536 343.701 244.992 345.003 c 0
 245.863 347.487 246.935 349.91 248.289 352.167 c 0
 249.704 354.527 251.585 356.571 253.604 358.44 c 2
 423.283 515.482 l 1
 424.531 566.65 l 1
 388.349 600.338 l 1
 214.527 600.338 l 1
 182.986 567.675 l 1
 183.225 475.884 l 1
 122.07 476.003 l 1
 122 579 l 2
  Spiro
    122.189 579.477 ]
    123.258 586.204 o
    125.704 592.273 o
    129.601 597.861 [
    176.738 651.503 ]
    183.47 657.515 o
    191.326 661.128 o
    200.271 662.327 [
    400.543 662.327 ]
    408.338 661.424 o
    415.344 658.668 o
    421.663 654.017 [
    476.977 602.519 ]
    482.613 595.695 o
    485.903 587.879 o
    486.841 579.079 [
    484.934 500.877 ]
    483.703 492.599 o
    480.399 485.283 o
    475.002 478.886 [
    305.136 321.67 v
    305.176 231.743 v
    243.981 231.902 v
    243.687 336.885 ]
    244.992 345.003 o
    248.289 352.167 o
    253.604 358.44 [
    423.283 515.482 v
    424.531 566.65 v
    388.349 600.338 v
    214.527 600.338 v
    182.986 567.675 v
    183.225 475.884 v
    122.07 476.003 v
    0 0 z
  EndSpiro
EndSplineSet
Validated: 1
EndChar

StartChar: exclam
Encoding: 33 33 25
Width: 536
VWidth: 0
Flags: W
HStem: 49 61<243 306> 639 20G<244 305>
VStem: 244 61<49 110 231 659>
LayerCount: 2
Back
Fore
SplineSet
243 110 m 1
 306 110 l 1
 306 49 l 1
 243 49 l 1
 243 110 l 1
244 659 m 1
 305 659 l 1
 305 231 l 1
 244 231 l 1
 244 659 l 1
EndSplineSet
Validated: 1
EndChar

StartChar: dollar
Encoding: 36 36 26
Width: 536
VWidth: 0
InSpiro: 1
Flags: W
HStem: 110 61<61 244 305 392> 293 61<156 244 305 393> 476 61<155 244 305 488> 639 20G<244 305>
VStem: 65 60<385 446> 244 61<-12 110 171 293 354 476 537 659> 423 62<201 262>
LayerCount: 2
Back
Fore
SplineSet
392 171 m 1
 423 201 l 1
 423 262 l 1
 393 293 l 1
 305 293 l 1
 305 171 l 1
 392 171 l 1
  Spiro
    422.597 201.464 v
    422.632 262.143 v
    392.795 292.897 v
    305.176 292.778 v
    305.176 170.708 v
    391.603 170.827 v
    0 0 z
  EndSpiro
156 354 m 1
 244 354 l 1
 244 476 l 1
 155 476 l 1
 125 446 l 1
 125 385 l 1
 156 354 l 1
  Spiro
    156.045 354.35 v
    244.141 353.813 v
    244.081 476.003 v
    154.853 476.42 v
    125.016 445.664 v
    125.051 384.987 v
    0 0 z
  EndSpiro
244 659 m 1
 305 659 l 1
 305 537 l 1
 488 537 l 1
 488 476 l 1
 305 476 l 1
 305 354 l 1
 407 353 l 2
 410 353 413 353 415 352 c 0
 418 351 420 350 422 349 c 0
 424 348 426 346 428 344 c 2
 476 297 l 2
 478 295 480 292 481 290 c 0
 482 287 483 285 484 282 c 0
 485 280 485 277 485 274 c 2
 483 198 l 2
 483 195 483 193 482 191 c 0
 482 189 481 186 480 184 c 0
 479 182 477 181 476 179 c 2
 432 121 l 2
 430 119 428 117 425 115 c 0
 423 113 420 112 417 111 c 0
 415 110 412 110 409 110 c 2
 305 110 l 1
 305 -12 l 1
 244 -12 l 1
 244 110 l 1
 61 110 l 1
 61 171 l 1
 244 171 l 1
 244 293 l 1
 141 294 l 2
 138 294 135 294 132 295 c 0
 129 296 127 297 124 299 c 0
 122 300 120 303 118 305 c 2
 73 363 l 2
 72 364 71 366 70 368 c 0
 69 370 68 372 67 375 c 0
 67 377 66 379 66 381 c 2
 65 458 l 2
 64 461 65 463 65 466 c 0
 66 469 67 471 68 474 c 0
 70 476 72 478 74 480 c 2
 121 528 l 2
 123 530 125 532 127 533 c 0
 130 534 132 535 134 536 c 0
 137 537 141 537 144 537 c 2
 244 537 l 1
 244 659 l 1
  Spiro
    244.141 658.989 v
    305.176 658.989 v
    305.176 536.919 v
    488.281 536.919 v
    488.281 475.884 v
    305.176 475.884 v
    305.176 353.813 v
    407.435 353.314 v
    415.168 352.124 o
    422.05 349.12 o
    428.181 344.258 [
    475.864 296.573 ]
    481.068 289.876 o
    484.088 282.323 o
    484.934 273.884 [
    483.026 197.59 ]
    482.151 190.71 o
    479.827 184.469 o
    475.991 178.69 [
    431.54 121.044 ]
    425.075 114.991 o
    417.471 111.223 o
    408.738 109.744 [
    305.176 109.673 v
    305.176 -12.3978 v
    244.141 -12.3978 v
    244.141 109.673 v
    61.0352 109.673 v
    61.0352 170.708 v
    244.141 170.708 v
    244.26 293.493 v
    140.697 293.564 ]
    131.965 295.043 o
    124.36 298.812 o
    117.896 304.865 [
    73.444 362.512 ]
    69.6082 368.289 o
    67.2846 374.531 o
    66.4089 381.41 [
    64.5016 457.704 ]
    65.3479 466.144 o
    68.3667 473.696 o
    73.5707 480.395 [
    121.255 528.078 ]
    127.386 532.94 o
    134.268 535.945 o
    144.005 536.919 v
    244.141 536.919 v
    0 0 z
  EndSpiro
EndSplineSet
Validated: 1
EndChar

StartChar: cent
Encoding: 162 162 27
Width: 536
VWidth: 0
InSpiro: 1
Flags: W
HStem: 232 61<154 244 305 427> 476 61<152 244 305 427> 639 20G<244 305>
VStem: 62 62<325 446> 244 61<111 232 293 476 537 659>
LayerCount: 2
Back
Fore
SplineSet
244 659 m 1
 305 659 l 1
 305 537 l 1
 427 537 l 1
 427 476 l 1
 305 476 l 1
 305 293 l 1
 427 293 l 1
 427 232 l 1
 305 232 l 1
 305 110 l 1
 244 111 l 1
 244 232 l 1
 141 232 l 2
 138 232 135 232 132 233 c 0
 130 234 127 235 125 236 c 0
 123 238 121 239 119 241 c 2
 70 290 l 2
 69 292 67 294 65 297 c 0
 64 299 63 301 62 304 c 0
 62 307 61 309 62 312 c 2
 62 458 l 2
 62 461 63 464 63 466 c 0
 64 469 65 471 66 473 c 0
 67 476 69 478 71 479 c 2
 116 528 l 2
 118 530 120 532 123 533 c 0
 125 534 128 536 130 536 c 0
 133 537 136 537 139 537 c 2
 244 537 l 1
 244 659 l 1
  Spiro
    244.141 658.989 v
    305.176 658.989 v
    305.176 536.919 v
    427.246 536.919 v
    427.246 475.884 v
    305.176 475.884 v
    305.176 292.778 v
    427.246 292.778 v
    427.246 231.743 v
    305.176 231.743 v
    305.176 109.673 v
    244.141 110.626 v
    243.664 232.22 v
    140.667 232.22 ]
    132.456 233.224 o
    125.135 236.278 o
    118.643 241.406 [
    70.4824 290.044 ]
    65.4372 296.555 o
    62.4556 303.871 o
    61.513 312.054 [
    62.4666 458.442 ]
    63.4166 466.216 o
    66.2083 473.193 o
    70.883 479.476 [
    116.183 527.637 ]
    122.729 533.049 o
    130.196 536.298 o
    138.619 537.396 v
    244.141 536.919 v
    0 0 z
  EndSpiro
244 476 m 1
 152 476 l 1
 124 446 l 1
 124 325 l 1
 154 293 l 1
 244 293 l 1
 244 476 l 1
  Spiro
    244.281 475.884 v
    152.214 476.42 v
    124.374 445.869 v
    123.584 324.517 v
    153.595 293.255 v
    244.3 293.255 v
    0 0 z
  EndSpiro
EndSplineSet
Validated: 1
EndChar

StartChar: sterling
Encoding: 163 163 28
Width: 536
VWidth: 0
InSpiro: 1
Flags: MW
LayerCount: 2
Back
Fore
SplineSet
333 597 m 1
 275 597 l 1
 244 565 l 1
 244 415 l 1
 366 415 l 1
 366 354 l 1
 244 354 l 1
 243 129 l 1
 278 111 l 1
 392 110 l 1
 435 162 l 1
 480 118 l 1
 427 62 l 2
 426 61 425 60 424 59 c 0
 423 58 422 57 421 56 c 0
 420 55 419 55 417 54 c 0
 416 54 414 53 413 53 c 0
 412 53 410 52 409 52 c 0
 407 52 406 52 404 52 c 2
 265 53 l 2
 264 53 263 53 262 53 c 0
 262 53 261 54 260 54 c 0
 259 54 258 54 257 54 c 0
 257 55 256 55 255 55 c 0
 254 55 252 56 251 57 c 2
 211 79 l 1
 172 55 l 2
 170 54 169 53 167 52 c 0
 165 51 164 50 162 50 c 0
 161 50 160 50 159 50 c 0
 158 50 157 50 156 50 c 2
 89 52 l 2
 86 52 83 52 81 53 c 0
 78 53 75 54 73 56 c 0
 69 59 66 63 63 67 c 0
 62 69 61 72 60 74 c 0
 59 77 59 79 59 82 c 2
 58 144 l 2
 58 147 58 149 58 152 c 0
 59 154 60 157 61 159 c 0
 64 164 67 168 72 171 c 0
 74 173 77 174 80 174 c 0
 82 175 85 175 88 175 c 2
 150 175 l 2
 152 175 153 175 155 175 c 0
 157 175 158 174 160 174 c 0
 161 174 162 174 163 173 c 0
 163 173 164 173 165 172 c 2
 183 160 l 1
 183 354 l 1
 61 354 l 1
 61 415 l 1
 184 415 l 1
 184 580 l 2
 184 583 184 585 185 588 c 0
 186 590 187 593 188 595 c 0
 189 596 189 598 190 599 c 0
 191 600 192 601 193 602 c 2
 240 649 l 2
 242 651 244 653 247 655 c 0
 249 656 252 657 254 658 c 0
 257 659 259 659 262 659 c 2
 348 659 l 2
 350 659 351 659 353 659 c 0
 354 658 356 658 357 657 c 0
 360 656 362 654 365 653 c 0
 366 652 368 651 369 650 c 0
 370 649 371 648 372 647 c 2
 423 584 l 1
 381 542 l 1
 333 597 l 1
  Spiro
    333 597 v
    275 597 v
    244 565 v
    244 415 v
    366 415 v
    366 354 v
    244 354 v
    243 129 v
    278 111 v
    392 110 v
    435 162 v
    480 118 v
    427 62 ]
    421 56 o
    413 53 o
    404 52 [
    265 53 ]
    260 54 o
    255 55 o
    251 57 [
    211 79 v
    172 55 ]
    167 52 o
    162 50 o
    156 50 [
    89 52 ]
    73 56 o
    63 67 o
    59 82 [
    58 144 ]
    61 159 o
    72 171 o
    88 175 [
    150 175 ]
    155 175 o
    160 174 o
    165 172 [
    183 160 v
    183 354 v
    61 354 v
    61 415 v
    184 415 v
    184 580 ]
    185 588 o
    188 595 o
    193 602 [
    240 649 ]
    247 655 o
    254 658 o
    262 659 [
    348 659 ]
    357 657 o
    365 653 o
    372 647 [
    423 584 v
    381 542 v
    0 0 z
  EndSpiro
EndSplineSet
Validated: 1
EndChar

StartChar: yen
Encoding: 165 165 29
Width: 536
VWidth: 0
InSpiro: 1
Flags: W
HStem: 49 21G<244 305> 171 61<61 244 305 488> 354 61<61 244 305 488>
VStem: 244 61<49 171 232 354 415 448>
LayerCount: 2
Back
Fore
SplineSet
111 652 m 1
 274 506 l 1
 436 652 l 1
 478 607 l 1
 304 451 l 1
 305 415 l 1
 488 415 l 1
 488 354 l 1
 305 354 l 1
 305 232 l 1
 488 232 l 1
 488 171 l 1
 305 171 l 1
 305 49 l 1
 244 49 l 1
 244 171 l 1
 61 171 l 1
 61 232 l 1
 244 232 l 1
 244 354 l 1
 61 354 l 1
 61 415 l 1
 244 415 l 1
 243 448 l 1
 69 607 l 1
 111 652 l 1
  Spiro
    273.65 506.111 v
    436.062 652.451 v
    477.558 606.398 v
    304.222 451.088 v
    305.176 414.849 v
    488.281 414.849 v
    488.281 353.813 v
    305.176 353.813 v
    305.176 231.743 v
    488.281 231.743 v
    488.281 170.708 v
    305.176 170.708 v
    305.176 48.6374 v
    244.141 48.6374 v
    244.141 170.708 v
    61.0352 170.708 v
    61.0352 231.743 v
    244.141 231.743 v
    244.141 353.813 v
    61.0352 353.813 v
    61.0352 414.849 v
    244.141 414.849 v
    243.187 448.227 v
    68.9579 606.345 v
    110.332 652.505 v
    0 0 z
  EndSpiro
EndSplineSet
Validated: 1
EndChar

StartChar: paragraph
Encoding: 182 182 30
Width: 536
VWidth: 0
InSpiro: 1
Flags: W
HStem: 48 21G<59 122> 171 61<244 304 366 426> 355 61<122 272> 598 59<122 273>
VStem: 59 63<48 355 416 598> 305 61<-12 170 232 293 447 567>
LayerCount: 2
Back
Fore
SplineSet
59 48 m 1
 61 659 l 1
 287 657 l 2
 290 658 293 657 295 656 c 0
 298 656 299 655 302 654 c 0
 304 652 306 651 308 649 c 2
 357 604 l 2
 359 602 360 599 362 597 c 0
 363 594 365 592 365 589 c 0
 366 587 366 584 366 581 c 2
 366 434 l 2
 366 431 366 428 365 425 c 0
 365 422 363 421 362 418 c 0
 360 416 359 413 357 411 c 2
 308 365 l 2
 306 363 304 362 302 360 c 0
 299 360 298 359 295 359 c 0
 293 358 290 357 287 358 c 2
 122 355 l 1
 122 48 l 1
 59 48 l 1
  Spiro
    61.512 658.989 v
    287.414 657.557 v
    295.135 656.579 o
    302.061 653.786 o
    308.298 649.134 [
    356.936 603.357 ]
    362.37 596.772 o
    365.617 589.258 o
    366.688 580.788 [
    366.688 433.922 ]
    365.617 425.451 o
    362.37 417.938 o
    356.936 411.353 [
    308.298 365.576 ]
    302.061 360.924 o
    295.135 358.131 o
    287.414 357.153 v
    122.07 354.29 v
    122.07 47.6837 v
    59.1278 47.6837 v
    0 0 z
  EndSpiro
273 598 m 1
 122 598 l 1
 122 416 l 1
 272 416 l 1
 305 447 l 1
 305 567 l 1
 273 598 l 1
  Spiro
    122.07 597.954 v
    122.07 415.802 v
    272.115 415.484 v
    304.699 447.313 v
    304.699 567.396 v
    273.068 598.271 v
    0 0 z
  EndSpiro
305 293 m 1
 366 293 l 1
 366 232 l 1
 427 232 l 1
 426 170 l 1
 366 170 l 1
 366 -12 l 1
 305 -12 l 1
 304 171 l 1
 244 171 l 1
 244 232 l 1
 305 232 l 1
 305 293 l 1
  Spiro
    305.176 292.778 v
    366.211 292.778 v
    366.211 231.743 v
    427.246 231.743 v
    426.292 169.754 v
    366.211 169.754 v
    366.211 -12.3978 v
    305.176 -12.3978 v
    304.222 170.708 v
    244.141 170.708 v
    244.141 231.743 v
    305.176 231.743 v
    0 0 z
  EndSpiro
EndSplineSet
Validated: 1
EndChar

StartChar: currency
Encoding: 164 164 31
Width: 536
VWidth: 0
Flags: W
HStem: 178 48<214.823 324.653> 419 47<215.222 322.778>
VStem: 125 48<261.479 383.156> 365 48<261.284 382.963>
LayerCount: 2
Back
Fore
SplineSet
221 187 m 1
 95 59 l 1
 61 92 l 1
 177 212 l 1
 145 238 125 278 125 322 c 0
 125 367 145 407 177 433 c 1
 59 555 l 1
 93 588 l 1
 220 458 l 1
 235 464 252 466 269 466 c 0
 286 466 303 464 318 458 c 1
 444 587 l 1
 479 554 l 1
 362 433 l 1
 393 407 413 366 413 322 c 0
 413 279 393 240 363 214 c 1
 481 92 l 1
 446 59 l 1
 320 188 l 1
 304 182 287 178 269 178 c 0
 252 178 236 182 221 187 c 1
173 322 m 0
 173 269 216 226 269 226 c 0
 322 226 365 269 365 322 c 4
 365 375 322 419 269 419 c 0
 216 419 173 375 173 322 c 0
EndSplineSet
Validated: 1
EndChar

StartChar: zero
Encoding: 48 48 32
Width: 536
VWidth: 0
InSpiro: 1
Flags: W
HStem: 59 57<217 335> 282 141<244.914 300.152> 603 57<215 337>
VStem: 65 57<205 504> 244 57<282.914 422.152> 427 57<208 507>
LayerCount: 2
Back
Fore
SplineSet
301 311 m 2
 301 295 289 282 273 282 c 0
 257 282 244 295 244 311 c 2
 244 395 l 2
 244 411 257 423 273 423 c 0
 289 423 301 411 301 395 c 2
 301 311 l 2
  Spiro
    301.361 310.897 ]
    297.461 296.475 o
    287.174 286.188 o
    272.751 282.287 o
    258.327 286.188 o
    248.041 296.475 o
    244.141 310.897 [
    244.141 394.821 ]
    248.041 409.244 o
    258.327 419.531 o
    272.751 423.432 o
    287.174 419.531 o
    297.461 409.244 o
    301.361 394.821 [
    0 0 z
  EndSpiro
181 651 m 2
 187 657 194 660 202 660 c 2
 349 660 l 2
 357 660 364 657 370 651 c 2
 475 538 l 2
 480 533 483 527 483 519 c 2
 484 197 l 2
 485 189 482 182 476 176 c 2
 367 68 l 2
 362 62 355 59 347 59 c 2
 206 59 l 2
 198 59 192 62 186 67 c 2
 74 172 l 2
 68 177 65 184 65 193 c 2
 67 515 l 2
 67 523 69 529 74 534 c 2
 181 651 l 2
  Spiro
    181.103 650.681 ]
    187.221 655.837 o
    194.242 658.923 o
    202.179 659.942 [
    349.045 659.942 ]
    356.909 658.942 o
    363.878 655.911 o
    369.973 650.841 [
    474.876 538.308 ]
    479.146 532.521 o
    481.695 526.107 o
    482.559 518.969 [
    484.466 196.627 ]
    483.581 189.032 o
    480.795 182.25 o
    476.087 176.227 [
    367.368 67.5078 ]
    361.394 62.8289 o
    354.67 60.0436 o
    347.138 59.1278 [
    205.994 59.1278 ]
    198.793 59.9625 o
    192.321 62.511 o
    186.485 66.8104 [
    73.9517 171.715 ]
    68.8509 177.857 o
    65.8191 184.886 o
    64.8508 192.812 [
    66.7582 515.154 ]
    67.6045 522.221 o
    70.1017 528.579 o
    74.2916 534.332 [
    0 0 z
  EndSpiro
124 504 m 1
 122 205 l 1
 217 116 l 1
 335 116 l 1
 427 208 l 1
 425 507 l 1
 337 603 l 1
 215 603 l 1
 124 504 l 1
  Spiro
    123.912 503.771 v
    122.144 205.018 v
    217.261 116.349 v
    335.286 116.349 v
    427.177 208.237 v
    425.405 507.46 v
    336.603 602.723 v
    214.752 602.723 v
    0 0 z
  EndSpiro
EndSplineSet
Validated: 1
EndChar

StartChar: one
Encoding: 49 49 33
Width: 536
VWidth: 0
Flags: W
HStem: 49 21G<248 305>
VStem: 248 57<49 562>
LayerCount: 2
Back
Fore
SplineSet
256 653 m 2
 262 659 269 663 276 663 c 0
 280 663 283 662 287 660 c 0
 299 655 305 646 305 633 c 2
 305 49 l 1
 248 49 l 1
 248 562 l 1
 159 470 l 1
 117 509 l 1
 256 653 l 2
EndSplineSet
Validated: 1
EndChar

StartChar: two
Encoding: 50 50 34
Width: 536
VWidth: 0
InSpiro: 1
Flags: W
HStem: 48 56<156 487> 477 21G<82.9744 122.992> 596 57<217 396>
VStem: 432 57<459 566>
LayerCount: 2
Back
Fore
SplineSet
184 645 m 2
 188 650 195 653 204 653 c 2
 406 653 l 2
 413 653 420 651 425 646 c 2
 477 602 l 2
 483 596 486 589 486 580 c 2
 489 448 l 2
 489 439 486 433 480 427 c 2
 156 104 l 1
 487 104 l 1
 487 48 l 1
 87 48 l 2
 74 48 65 54 61 65 c 0
 59 69 58 73 58 77 c 0
 58 84 61 91 66 97 c 2
 432 459 l 1
 430 566 l 1
 396 596 l 1
 217 596 l 1
 104 477 l 1
 63 516 l 1
 184 645 l 2
  Spiro
    183.17 644.179 ]
    189.263 649.241 o
    196.229 652.269 o
    204.086 653.267 [
    406.266 653.267 ]
    413.143 652.507 o
    419.362 650.179 o
    425.048 646.237 [
    476.546 601.415 ]
    481.891 595.396 o
    485.164 588.409 o
    486.367 580.451 [
    489.229 447.891 ]
    488.42 440.099 o
    485.607 433.133 o
    480.777 426.965 [
    156.231 104.904 v
    487.327 104.904 v
    487.327 47.6837 v
    86.7844 47.6837 ]
    75.5639 49.7745 o
    66.5386 55.8175 o
    60.3311 65.3956 o
    57.99 76.5668 o
    60.1398 87.2141 o
    66.6315 96.6024 [
    431.756 458.933 v
    429.433 566.562 v
    395.558 596.047 v
    216.519 596.047 v
    104.839 476.389 v
    63.0077 515.433 v
    0 0 z
  EndSpiro
EndSplineSet
Validated: 1
EndChar

StartChar: three
Encoding: 51 51 35
Width: 536
VWidth: 0
InSpiro: 1
Flags: W
HStem: 51 57<161 324> 603 57<122 429>
VStem: 419 57<210 262> 429 58<583 603>
LayerCount: 2
Back
Fore
SplineSet
487 660 m 1xd0
 487 603 l 1xd0
 486 572 l 2
 486 569 485 566 485 564 c 0
 484 561 483 559 482 557 c 0
 480 555 479 553 477 551 c 2
 339 413 l 2
 340 413 342 413 343 413 c 0
 346 412 348 411 350 410 c 0
 352 409 354 407 356 406 c 2
 468 294 l 2
 469 292 471 290 472 288 c 0
 473 286 474 284 475 281 c 0
 476 279 476 276 476 274 c 2
 476 198 l 2
 476 196 476 194 475 191 c 0
 474 189 474 187 473 185 c 0
 471 183 470 181 468 179 c 2
 358 60 l 2
 356 58 354 56 352 55 c 0
 349 53 347 52 345 52 c 0
 342 51 339 51 337 51 c 2
 148 51 l 2
 145 51 142 51 140 52 c 0
 137 52 135 53 133 55 c 0
 130 56 128 58 126 60 c 2
 65 129 l 1
 108 167 l 1
 161 108 l 1
 324 108 l 1
 419 210 l 1
 419 262 l 1xe0
 324 357 l 1
 271 357 l 2
 269 357 267 357 265 357 c 0
 263 357 261 358 260 359 c 0
 256 360 253 362 251 365 c 0
 248 367 246 371 244 374 c 0
 243 378 242 382 242 385 c 0
 242 389 243 393 244 396 c 0
 245 398 246 400 247 401 c 0
 248 403 249 404 251 406 c 2
 428 583 l 1
 429 603 l 1
 122 603 l 1
 122 660 l 1
 487 660 l 1xd0
  Spiro
    487.327 659.942 v
    487.327 602.723 v
    486.084 571.533 v
    484.505 563.719 o
    481.719 556.994 o
    477.04 551.021 [
    339.031 413.418 v
    343.226 412.979 o
    349.95 410.193 o
    355.924 405.515 [
    467.504 293.935 ]
    472.183 287.961 o
    474.968 281.236 o
    475.884 273.704 [
    475.884 198.364 ]
    475.054 191.185 o
    472.52 184.729 o
    468.244 178.902 [
    357.618 59.6932 ]
    351.517 54.5977 o
    344.532 51.5507 o
    336.647 50.5447 [
    147.819 50.5447 ]
    139.732 51.6047 o
    132.601 54.807 o
    126.437 60.1476 [
    65.4012 128.812 v
    108.168 166.827 v
    160.667 107.766 v
    324.165 107.766 v
    418.663 209.594 v
    418.663 261.854 v
    323.842 356.674 v
    270.844 356.674 ]
    259.641 358.758 o
    250.624 364.783 o
    244.41 374.336 o
    242.049 385.483 o
    244.165 396.119 o
    250.613 405.515 [
    428.2 583.103 v
    428.711 602.702 v
    122.07 602.723 v
    122.07 659.942 v
    0 0 z
  EndSpiro
EndSplineSet
Validated: 1
EndChar

StartChar: four
Encoding: 52 52 36
Width: 536
VWidth: 0
InSpiro: 1
Flags: W
HStem: 49 21G<367 424> 238 57<120 366 424 488> 603 57<342 366>
VStem: 63 57<295 383> 367 57<49 237 295 602>
LayerCount: 2
Back
Fore
SplineSet
366 602 m 1
 342 603 l 1
 120 383 l 1
 120 295 l 1
 366 295 l 1
 366 602 l 1
  Spiro
    366.258 602.191 v
    342.497 602.546 v
    120.163 382.87 v
    120.163 295.288 v
    366.182 295.267 v
    0 0 z
  EndSpiro
169 238 m 1
 91 238 l 2
 89 238 86 239 84 239 c 0
 81 240 79 241 77 242 c 0
 73 245 69 248 67 252 c 0
 65 255 64 257 64 259 c 0
 63 262 63 264 63 267 c 2
 63 395 l 2
 63 397 63 400 64 402 c 0
 65 405 65 407 67 409 c 0
 68 411 70 413 71 415 c 2
 311 652 l 2
 313 653 315 655 317 656 c 0
 319 658 321 658 324 659 c 0
 326 660 329 660 331 660 c 2
 395 659 l 2
 398 659 400 659 403 658 c 0
 405 658 408 656 410 655 c 0
 414 653 417 649 420 645 c 0
 421 643 422 641 423 638 c 0
 423 636 423 633 423 630 c 2
 424 295 l 1
 488 295 l 1
 488 238 l 1
 424 238 l 1
 424 49 l 1
 367 49 l 1
 367 237 l 1
 169 238 l 1
  Spiro
    169.153 237.552 v
    91.1998 238.421 ]
    76.6001 242.276 o
    66.6183 252.382 o
    62.9425 267.029 [
    62.9425 394.821 ]
    63.8725 402.41 o
    66.6993 409.178 o
    71.4445 415.174 [
    310.816 651.684 ]
    316.894 656.371 o
    323.722 659.117 o
    331.352 659.939 [
    395.247 658.986 ]
    409.8 655.112 o
    419.751 645.028 o
    423.432 630.426 [
    424.067 295.162 v
    487.805 295.162 v
    487.805 237.624 v
    424.226 237.624 v
    424.385 48.6839 v
    367.165 48.5908 v
    367.165 237.465 v
    0 0 z
  EndSpiro
EndSplineSet
Validated: 1
EndChar

StartChar: five
Encoding: 53 53 37
Width: 536
VWidth: 0
InSpiro: 1
Flags: W
HStem: 51 58<61 331> 415 60<122 333> 598 61<122 488>
VStem: 61 61<475 598> 429 57<206 322>
LayerCount: 2
Back
Fore
SplineSet
61 659 m 1
 488 659 l 1
 488 598 l 1
 122 598 l 1
 122 475 l 1
 345 475 l 2
 348 475 350 475 353 474 c 0
 355 473 358 472 360 471 c 0
 362 470 364 468 366 466 c 2
 476 354 l 2
 478 352 480 350 481 348 c 0
 482 347 482 346 483 345 c 0
 483 344 484 342 484 341 c 0
 484 340 484 339 484 338 c 0
 484 336 484 335 484 334 c 2
 486 195 l 2
 486 194 486 192 486 191 c 0
 486 190 486 188 486 187 c 0
 486 186 485 185 485 184 c 0
 484 183 484 182 483 181 c 0
 482 180 482 179 481 177 c 0
 480 176 479 175 478 174 c 2
 364 58 l 2
 362 56 360 54 358 53 c 0
 357 52 356 52 355 51 c 0
 354 51 352 50 351 50 c 0
 350 50 348 50 347 50 c 0
 346 50 344 50 343 50 c 2
 61 51 l 1
 61 109 l 1
 331 107 l 1
 429 206 l 1
 427 322 l 1
 333 418 l 1
 61 415 l 1
 61 659 l 1
  Spiro
    61 659 v
    488 659 v
    488 598 v
    122 598 v
    122 475 v
    345 475 v
    353 474 o
    360 471 o
    366 466 [
    476 354 ]
    481 348 o
    484 341 o
    484 334 [
    486 195 ]
    486 187 o
    483 181 o
    478 174 [
    364 58 ]
    358 53 o
    351 50 o
    343 50 [
    61 51 v
    61 109 v
    331 107 v
    429 206 v
    427 322 v
    333 418 v
    61 415 v
    0 0 z
  EndSpiro
EndSplineSet
Validated: 1
EndChar

StartChar: six
Encoding: 54 54 38
Width: 536
VWidth: 0
InSpiro: 1
Flags: W
HStem: 54.6875 56.6405<213.867 333.984> 353.516 60.546<213.867 337.891>
VStem: 66.4062 54.6878<202.148 262.695 344.727 505.859> 427.734 56.641<204.102 264.648>
LayerCount: 2
Back
Fore
SplineSet
120.117 505.859 m 1
 121.094 344.727 l 1
 180.664 403.32 l 2
 182.617 405.273 184.57 407.227 186.523 408.203 c 0
 188.477 409.18 191.406 410.156 193.359 411.133 c 0
 195.312 412.109 198.242 412.109 201.172 412.109 c 2
 344.727 414.062 l 2
 347.656 414.062 349.609 414.062 352.539 413.086 c 0
 354.492 412.109 357.422 411.133 359.375 410.156 c 0
 361.328 409.18 363.281 407.227 365.234 405.273 c 2
 475.586 296.875 l 2
 477.539 294.922 479.492 292.969 480.469 291.016 c 0
 481.445 289.062 482.422 286.133 483.398 284.18 c 0
 484.375 281.25 484.375 279.297 484.375 276.367 c 2
 484.375 191.406 l 2
 484.375 189.453 484.375 186.523 483.398 183.594 c 0
 482.422 181.641 481.445 179.688 480.469 177.734 c 0
 479.492 174.805 477.539 172.852 475.586 170.898 c 2
 365.234 62.5 l 2
 363.281 60.5469 361.328 59.5703 359.375 57.6172 c 0
 357.422 56.6406 355.469 55.6641 352.539 55.6641 c 0
 350.586 54.6875 347.656 54.6875 345.703 54.6875 c 2
 202.148 54.6875 l 2
 199.219 54.6875 197.266 54.6875 194.336 55.6641 c 0
 192.383 55.6641 190.43 56.6406 188.477 57.6172 c 0
 185.547 59.5703 183.594 60.5469 181.641 62.5 c 2
 75.1953 168.945 l 2
 73.2422 169.922 72.2656 171.875 70.3125 174.805 c 0
 69.3359 176.758 68.3594 178.711 67.3828 180.664 c 0
 67.3828 183.594 66.4062 185.547 66.4062 188.477 c 2
 62.5 518.555 l 2
 62.5 521.484 63.4766 524.414 63.4766 526.367 c 0
 64.4531 529.297 65.4297 531.25 67.3828 534.18 c 0
 68.3594 536.133 70.3125 538.086 72.2656 540.039 c 2
 198.242 653.32 l 1
 234.375 611.328 l 1
 120.117 505.859 l 1
  Spiro
    121.116 344.276 v
    180.69 403.3 ]
    186.608 408.077 o
    193.309 410.964 o
    200.847 411.984 [
    344.852 413.892 ]
    352.438 413.065 o
    359.232 410.339 o
    365.284 405.689 [
    475.91 296.971 ]
    480.686 290.965 o
    483.53 284.18 o
    484.467 276.565 [
    484.467 191.688 ]
    483.53 184.074 o
    480.686 177.289 o
    475.91 171.284 [
    365.284 62.5644 ]
    359.343 57.9805 o
    352.681 55.2547 o
    345.23 54.3595 [
    202.179 54.3595 ]
    194.688 55.2644 o
    187.997 58.0186 o
    182.039 62.6482 [
    75.2275 168.506 ]
    70.5581 174.4 o
    67.7442 181.042 o
    66.7591 188.497 [
    62.9444 518.468 ]
    63.922 526.61 o
    67.0745 533.809 o
    72.3954 540.049 [
    198.28 653.536 v
    234.604 611.306 v
    120.31 506.205 v
    0 0 z
  EndSpiro
213.867 111.328 m 1
 333.984 111.328 l 1
 427.734 204.102 l 1
 427.734 264.648 l 1
 337.891 353.516 l 1
 213.867 354.492 l 1
 121.094 262.695 l 1
 121.094 202.148 l 1
 213.867 111.328 l 1
  Spiro
    213.955 111.58 v
    333.525 111.58 v
    427.246 203.685 v
    427.246 264.569 v
    337.601 353.813 v
    213.485 354.927 v
    121.116 262.261 v
    121.116 202.179 v
    0 0 z
  EndSpiro
EndSplineSet
Validated: 1
EndChar

StartChar: seven
Encoding: 55 55 39
Width: 536
VWidth: 0
InSpiro: 1
Flags: W
HStem: 48.54 21G<183.105 240.394> 597.954 61.035<61.0352 427.246>
VStem: 183.105 57.221<48.7344 315.219>
LayerCount: 2
Back
Fore
SplineSet
485.418 571.562 m 2
 485.418 568.989 485.23 566.401 484.56 563.917 c 0
 483.918 561.537 482.971 559.24 481.773 557.085 c 0
 480.523 554.834 478.861 552.841 477.04 551.021 c 2
 241.238 315.219 l 1
 240.326 48.54 l 1
 183.105 48.7344 l 1
 184.06 327.209 l 2
 184.067 329.735 184.299 332.274 184.993 334.705 c 0
 185.657 337.033 186.592 339.285 187.777 341.396 c 0
 189.015 343.6 190.655 345.55 192.439 347.341 c 2
 427.246 583.172 l 1
 427.246 597.954 l 1
 61.0352 597.954 l 1
 61.0352 658.989 l 1
 485.42 659.148 l 1
 485.418 571.562 l 2
  Spiro
    485.418 571.562 ]
    484.56 563.917 o
    481.773 557.085 o
    477.04 551.021 [
    241.238 315.219 v
    240.326 48.5396 v
    183.105 48.7352 v
    184.06 327.209 ]
    184.993 334.705 o
    187.777 341.396 o
    192.439 347.341 [
    427.246 583.172 v
    427.246 597.954 v
    61.0352 597.954 v
    61.0352 658.989 v
    485.42 659.148 v
    0 0 z
  EndSpiro
EndSplineSet
Validated: 1
EndChar

StartChar: eight
Encoding: 56 56 40
Width: 536
VWidth: 0
Flags: W
HStem: 55 56<223 325> 363 56<227 325> 602 57<225 325>
VStem: 64 58<213 254> 124 58<458 554> 366 58<458 560> 428 56<214 254>
LayerCount: 2
Back
Fore
SplineSet
133 583 m 1
 190 649 l 1
 192 651 194 652 196 654 c 0
 198 655 200 657 203 658 c 0
 206 659 209 659 212 659 c 2
 337 660 l 2
 340 660 342 660 345 659 c 0
 347 658 351 657 353 656 c 0
 355 655 356 653 358 651 c 2
 416 591 l 2
 418 589 420 587 421 585 c 0
 422 583 423 580 424 578 c 0
 425 576 425 574 425 571 c 2
 424 446 l 2
 424 443 424 440 423 438 c 0
 422 436 421 434 420 432 c 0
 419 430 417 428 415 426 c 2
 379 392 l 1
 479 285 l 2
 481 283 482 280 483 278 c 0
 484 276 484 273 485 271 c 0
 486 268 486 268 486 265 c 2
 484 200 l 2
 484 198 484 195 483 193 c 0
 482 191 481 189 480 187 c 0
 479 185 479 183 477 181 c 2
 356 62 l 2
 354 60 353 58 351 57 c 0
 349 56 346 56 344 55 c 0
 341 54 340 54 337 54 c 2
 211 55 l 2
 208 55 205 55 203 56 c 0
 201 57 198 58 196 59 c 0
 194 60 192 60 190 62 c 2
 73 181 l 2
 71 183 69 186 68 188 c 0
 67 190 66 192 65 194 c 0
 64 197 64 198 64 201 c 2
 65 266 l 2
 65 268 65 270 66 272 c 0
 67 274 68 277 69 279 c 0
 70 281 72 283 74 285 c 2
 172 390 l 1
 134 424 l 2
 132 426 129 428 128 430 c 0
 127 432 126 435 125 438 c 0
 124 441 124 443 124 446 c 2
 126 565 l 2
 126 567 126 569 127 571 c 0
 128 573 128 576 129 578 c 0
 130 580 131 581 133 583 c 1
123 254 m 1
 122 213 l 1
 223 111 l 1
 325 110 l 1
 428 214 l 5
 429 254 l 1
 325 363 l 1
 227 361 l 1
 123 254 l 1
183 554 m 1
 182 458 l 1
 226 420 l 1
 326 419 l 1
 366 458 l 1
 367 560 l 1
 325 603 l 1
 225 602 l 1
 183 554 l 1
EndSplineSet
Validated: 1
EndChar

StartChar: nine
Encoding: 57 57 41
Width: 536
VWidth: 0
InSpiro: 1
Flags: W
HStem: 294 57<159 266> 603 57<220 384>
VStem: 59 57<403 498> 427 56<149 437 503 558>
LayerCount: 2
Back
Fore
SplineSet
118 498 m 1
 116 403 l 1
 159 351 l 1
 266 351 l 1
 424 503 l 1
 425 558 l 1
 384 603 l 1
 220 601 l 1
 118 498 l 1
  Spiro
    118 498 v
    116 403 v
    159 351 v
    266 351 v
    424 503 v
    425 558 v
    384 603 v
    220 601 v
    0 0 z
  EndSpiro
188 650 m 2
 189 652 191 653 193 654 c 0
 195 655 198 656 200 657 c 0
 203 658 205 658 208 658 c 2
 396 660 l 2
 399 660 402 660 405 659 c 0
 407 658 410 657 412 656 c 0
 414 655 416 653 418 651 c 2
 475 588 l 2
 476 587 477 586 477 585 c 0
 478 584 478 583 479 582 c 0
 480 580 481 577 482 575 c 0
 483 573 483 570 483 568 c 2
 483 137 l 2
 483 135 483 132 482 130 c 0
 481 128 480 125 479 123 c 0
 478 121 476 120 475 118 c 2
 413 53 l 2
 411 51 409 49 407 48 c 0
 405 47 403 46 400 45 c 0
 395 44 390 44 385 45 c 0
 380 46 376 49 372 52 c 0
 368 55 365 60 364 65 c 0
 363 70 363 74 364 79 c 0
 364 81 365 84 366 86 c 0
 368 88 369 90 371 92 c 2
 427 149 l 1
 428 437 l 1
 297 302 l 2
 295 300 293 298 291 297 c 0
 289 296 287 296 285 295 c 0
 284 295 283 294 282 294 c 0
 280 294 279 294 278 294 c 2
 145 294 l 2
 142 294 139 294 136 295 c 0
 134 296 131 297 129 298 c 0
 127 300 125 302 123 304 c 2
 66 375 l 2
 64 377 63 379 62 381 c 0
 61 383 61 385 60 387 c 0
 60 388 59 389 59 390 c 0
 59 391 59 392 59 393 c 2
 61 510 l 2
 61 513 61 515 62 518 c 0
 62 520 63 522 64 524 c 0
 65 526 67 528 69 530 c 2
 188 650 l 2
  Spiro
    188 650 v
    193 654 o
    200 657 o
    208 658 [
    396 660 ]
    405 659 o
    412 656 o
    418 651 [
    475 588 ]
    479 582 o
    482 575 o
    483 568 [
    483 137 ]
    482 130 o
    479 123 o
    475 118 [
    413 53 ]
    400 45 o
    385 45 o
    372 52 o
    364 65 o
    364 79 o
    371 92 [
    427 149 v
    428 437 v
    297 302 ]
    291 297 o
    285 295 o
    278 294 [
    145 294 ]
    136 295 o
    129 298 o
    123 304 [
    66 375 ]
    62 381 o
    60 387 o
    59 393 [
    61 510 ]
    62 518 o
    64 524 o
    69 530 [
    0 0 z
  EndSpiro
EndSplineSet
Validated: 1
EndChar

StartChar: ssharp
Encoding: 223 223 42
Width: 536
VWidth: 0
InSpiro: 1
Flags: W
HStem: 53.7109 56.6411<285.156 387.695> 600.586 57.617<221.68 266.602>
VStem: 61.5234 57.6176<48.8281 502.93> 306.641 57.617<518.555 557.617> 428.711 56.641<152.344 250.977>
LayerCount: 2
Back
Fore
SplineSet
60.5469 514.648 m 2
 60.5469 523.438 63.4766 530.273 70.3125 536.133 c 2
 191.406 650.391 l 2
 196.289 655.273 203.125 658.203 210.938 658.203 c 2
 278.32 658.203 l 2
 287.109 658.203 293.945 655.273 298.828 649.414 c 2
 356.445 588.867 l 2
 361.328 583.008 364.258 577.148 364.258 569.336 c 2
 364.258 507.812 l 2
 364.258 500 361.328 493.164 356.445 487.305 c 2
 315.43 445.312 l 1
 477.539 283.203 l 2
 483.398 277.344 486.328 271.484 486.328 262.695 c 2
 485.352 139.648 l 2
 485.352 131.836 482.422 125 476.562 120.117 c 2
 419.922 63.4766 l 2
 414.062 57.6172 408.203 55.6641 400.391 55.6641 c 2
 274.414 53.7109 l 2
 265.625 53.7109 259.766 55.6641 253.906 61.5234 c 2
 192.383 122.07 l 1
 232.422 162.109 l 1
 285.156 110.352 l 1
 387.695 112.305 l 1
 428.711 152.344 l 1
 428.711 250.977 l 1
 255.859 423.828 l 2
 249.873 429.814 246.944 437.076 246.944 444.31 c 0
 246.944 451.235 249.629 458.135 254.883 463.867 c 2
 306.641 518.555 l 1
 306.641 557.617 l 1
 266.602 600.586 l 1
 221.68 600.586 l 1
 118.164 502.93 l 1
 119.141 48.8281 l 1
 61.5234 48.8281 l 1
 60.5469 514.648 l 2
  Spiro
    61.0352 514.925 ]
    62.0081 522.747 o
    64.9916 529.69 o
    69.9964 535.78 [
    191.112 650.221 ]
    196.977 654.592 o
    203.498 657.186 o
    210.762 658.035 [
    278.473 658.035 ]
    286.235 657.061 o
    293.132 654.106 o
    299.191 649.155 [
    356.412 589.074 ]
    360.825 583.194 o
    363.444 576.645 o
    364.304 569.344 [
    364.304 507.354 ]
    363.442 500.043 o
    360.814 493.484 o
    356.388 487.601 [
    315.658 444.93 v
    477.94 283.498 ]
    482.688 277.449 o
    485.492 270.63 o
    486.373 262.993 [
    485.419 139.969 ]
    484.443 132.437 o
    481.602 125.73 o
    476.869 119.79 [
    419.649 63.5236 ]
    413.834 59.0125 o
    407.318 56.2883 o
    400.022 55.3168 [
    274.138 53.4095 ]
    266.522 54.227 o
    259.705 56.9591 o
    253.634 61.6266 [
    192.599 121.708 v
    232.74 162.487 v
    285.243 110.805 v
    387.699 112.356 v
    428.293 152.273 v
    429.061 251.411 v
    255.435 424.129 ]
    247.668 436.984 o
    247.485 451.114 o
    254.917 464.167 [
    307.083 518.818 v
    307.083 557.899 v
    266.212 600.814 v
    222.142 600.814 v
    118.28 502.68 v
    119.209 48.696 v
    61.9889 48.5787 v
    0 0 z
  EndSpiro
EndSplineSet
Validated: 1
EndChar

StartChar: section
Encoding: 167 167 43
Width: 536
VWidth: 0
Flags: W
HStem: -71 57<122 265> 600 57<221 363>
VStem: 62 58<336 437> 123 57<512 556> 305 58<31 73> 364 57<150 251>
LayerCount: 2
Back
Fore
SplineSet
339 126 m 1
 364 150 l 1
 366 251 l 1
 148 459 l 1
 121 437 l 1
 120 336 l 1
 339 126 l 1
363 73 m 1
 363 20 l 2
 363 17 362 15 362 12 c 0
 361 10 360 8 359 6 c 0
 358 4 357 2 355 0 c 2
 299 -61 l 2
 297 -63 295 -65 293 -66 c 0
 290 -67 288 -68 286 -69 c 0
 283 -70 280 -70 278 -70 c 2
 122 -71 l 1
 122 -14 l 1
 265 -13 l 1
 305 31 l 1
 305 79 l 1
 71 303 l 2
 69 305 67 307 66 309 c 0
 65 311 64 314 63 316 c 0
 62 319 62 322 62 324 c 2
 64 450 l 2
 64 453 64 455 65 458 c 0
 66 460 67 463 68 465 c 0
 70 467 72 469 74 471 c 2
 123 512 l 1
 123 567 l 2
 123 570 123 572 124 575 c 0
 124 577 125 579 126 581 c 0
 127 583 129 585 130 587 c 2
 187 648 l 2
 188 650 190 652 193 653 c 0
 195 654 197 655 200 656 c 0
 202 657 205 657 208 657 c 2
 363 658 l 1
 363 601 l 1
 221 600 l 1
 180 556 l 1
 180 508 l 1
 414 284 l 2
 416 282 418 280 419 278 c 0
 421 275 422 273 422 271 c 0
 423 268 423 265 423 263 c 2
 421 137 l 2
 421 134 421 131 420 129 c 0
 419 126 418 124 417 122 c 0
 416 120 414 118 412 116 c 2
 363 73 l 1
EndSplineSet
Validated: 1
EndChar

StartChar: numbersign
Encoding: 35 35 44
Width: 536
VWidth: 0
InSpiro: 1
Flags: W
HStem: 293.096 61.035<61.0352 122.07 183.741 305.176 366.211 427.246> 475.565 61.036<61.0352 121.435 183.741 305.176 366.847 426.61> 577.922 20G<122.257 183.741 305.176 366.422>
VStem: 122.07 61.035<232.061 291.824 354.767 475.565 537.872 597.636> 305.176 61.035<232.696 293.096 352.859 475.565 537.872 597.636>
LayerCount: 2
Back
Fore
SplineSet
305.176 475.565 m 1
 183.741 475.565 l 1
 183.105 354.767 l 1
 305.176 352.859 l 1
 305.176 475.565 l 1
  Spiro
    305.176 475.565 v
    183.741 475.565 v
    183.105 354.767 v
    305.176 352.859 v
    320 498.667 z
  EndSpiro
122.039 597.922 m 1
 183.741 597.636 l 1
 183.105 537.872 l 1
 305.176 536.601 l 1
 305.176 597.636 l 1
 366.211 598.271 l 1
 366.847 537.872 l 1
 426.61 535.965 l 1
 426.61 475.565 l 1
 366.211 475.565 l 1
 366.211 352.859 l 1
 427.246 353.495 l 1
 427.246 293.731 l 1
 366.211 293.096 l 1
 365.575 232.696 l 1
 305.176 232.061 l 1
 305.812 293.096 l 1
 183.741 293.731 l 1
 182.47 232.061 l 1
 122.07 232.061 l 1
 122.07 291.824 l 1
 61.0352 293.096 l 1
 60.3994 354.131 l 1
 122.07 354.131 l 1
 121.435 475.565 l 1
 61.0352 475.565 l 1
 60.3994 536.601 l 1
 122.706 536.601 l 1
 122.039 597.922 l 1
  Spiro
    122.039 597.922 v
    183.741 597.636 v
    183.105 537.872 v
    305.176 536.601 v
    305.176 597.636 v
    366.211 598.271 v
    366.847 537.872 v
    426.61 535.965 v
    426.61 475.565 v
    366.211 475.565 v
    366.211 352.859 v
    427.246 353.495 v
    427.246 293.731 v
    366.211 293.096 v
    365.575 232.696 v
    305.176 232.061 v
    305.812 293.096 v
    183.741 293.731 v
    182.47 232.061 v
    122.07 232.061 v
    122.07 291.824 v
    61.0352 293.096 v
    60.3993 354.131 v
    122.07 354.131 v
    121.435 475.565 v
    61.0352 475.565 v
    60.3993 536.601 v
    122.706 536.601 v
    0 0 z
  EndSpiro
EndSplineSet
Validated: 1
EndChar

StartChar: at
Encoding: 64 64 45
Width: 536
VWidth: 0
InSpiro: 1
Flags: W
HStem: 55.6641 56.6409<161.133 488.281> 299.805 56.64<242.188 387.695> 377.93 96.732<307.617 363.58> 416.992 57.617<281.25 307.617> 601.562 57.618<163.086 387.695>
VStem: 61.5234 56.6406<152.344 558.594> 184.57 57.618<356.445 380.859> 307.617 57.617<377.93 416.992> 428.711 56.641<396.484 557.617>
LayerCount: 2
Back
Fore
SplineSet
149.414 55.6641 m 2xdf80
 141.602 55.6641 135.742 57.6172 129.883 63.4766 c 2
 70.3125 119.141 l 2
 63.4766 125 60.5469 131.836 61.5234 140.625 c 2
 63.4766 570.312 l 2
 63.4766 578.125 66.4062 584.961 72.2656 589.844 c 2
 129.883 650.391 l 2
 135.742 656.25 142.578 659.18 150.391 659.18 c 2
 399.414 658.203 l 2
 408.203 658.203 414.062 655.273 419.922 649.414 c 2
 479.492 589.844 l 2
 484.375 583.984 487.305 577.148 487.305 569.336 c 2
 485.352 384.766 l 2
 485.352 376.953 482.422 371.094 477.539 365.234 c 2
 419.922 305.664 l 2
 414.062 299.805 407.227 296.875 399.414 296.875 c 2
 212.891 299.805 l 2
 196.289 299.805 184.57 311.523 184.57 328.125 c 2
 185.547 393.555 l 2
 186.523 401.367 189.453 408.203 195.312 414.062 c 2
 250 465.82 l 2
 255.859 471.68 261.719 473.633 269.531 473.633 c 2
 334.961 474.609 l 2xdf80
 335.562 474.645 336.157 474.662 336.747 474.662 c 0
 352.465 474.662 364.258 462.29 364.258 446.289 c 2
 365.234 377.93 l 1xef80
 307.617 376.953 l 1
 307.617 416.992 l 1
 281.25 416.992 l 1
 243.164 380.859 l 1
 242.188 356.445 l 1
 387.695 353.516 l 1
 428.711 396.484 l 1
 429.688 557.617 l 1
 387.695 600.586 l 1
 163.086 601.562 l 1
 121.094 558.594 l 1
 118.164 152.344 l 1
 161.133 112.305 l 1
 488.281 107.422 l 1
 488.281 50.7812 l 1
 149.414 55.6641 l 2xdf80
  Spiro
    149.323 55.3159 ]
    142.246 56.2238 o
    135.896 58.7853 o
    130.17 63.0412 [
    70.0886 119.309 ]
    65.0101 125.449 o
    61.9946 132.468 o
    61.0361 140.38 [
    63.8972 570.487 ]
    64.8081 577.798 o
    67.4821 584.342 o
    71.9521 590.198 [
    130.126 650.28 ]
    136.189 655.157 o
    143.065 658.056 o
    150.79 658.989 [
    399.699 658.035 ]
    407.268 657.081 o
    414.01 654.24 o
    419.981 649.493 [
    479.108 589.412 ]
    483.751 583.381 o
    486.482 576.611 o
    487.325 569.047 [
    485.418 384.988 ]
    484.509 377.793 o
    481.891 371.347 o
    477.528 365.554 [
    420.309 305.473 ]
    414.121 300.443 o
    407.072 297.486 o
    399.149 296.597 [
    213.183 299.458 ]
    198.492 303.415 o
    188.53 313.683 o
    185.016 328.484 [
    185.97 393.334 ]
    187.026 400.965 o
    189.993 407.729 o
    194.89 413.675 [
    250.203 466.126 ]
    255.953 470.445 o
    262.345 473.048 o
    269.475 473.974 [
    335.278 474.927 ]
    350.092 471.403 o
    360.358 461.425 o
    364.301 446.717 [
    365.255 378.053 v
    308.04 377.258 v
    307.483 417.297 v
    281.473 416.921 v
    243.007 380.445 v
    242.651 356.23 v
    387.509 354.002 v
    428.318 396.853 v
    429.985 557.751 v
    387.56 600.86 v
    162.758 601.722 v
    121.039 558.636 v
    118.339 152.517 v
    161.201 112.375 v
    488.685 107.763 v
    487.878 50.5475 v
    0 0 z
  EndSpiro
EndSplineSet
Validated: 1
EndChar

StartChar: percent
Encoding: 37 37 46
Width: 536
VWidth: 0
InSpiro: 1
Flags: W
HStem: -14.6484 57.6172<364.496 424.618> 113.281 56.641<364.655 424.459> 474.609 56.641<121.68 181.364> 601.562 57.618<121.521 181.454>
VStem: 61.5234 56.6406<534.438 598.692> 184.57 57.618<534.286 598.692> 304.688 56.64<45.8394 110.094> 427.734 57.618<45.8394 110.094>
LayerCount: 2
Back
Fore
SplineSet
427.734 533.203 m 2
 434.082 539.062 442.139 541.992 450.073 541.992 c 0
 458.008 541.992 465.82 539.062 471.68 533.203 c 0
 478.154 527.227 481.327 519.218 481.327 511.12 c 0
 481.327 503.341 478.398 495.479 472.656 489.258 c 2
 113.281 123.047 l 2
 107.422 117.188 99.6094 114.258 91.7969 114.258 c 0
 83.9844 114.258 76.1719 117.188 70.3125 123.047 c 0
 63.8379 129.023 60.665 137.032 60.665 145.13 c 0
 60.665 152.909 63.5938 160.771 69.3359 166.992 c 2
 427.734 533.203 l 2
  Spiro
    427.988 532.854 ]
    441.939 541.062 o
    457.698 541.229 o
    471.819 533.315 o
    480.027 519.364 o
    480.193 503.605 o
    472.28 489.484 [
    113.699 123.273 ]
    99.748 115.065 o
    83.9892 114.899 o
    69.8678 122.812 o
    61.6596 136.764 o
    61.4939 152.522 o
    69.4068 166.644 [
    0 0 z
  EndSpiro
394.531 169.922 m 0
 445.312 169.922 485.352 127.93 485.352 78.125 c 0
 485.352 27.3438 445.312 -14.6484 394.531 -14.6484 c 0
 343.75 -14.6484 304.688 27.3438 304.688 78.125 c 0
 304.688 127.93 343.75 169.922 394.531 169.922 c 0
  Spiro
    394.807 170.29 o
    440.72 157.555 o
    473.089 124.203 o
    485.27 77.921 o
    473.082 31.6392 o
    440.704 -1.7133 o
    394.807 -14.4495 o
    348.895 -1.71351 o
    316.523 31.6388 o
    304.344 77.921 o
    316.532 124.203 o
    348.909 157.555 o
    0 0 z
  EndSpiro
361.328 78.125 m 0
 361.328 57.6172 376.953 42.9688 394.531 42.9688 c 0
 412.109 42.9688 427.734 57.6172 427.734 78.125 c 0
 427.734 97.6562 412.109 113.281 394.531 113.281 c 0
 376.953 113.281 361.328 97.6562 361.328 78.125 c 0
  Spiro
    361.564 77.921 o
    366.249 59.9141 o
    378.354 47.4202 o
    394.807 42.771 o
    411.275 47.4199 o
    423.371 59.9136 o
    428.049 77.921 o
    423.363 95.9272 o
    411.26 108.421 o
    394.807 113.069 o
    378.339 108.421 o
    366.241 95.9282 o
    0 0 z
  EndSpiro
151.367 659.18 m 0
 202.148 659.18 242.188 617.188 242.188 566.406 c 0
 242.188 516.602 202.148 474.609 151.367 474.609 c 0
 101.562 474.609 61.5234 516.602 61.5234 566.406 c 0
 61.5234 617.188 101.562 659.18 151.367 659.18 c 0
  Spiro
    151.771 659.125 o
    197.684 646.389 o
    230.053 613.037 o
    242.233 566.755 o
    230.045 520.474 o
    197.668 487.121 o
    151.771 474.386 o
    105.856 487.121 o
    73.488 520.474 o
    61.308 566.755 o
    73.4956 613.037 o
    105.873 646.389 o
    0 0 z
  EndSpiro
118.164 566.406 m 0
 118.164 546.875 133.789 531.25 151.367 531.25 c 0
 169.922 531.25 184.57 546.875 184.57 566.406 c 0
 184.57 586.914 168.945 601.562 151.367 601.562 c 0
 133.789 601.562 118.164 586.914 118.164 566.406 c 0
  Spiro
    118.528 566.755 o
    123.213 548.748 o
    135.317 536.255 o
    151.771 531.605 o
    168.237 536.255 o
    180.335 548.748 o
    185.013 566.755 o
    180.327 584.763 o
    168.224 597.256 o
    151.771 601.905 o
    135.303 597.256 o
    123.206 584.763 o
    0 0 z
  EndSpiro
EndSplineSet
Validated: 1
EndChar

StartChar: underscore
Encoding: 95 95 47
Width: 536
VWidth: 0
Flags: W
HStem: -13 62<61 488>
LayerCount: 2
Back
Fore
SplineSet
61 49 m 1
 488 49 l 1
 488 -13 l 1
 61 -13 l 1
 61 49 l 1
EndSplineSet
Validated: 1
EndChar

StartChar: ampersand
Encoding: 38 38 48
Width: 536
VWidth: 0
InSpiro: 1
Flags: W
HStem: 53 58<162 263> 298 62<148 184> 538 57<162 205>
VStem: 67 57<152 259 393 496> 184 56<275 298> 244 57<398 498>
LayerCount: 2
Back
Fore
SplineSet
294 141 m 1
 193 242 l 2
 191 244 189 245 188 247 c 0
 187 249 186 251 185 253 c 0
 185 255 185 256 184 257 c 0
 184 258 184 259 184 260 c 2
 184 298 l 1
 148 298 l 1
 121 259 l 1
 119 152 l 1
 162 111 l 1
 263 110 l 1
 294 141 l 1
  Spiro
    192.519 241.951 ]
    188.152 247.365 o
    185.373 253.436 o
    184.128 260.278 [
    184.165 298.183 v
    148.37 298.327 v
    120.983 258.84 v
    119.391 152.136 v
    162.354 110.536 v
    262.942 109.764 v
    294.079 140.971 v
    0 0 z
  EndSpiro
99 328 m 1
 72 368 l 2
 71 370 70 372 69 373 c 0
 68 375 68 377 67 378 c 0
 67 380 67 382 67 384 c 2
 66 507 l 2
 66 510 66 512 67 514 c 0
 67 517 68 519 69 521 c 0
 70 523 72 525 74 527 c 2
 129 586 l 2
 131 588 133 590 135 591 c 0
 137 592 140 593 142 594 c 0
 145 595 147 595 150 595 c 2
 217 594 l 2
 219 594 222 594 224 593 c 0
 226 593 229 592 231 590 c 0
 233 589 235 588 237 586 c 2
 293 531 l 2
 295 529 296 527 297 525 c 0
 299 523 300 521 300 518 c 0
 301 516 301 513 301 511 c 2
 304 387 l 2
 304 384 304 382 303 379 c 0
 303 377 302 374 301 372 c 0
 299 370 298 368 296 366 c 2
 240 309 l 1
 240 275 l 1
 335 182 l 1
 440 286 l 1
 481 246 l 1
 375 141 l 1
 478 39 l 1
 438 -1 l 1
 335 101 l 1
 295 61 l 2
 293 59 291 57 289 56 c 0
 287 55 284 54 282 53 c 0
 280 53 277 52 274 52 c 2
 150 53 l 2
 148 53 146 54 143 54 c 0
 141 55 139 56 137 57 c 0
 134 58 133 60 131 61 c 2
 71 120 l 2
 69 121 67 123 66 126 c 0
 65 128 64 130 63 133 c 0
 62 135 62 138 62 141 c 2
 64 268 l 2
 64 270 64 272 64 274 c 0
 65 276 65 278 66 279 c 0
 67 281 68 283 69 284 c 2
 99 328 l 1
  Spiro
    71.6289 368.361 ]
    68.9077 373.308 o
    67.3048 378.49 o
    66.7582 384.109 [
    65.8045 507.134 ]
    66.6043 514.43 o
    69.1653 520.991 o
    73.5205 526.9 [
    128.834 586.028 ]
    135.04 591.152 o
    142.14 594.173 o
    150.136 595.09 [
    216.894 594.137 ]
    224.196 593.169 o
    230.719 590.445 o
    236.541 585.932 [
    292.808 530.619 ]
    297.464 524.805 o
    300.302 518.249 o
    301.354 510.876 [
    304.215 386.898 ]
    303.44 379.204 o
    300.709 372.308 o
    296.003 366.17 [
    240.326 308.609 v
    240.465 274.985 v
    335 181.718 v
    440.447 286.357 v
    480.803 245.792 v
    375.228 141.144 v
    477.915 39.3828 v
    437.612 -1.23587 v
    334.653 101.09 v
    294.836 60.78 v
    288.808 56.0912 o
    282.026 53.3228 o
    274.438 52.453 [
    150.461 53.4067 ]
    143.161 54.3231 o
    136.627 56.9969 o
    130.779 61.4617 [
    70.6976 119.636 ]
    65.7641 125.791 o
    62.8653 132.776 o
    61.9916 140.616 [
    63.8989 268.409 ]
    64.4996 274.091 o
    66.1779 279.317 o
    68.997 284.287 [
    99.1816 328.064 v
    0 0 z
  EndSpiro
208 360 m 1
 247 398 l 1
 244 498 l 1
 205 537 l 1
 162 538 l 1
 123 496 l 1
 124 393 l 1
 146 360 l 1
 208 360 l 1
  Spiro
    246.729 397.68 v
    244.416 497.951 v
    204.607 537.086 v
    161.974 537.694 v
    123.111 496.153 v
    123.91 393.159 v
    146.015 360.302 v
    208.254 359.533 v
    0 0 z
  EndSpiro
EndSplineSet
Validated: 1
EndChar

StartChar: period
Encoding: 46 46 50
Width: 536
VWidth: 0
Flags: W
HStem: 49 122<184 305>
VStem: 184 121<49 171>
LayerCount: 2
Back
Fore
SplineSet
184 171 m 1
 305 171 l 1
 305 49 l 1
 184 49 l 1
 184 171 l 1
EndSplineSet
Validated: 1
EndChar

StartChar: comma
Encoding: 44 44 51
Width: 536
VWidth: 0
InSpiro: 1
Flags: W
HStem: -71 242
VStem: 244 122<107 171>
LayerCount: 2
Back
Fore
SplineSet
366 83 m 2
 366 78 365 73 364 68 c 0
 362 64 360 60 358 56 c 0
 356 52 353 48 350 44 c 2
 234 -71 l 1
 151 8 l 1
 244 107 l 1
 244 171 l 1
 365 171 l 1
 366 83 l 2
  Spiro
    365.504 82.5987 ]
    363.58 68.4702 o
    358.364 55.8182 o
    349.774 44.4369 [
    234.118 -70.8904 v
    151.166 7.9479 v
    244.182 107.091 v
    244.182 170.727 v
    365.455 170.727 v
    0 0 z
  EndSpiro
EndSplineSet
Validated: 1
EndChar

StartChar: colon
Encoding: 58 58 52
Width: 536
VWidth: 0
Flags: W
HStem: 49 122<184 305> 293 122<184 305>
VStem: 184 121<49 171 293 415>
LayerCount: 2
Back
Fore
SplineSet
184 415 m 1
 305 415 l 1
 305 293 l 1
 184 293 l 1
 184 415 l 1
184 171 m 1
 305 171 l 1
 305 49 l 1
 184 49 l 1
 184 171 l 1
EndSplineSet
Validated: 1
EndChar

StartChar: plus
Encoding: 43 43 53
Width: 536
VWidth: 0
Flags: W
HStem: 293 61<61 244 305 488>
VStem: 244 61<109 293 354 537>
LayerCount: 2
Back
Fore
SplineSet
244 537 m 5
 305 537 l 5
 305 354 l 5
 488 354 l 5
 488 293 l 5
 305 293 l 5
 305 109 l 5
 244 109 l 5
 244 293 l 5
 61 293 l 5
 61 354 l 5
 244 354 l 5
 244 537 l 5
EndSplineSet
Validated: 1
EndChar

StartChar: notsign
Encoding: 172 172 54
Width: 536
VWidth: 0
Flags: W
HStem: 537 61<61 428>
VStem: 428 60<415 537>
LayerCount: 2
Back
Fore
SplineSet
61 598 m 1
 488 598 l 1
 488 415 l 1
 428 415 l 1
 428 537 l 1
 61 537 l 1
 61 598 l 1
EndSplineSet
Validated: 1
EndChar

StartChar: macron
Encoding: 175 175 55
Width: 536
VWidth: 0
Flags: W
HStem: 598 61<61 488>
LayerCount: 2
Back
Fore
SplineSet
61 659 m 1
 488 659 l 1
 488 598 l 1
 61 598 l 1
 61 659 l 1
EndSplineSet
Validated: 1
EndChar

StartChar: degree
Encoding: 176 176 56
Width: 536
VWidth: 0
Flags: W
HStem: 417 57<200.249 289.751> 603 57<200.739 289.261>
VStem: 127 57<490.318 587.399> 306 57<490.318 587.399>
LayerCount: 2
Back
Fore
SplineSet
245 660 m 0
 311 660 363 604 363 538 c 0
 363 472 311 417 245 417 c 0
 179 417 127 472 127 538 c 0
 127 604 179 660 245 660 c 0
184 538 m 0
 184 502 212 474 245 474 c 0
 278 474 306 502 306 538 c 0
 306 574 278 603 245 603 c 0
 212 603 184 574 184 538 c 0
EndSplineSet
Validated: 1
EndChar

StartChar: periodcentered
Encoding: 183 183 57
Width: 536
VWidth: 0
Flags: W
HStem: 231 123<184 305>
VStem: 184 121<231 354>
LayerCount: 2
Back
Fore
SplineSet
184 354 m 1
 305 354 l 1
 305 231 l 1
 184 231 l 1
 184 354 l 1
EndSplineSet
Validated: 1
EndChar

StartChar: asciicircum
Encoding: 94 94 58
Width: 536
VWidth: 0
InSpiro: 1
Flags: W
HStem: 487 172
VStem: 131 286
LayerCount: 2
Back
Fore
SplineSet
254 650 m 2
 260 656 267.25 659 274.375 659 c 0
 281.5 659 288.5 656 294 650 c 2
 417 528 l 1
 377 487 l 1
 274 589 l 1
 172 488 l 1
 131 528 l 1
 254 650 l 2
  Spiro
    254.141 650.131 ]
    267.191 657.845 o
    281.449 657.822 o
    294.476 650.068 [
    417.309 527.616 v
    376.911 487.093 v
    274.214 589.471 v
    171.579 487.792 v
    131.309 528.442 v
    0 0 z
  EndSpiro
EndSplineSet
Validated: 1
EndChar

StartChar: asciitilde
Encoding: 126 126 59
Width: 536
VWidth: 0
InSpiro: 1
Flags: W
HStem: 478.268 57.22<347.301 387.128> 599.946 57.135<163.306 204.487>
LayerCount: 2
Back
Fore
SplineSet
131.73 649.023 m 2
 137.294 654.411 143.678 657.023 151.424 657.081 c 2
 216.273 657.558 l 2
 224.479 657.617 231.271 654.778 236.993 648.896 c 2
 347.301 535.488 l 1
 387.128 535.488 l 1
 437.849 587.027 l 1
 478.632 546.892 l 1
 419.504 486.81 l 2
 413.843 481.059 407.183 478.268 399.112 478.268 c 2
 335.217 478.268 l 2
 327.087 478.268 320.376 481.102 314.708 486.93 c 2
 204.487 600.248 l 1
 163.306 599.946 l 1
 110.98 549.269 l 1
 71.1719 590.372 l 1
 131.73 649.023 l 2
  Spiro
    131.73 649.023 ]
    137.581 653.491 o
    144.118 656.166 o
    151.424 657.081 [
    216.273 657.558 ]
    224.014 656.647 o
    230.908 653.766 o
    236.993 648.896 [
    347.301 535.488 v
    387.128 535.488 v
    437.849 587.027 v
    478.632 546.892 v
    419.504 486.81 ]
    413.501 482.042 o
    406.721 479.202 o
    399.112 478.268 [
    335.217 478.268 ]
    327.553 479.217 o
    320.731 482.098 o
    314.708 486.93 [
    204.487 600.248 v
    163.306 599.946 v
    110.98 549.269 v
    71.1717 590.372 v
    0 0 z
  EndSpiro
EndSplineSet
Validated: 1
EndChar

StartChar: diaeresis
Encoding: 168 168 60
Width: 536
VWidth: 0
Flags: W
HStem: 537 122<61 184 366 488>
VStem: 61 123<537 659> 366 122<537 659>
LayerCount: 2
Back
Fore
SplineSet
61 659 m 1
 184 659 l 1
 184 537 l 1
 61 537 l 1
 61 659 l 1
366 659 m 1
 488 659 l 1
 488 537 l 1
 366 537 l 1
 366 659 l 1
EndSplineSet
Validated: 1
EndChar

StartChar: grave
Encoding: 96 96 61
Width: 536
VWidth: 0
InSpiro: 1
Flags: W
HStem: 479.75 177.5
VStem: 185.75 178.25
LayerCount: 2
Back
Fore
SplineSet
355 529 m 2
 361 523 364 515.5 364 508.125 c 0
 364 500.75 361 493.5 355 488 c 0
 349.5 482.5 342.25 479.75 335 479.75 c 0
 327.75 479.75 320.5 482.5 315 488 c 2
 194 608 l 2
 188.5 613.5 185.75 620.75 185.75 628.125 c 0
 185.75 635.5 188.5 643 194 649 c 0
 199.5 654.5 207 657.25 214.5 657.25 c 0
 222 657.25 229.5 654.5 235 649 c 2
 355 529 l 2
  Spiro
    355.407 528.579 ]
    362.873 515.637 o
    362.901 501.09 o
    355.487 488.118 o
    342.545 480.652 o
    327.998 480.623 o
    315.026 488.038 [
    194.387 608.201 ]
    186.92 621.144 o
    186.892 635.689 o
    194.307 648.661 o
    207.249 656.128 o
    221.795 656.156 o
    234.767 648.742 [
    0 0 z
  EndSpiro
EndSplineSet
Validated: 1
EndChar

StartChar: acute
Encoding: 180 180 62
Width: 536
VWidth: 0
Flags: W
HStem: 477.275 181.45
VStem: 186.275 180.45
LayerCount: 2
Back
Fore
SplineSet
195 486 m 0
 188.736 492.264 186.275 499.73 186.275 506.874 c 0
 186.275 515.696 190.027 524.027 195 529 c 0
 315 650 l 0
 321.264 656.264 328.73 658.725 335.874 658.725 c 0
 344.696 658.725 353.027 654.973 358 650 c 0
 362.973 645.027 366.725 636.696 366.725 627.874 c 0
 366.725 620.73 364.264 613.264 358 607 c 0
 238 486 l 0
 233.027 481.027 224.696 477.275 215.874 477.275 c 0
 208.73 477.275 201.264 479.736 195 486 c 0
EndSplineSet
Validated: 1
EndChar

StartChar: cedilla
Encoding: 184 184 63
Width: 536
VWidth: 0
InSpiro: 1
Flags: W
HStem: -69.6182 57.2207<123.024 203.408>
VStem: 245.095 57.219<30.6553 171.661>
LayerCount: 2
Back
Fore
SplineSet
302.314 19.0732 m 2
 302.314 11.2529 299.699 4.79004 294.259 -0.828125 c 2
 236.085 -60.9092 l 2
 230.412 -66.7676 223.685 -69.6182 215.53 -69.6182 c 2
 123.024 -69.6182 l 1
 123.024 -12.3975 l 1
 203.408 -12.3975 l 1
 245.095 30.6553 l 1
 245.095 171.661 l 1
 302.314 171.661 l 1
 302.314 19.0732 l 2
  Spiro
    302.314 19.0734 ]
    301.437 11.6937 o
    298.762 5.08479 o
    294.259 -0.827945 [
    236.085 -60.9095 ]
    230.053 -65.767 o
    223.215 -68.6641 o
    215.53 -69.6183 [
    123.024 -69.6183 v
    123.024 -12.3978 v
    203.408 -12.3978 v
    245.095 30.6545 v
    245.095 171.661 v
    302.314 171.661 v
    0 0 z
  EndSpiro
EndSplineSet
Validated: 1
EndChar

StartChar: agrave
Encoding: 224 224 64
Width: 536
VWidth: 0
Flags: W
HStem: 49 60<165 367 426 487> 234 59<166 367> 415 59<122 326>
VStem: 64 59<153 190> 367 59<109 233 292 373>
LayerCount: 2
Back
Fore
SplineSet
134 711 m 0
 140 717 147 720 154 720 c 0
 162 720 170 716 175 711 c 0
 297 589 l 0
 303 583 306 576 306 569 c 0
 306 561 302 553 297 548 c 0
 292 543 284 539 276 539 c 0
 269 539 262 542 256 548 c 0
 134 670 l 0
 129 675 125 683 125 691 c 0
 125 698 128 705 134 711 c 0
367 109 m 5
 367 233 l 5
 166 234 l 5
 123 190 l 5
 123 153 l 5
 165 110 l 5
 367 109 l 5
426 108 m 5
 488 107 l 5
 487 49 l 5
 152 52 l 4
 142 52 134 58 131 61 c 4
 73 121 l 4
 66 128 64 138 64 142 c 4
 64 202 l 4
 64 212 70 220 73 223 c 4
 132 284 l 4
 139 291 148 293 153 293 c 4
 368 292 l 5
 368 373 l 5
 326 415 l 5
 122 418 l 5
 122 477 l 5
 338 474 l 4
 348 474 356 468 359 465 c 4
 418 405 l 4
 425 398 427 390 427 385 c 4
 426 108 l 5
EndSplineSet
Validated: 1
EndChar

StartChar: egrave
Encoding: 232 232 65
Width: 536
VWidth: 0
Flags: W
HStem: 51 58<163 428> 231 62<120 368> 415 59<165 325>
VStem: 61 59<152 231 293 372> 368 59<293 373>
LayerCount: 2
Back
Fore
SplineSet
131 712 m 0
 137.264 718.264 144.33 720.725 151.031 720.725 c 0
 159.306 720.725 167.027 716.973 172 712 c 0
 297 588 l 0
 303.264 581.736 305.725 574.67 305.725 567.969 c 0
 305.725 559.694 301.973 551.973 297 547 c 0
 292.027 542.027 284.306 538.275 276.031 538.275 c 0
 269.33 538.275 262.264 540.736 256 547 c 0
 131 671 l 0
 126.027 675.973 122.275 683.694 122.275 691.969 c 0
 122.275 698.67 124.736 705.736 131 712 c 0
120 231 m 1
 119 152 l 1
 163 109 l 1
 428 107 l 1
 428 49 l 1
 151 51 l 0
 142 51 134 56 131 59 c 0
 69 119 l 0
 62 126 61 135 61 140 c 0
 63 384 l 0
 63 394 68 401 71 404 c 0
 132 467 l 0
 139 474 149 476 154 476 c 0
 337 474 l 0
 347 474 355 468 358 465 c 0
 417 405 l 0
 424 398 426 390 426 385 c 0
 427 233 l 1
 120 231 l 1
120 293 m 1
 368 293 l 1
 367 373 l 1
 325 415 l 1
 165 417 l 1
 121 372 l 1
 120 293 l 1
EndSplineSet
Validated: 1
EndChar

StartChar: igrave
Encoding: 236 236 66
Width: 536
VWidth: 0
InSpiro: 1
Flags: W
HStem: 49 21G<244 305>
VStem: 244 61<49 415>
LayerCount: 2
Back
Fore
SplineSet
195 711 m 0
 201.264 717.264 208.53 719.725 215.452 719.725 c 0
 224.001 719.725 232.027 715.973 237 711 c 0
 358 589 l 0
 363.757 582.801 365.984 575.621 365.984 568.85 c 0
 365.984 560.33 362.458 552.458 358 548 c 0
 353.027 543.027 345.001 539.275 336.452 539.275 c 0
 329.53 539.275 322.264 541.736 316 548 c 0
 195 670 l 0
 190.027 674.973 186.275 682.999 186.275 691.379 c 0
 186.275 698.165 188.736 705.183 195 711 c 0
  Spiro
    195.188 711.229 o
    210.059 719.206 o
    225.03 718.069 o
    236.619 711.062 o
    357.713 588.992 o
    365.69 574.121 o
    364.554 559.149 o
    357.547 547.561 o
    345.902 540.646 o
    330.921 539.631 o
    316.115 547.727 o
    195.021 669.797 o
    188.107 681.442 o
    187.092 696.423 o
    0 0 z
  EndSpiro
244 415 m 1
 305 415 l 1
 305 49 l 1
 244 49 l 1
 244 415 l 1
  Spiro
    244.141 415.039 v
    304.688 415.039 v
    304.688 48.8281 v
    244.141 48.8281 v
    0 0 z
  EndSpiro
EndSplineSet
Validated: 1
EndChar

StartChar: ograve
Encoding: 242 242 67
Width: 536
VWidth: 0
InSpiro: 1
Flags: W
HStem: 53 58<164 325> 418 59<164 326>
VStem: 61 58<152 374> 365 59<152 374>
LayerCount: 2
Back
Fore
SplineSet
133 710 m 0
 138.817 716.264 145.835 718.725 152.621 718.725 c 0
 161.001 718.725 169.027 714.973 174 710 c 0
 295 589 l 0
 301.264 582.736 303.725 575.47 303.725 568.637 c 0
 303.725 560.199 299.973 552.42 295 548 c 0
 290.027 543.027 282.001 539.275 273.621 539.275 c 0
 266.835 539.275 259.817 541.736 254 548 c 0
 133 669 l 0
 128.027 673.973 124.275 681.694 124.275 689.969 c 0
 124.275 696.67 126.736 703.736 133 710 c 0
  Spiro
    132.604 710.169 o
    147.443 718.206 o
    162.419 717.13 o
    174.036 710.169 o
    295.13 589.075 o
    303.167 574.236 o
    302.091 559.261 o
    295.13 547.644 o
    283.513 540.683 o
    268.537 539.606 o
    253.698 547.644 o
    132.604 668.737 o
    125.644 680.354 o
    124.567 695.331 o
    0 0 z
  EndSpiro
121 374 m 1
 119 152 l 1
 164 111 l 1
 325 110 l 1
 365 152 l 1
 366 374 l 1
 326 418 l 1
 164 418 l 1
 121 374 l 1
  Spiro
    120.998 374.488 v
    119.242 152.394 v
    163.919 111.207 v
    324.619 109.507 v
    365.281 151.547 v
    366.166 373.516 v
    325.88 417.969 v
    164.479 417.969 v
    0 0 z
  EndSpiro
71 407 m 2
 132 468 l 0
 139 475 148 477 152 477 c 0
 339 477 l 0
 349 477 357 471 361 467 c 0
 417 404 l 0
 423 398 425 390 425 385 c 0
 424 140 l 0
 424 130 419 122 416 119 c 0
 358 60 l 0
 351 52 342 51 337 51 c 0
 152 53 l 0
 143 53 136 57 132 60 c 0
 70 118 l 0
 62 125 61 134 61 140 c 0
 63 387 l 0
 63 397 68 404 71 407 c 2
  Spiro
    71.0809 407.435 [
    131.628 467.981 o
    139.024 473.271 o
    146.442 475.874 o
    152.344 476.562 o
    338.867 476.562 o
    348.247 474.977 o
    355.602 471.242 o
    360.576 466.939 o
    417.217 404.439 o
    421.882 397.557 o
    424.196 390.719 o
    424.805 384.648 o
    423.828 139.531 o
    422.347 130.747 o
    419.052 123.791 o
    415.59 119.28 o
    357.973 59.7102 o
    350.466 54.1704 o
    342.856 51.4631 o
    336.604 50.7829 o
    152.034 52.736 o
    143.866 53.9766 o
    137.312 56.885 o
    132.486 60.4909 o
    69.9862 118.108 o
    64.1677 125.627 o
    61.2907 133.353 o
    60.5478 139.88 o
    62.5009 386.95 o
    64.0442 395.841 o
    67.4526 402.855 o
    0 0 z
  EndSpiro
EndSplineSet
Validated: 1
EndChar

StartChar: ugrave
Encoding: 249 249 68
Width: 536
VWidth: 0
Flags: HMW
HStem: 51 58<163 324 440 489> 456 20G<62 120.123 366.938 426>
VStem: 63 59<150 475> 366 59<153 476>
LayerCount: 2
Back
Fore
SplineSet
381 84 m 1
 357 60 l 0
 354 57 346 51 336 51 c 0
 151 51 l 0
 146 51 138 52 131 59 c 0
 72 117 l 0
 69 120 63 128 63 138 c 0
 62 475 l 1
 120 476 l 1
 122 150 l 1
 163 109 l 1
 324 109 l 1
 366 153 l 1
 367 476 l 1
 426 476 l 1
 425 141 l 0
 425 138 424 134 422 129 c 1
 440 109 l 1
 489 109 l 1
 489 50 l 1
 428 50 l 0
 418 50 410 55 407 59 c 0
 381 84 l 1
133 712 m 0
 139.264 718.264 146.33 720.725 153.031 720.725 c 0
 161.306 720.725 169.027 716.973 174 712 c 0
 296 589 l 0
 302.264 582.736 304.725 575.67 304.725 568.969 c 0
 304.725 560.694 300.973 552.973 296 548 c 0
 291.027 543.027 283.306 539.275 275.031 539.275 c 0
 268.33 539.275 261.264 541.736 255 548 c 0
 133 671 l 0
 128.027 675.973 124.275 683.694 124.275 691.969 c 0
 124.275 698.67 126.736 705.736 133 712 c 0
EndSplineSet
Validated: 1
EndChar

StartChar: atilde
Encoding: 227 227 69
Width: 536
VWidth: 0
InSpiro: 1
Flags: W
HStem: 49 60<165 367 426 487> 234 59<166 367> 415 59<122 326> 538 58<348 386> 599 59<225 264>
VStem: 64 59<153 190> 367 59<109 233 292 373>
LayerCount: 2
Back
Fore
SplineSet
177 548 m 1
 134 588 l 1
 190 648 l 0
 197 656 207 658 212 658 c 0
 276 658 l 0
 286 658 294 652 297 649 c 0
 348 596 l 1
 386 597 l 1
 437 649 l 1
 479 608 l 1
 419 548 l 0
 416 545 408 539 399 539 c 0
 336 538 l 0
 331 537 321 539 314 547 c 0
 264 599 l 1
 225 599 l 1
 177 548 l 1
  Spiro
    177.242 547.949 v
    134.281 587.793 v
    190.434 648.34 [
    197.895 654.085 o
    205.535 656.945 o
    211.914 657.715 o
    276.367 657.715 o
    285.51 656.185 o
    292.708 652.644 o
    297.498 648.711 ]
    347.651 596.485 v
    385.531 597.373 v
    437.292 649.134 v
    478.724 607.702 v
    418.665 547.644 [
    414.24 544.127 o
    407.365 540.716 o
    398.636 539.07 o
    336.136 537.605 o
    329.662 538.237 o
    321.921 540.96 o
    314.318 546.602 ]
    263.883 599.121 v
    224.7 599.121 v
    0 0 z
  EndSpiro
367 109 m 1
 367 233 l 1
 166 234 l 1
 123 190 l 1
 123 153 l 1
 165 110 l 1
 367 109 l 1
  Spiro
    366.862 233.398 v
    165.679 234.318 v
    123.047 190.289 v
    123.047 153.456 v
    164.866 110.243 v
    367.024 108.722 v
    0 0 z
  EndSpiro
426 108 m 1
 488 107 l 1
 487 49 l 1
 152 52 l 0
 142 52 135 57 131 61 c 0
 73 121 l 0
 66 128 64 137 64 142 c 0
 64 202 l 0
 64 212 70 219 73 223 c 0
 132 284 l 0
 139 291 148 293 153 293 c 0
 368 292 l 1
 368 373 l 1
 326 415 l 1
 122 418 l 1
 122 477 l 1
 338 474 l 0
 348 474 355 468 359 465 c 0
 418 405 l 0
 425 399 427 389 427 385 c 0
 426 108 l 1
  Spiro
    487.561 107.421 v
    487.049 48.8292 v
    152.088 51.7589 [
    143.065 53.343 o
    135.967 56.8619 o
    131.291 60.6811 o
    72.6972 121.228 o
    67.6036 128.583 o
    65.1091 135.901 o
    64.4531 141.602 o
    64.4531 202.148 o
    65.9088 210.979 o
    69.2067 217.974 o
    72.7025 222.527 o
    132.272 284.051 o
    139.734 289.557 o
    147.289 292.265 o
    153.453 292.969 ]
    368.297 291.992 v
    368.121 372.674 v
    325.591 415.203 v
    121.673 417.972 v
    122.468 476.56 v
    338.288 473.63 [
    347.12 472.049 o
    354.084 468.64 o
    358.606 465.052 o
    418.177 405.481 o
    423.483 398.059 o
    426.083 390.609 o
    426.758 384.661 ]
    425.944 108.398 v
    0 0 z
  EndSpiro
EndSplineSet
Validated: 1
EndChar

StartChar: otilde
Encoding: 245 245 70
Width: 536
VWidth: 0
Flags: W
HStem: 53 58<164 325> 418 59<164 326> 540 59<289 327> 602 58<166 205>
VStem: 61 58<152 374> 365 59<152 374>
LayerCount: 2
Back
Fore
SplineSet
121 374 m 1
 119 152 l 1
 164 111 l 1
 325 110 l 1
 365 152 l 1
 366 374 l 1
 326 418 l 1
 164 418 l 1
 121 374 l 1
71 407 m 2
 132 468 l 0
 139 475 147 477 152 477 c 0
 339 477 l 0
 349 477 357 471 361 467 c 0
 417 404 l 0
 423 397 425 390 425 385 c 0
 424 140 l 0
 424 130 419 122 416 119 c 0
 358 60 l 0
 351 53 342 51 337 51 c 0
 152 53 l 0
 143 53 136 56 132 60 c 0
 70 118 l 0
 62 125 61 135 61 140 c 0
 63 387 l 0
 63 397 68 404 71 407 c 2
118 550 m 5
 75 590 l 5
 132 651 l 4
 139 658 148 660 153 660 c 4
 218 660 l 4
 228 660 236 655 239 651 c 4
 289 599 l 5
 327 600 l 5
 378 652 l 5
 420 610 l 5
 360 550 l 4
 357 547 349 542 340 542 c 4
 277 540 l 4
 272 540 263 542 256 549 c 4
 205 602 l 5
 166 602 l 5
 118 550 l 5
EndSplineSet
Validated: 1
EndChar

StartChar: ydiaeresis
Encoding: 65540 -1 71
Width: 536
VWidth: 0
Flags: W
HStem: 455 20G<62 120.198 367 426> 598 61<122 184 305 366>
VStem: 63 59<273 474> 122 62<598 659> 305 61<598 659> 367 59<214 475>
LayerCount: 2
Back
Fore
SplineSet
231 78 m 1xec
 72 240 l 0
 69 243 63 250 63 260 c 0
 62 474 l 1
 120 475 l 1
 122 273 l 1
 272 120 l 1
 367 214 l 1
 367 475 l 1
 426 475 l 1
 426 202 l 0
 426 192 420 184 417 181 c 0
 112 -122 l 1
 71 -81 l 1
 231 78 l 1xec
122 659 m 1xdc
 184 659 l 1
 184 598 l 1
 122 598 l 1
 122 659 l 1xdc
305 659 m 1
 366 659 l 1
 366 598 l 1
 305 598 l 1
 305 659 l 1
EndSplineSet
Validated: 1
EndChar

StartChar: Yacute
Encoding: 221 221 72
Width: 536
VWidth: 0
InSpiro: 1
Flags: W
HStem: 49 21G<243 305>
VStem: 62 59<518 537> 243 62<49 315> 429 59<517 537>
LayerCount: 2
Back
Fore
SplineSet
418 710 m 0
 424.264 704.183 426.725 697.165 426.725 690.379 c 0
 426.725 681.999 422.973 673.973 418 669 c 0
 295 546 l 0
 288.736 539.736 281.47 537.275 274.548 537.275 c 0
 265.999 537.275 257.973 541.027 253 546 c 0
 248.542 551.015 245.016 559.134 245.016 567.59 c 0
 245.016 574.31 247.243 581.243 253 587 c 0
 376 710 l 0
 380.973 714.973 388.999 718.725 397.548 718.725 c 0
 404.47 718.725 411.736 716.264 418 710 c 0
  Spiro
    417.852 710.495 o
    425.888 695.656 o
    424.812 680.68 o
    417.852 669.062 o
    294.805 546.016 o
    279.966 537.979 o
    264.989 539.055 o
    253.372 546.016 o
    246.412 557.633 o
    245.336 572.609 o
    253.372 587.448 o
    376.419 710.495 o
    388.036 717.455 o
    403.013 718.531 o
    0 0 z
  EndSpiro
243 316 m 1
 71 485 l 0
 68 488 62 496 62 506 c 0
 62 537 l 1
 121 537 l 1
 121 518 l 1
 275 367 l 1
 429 517 l 1
 429 537 l 1
 488 537 l 1
 488 505 l 0
 488 500 486 491 479 484 c 0
 305 315 l 1
 305 49 l 1
 243 49 l 1
 243 316 l 1
  Spiro
    243.376 315.603 v
    71.0956 484.968 [
    67.3067 489.683 o
    63.8441 496.816 o
    62.3372 505.859 ]
    62.3372 536.621 v
    120.931 536.621 v
    120.931 518.142 v
    274.533 367.138 v
    429.036 517.266 v
    429.036 537.109 v
    487.63 537.109 v
    487.63 504.883 [
    486.912 498.802 o
    484.213 491.297 o
    478.75 483.871 ]
    304.9 314.946 v
    304.688 48.8281 v
    243.164 48.8281 v
    0 0 z
  EndSpiro
EndSplineSet
Validated: 1
EndChar

StartChar: yacute
Encoding: 253 253 73
Width: 536
VWidth: 0
Flags: W
HStem: 455 20G<62 120.198 367 426>
VStem: 63 59<273 474> 367 59<214 475>
LayerCount: 2
Back
Fore
SplineSet
255 548 m 0
 249 554 246 561 246 568 c 0
 246 576 250 584 255 589 c 0
 374 709 l 0
 380 715 388 718 394 718 c 0
 403 718 411 714 416 709 c 0
 421 704 425 696 425 688 c 0
 425 681 422 674 416 668 c 0
 297 548 l 0
 292 543 284 539 275 539 c 0
 269 539 261 542 255 548 c 0
231 78 m 1
 72 240 l 0
 69 243 63 250 63 260 c 0
 62 474 l 1
 120 475 l 1
 122 273 l 1
 272 120 l 1
 367 214 l 1
 367 475 l 1
 426 475 l 1
 426 202 l 0
 426 192 420 184 417 181 c 0
 112 -122 l 1
 71 -81 l 1
 231 78 l 1
EndSplineSet
Validated: 1
EndChar

StartChar: eacute
Encoding: 233 233 74
Width: 536
VWidth: 0
Flags: W
HStem: 51 58<163 428> 231 62<120 368> 415 59<165 325>
VStem: 61 59<152 231 293 372> 368 59<293 373>
LayerCount: 2
Back
Fore
SplineSet
255 548 m 0
 249 554 246 561 246 568 c 0
 246 576 250 584 255 589 c 0
 374 709 l 0
 380 715 388 718 394 718 c 0
 403 718 411 714 416 709 c 0
 421 704 425 696 425 688 c 0
 425 681 422 674 416 668 c 0
 297 548 l 0
 292 543 284 539 275 539 c 0
 269 539 261 542 255 548 c 0
120 231 m 1
 119 152 l 1
 163 109 l 1
 428 107 l 1
 428 49 l 1
 151 51 l 0
 142 51 134 56 131 59 c 0
 69 119 l 0
 62 126 61 135 61 140 c 0
 63 384 l 0
 63 394 68 401 71 404 c 0
 132 467 l 0
 139 474 149 476 154 476 c 0
 337 474 l 0
 347 474 355 468 358 465 c 0
 417 405 l 0
 424 398 426 390 426 385 c 0
 427 233 l 1
 120 231 l 1
120 293 m 1
 368 293 l 1
 367 373 l 1
 325 415 l 1
 165 417 l 1
 121 372 l 1
 120 293 l 1
EndSplineSet
Validated: 1
EndChar

StartChar: onequarter
Encoding: 188 188 75
Width: 536
VWidth: 0
Flags: W
HStem: 113 60<368 428 488 518>
VStem: 153 60<414 594> 428 60<50 113 173 249>
LayerCount: 2
Back
Fore
SplineSet
518 173 m 1
 518 113 l 1
 488 113 l 1
 487 50 l 1
 427 50 l 1
 428 113 l 1
 337 114 l 0
 315 114 307 133 307 144 c 0
 307 145 l 0
 308 201 l 0
 308 210 314 218 317 221 c 0
 408 313 l 0
 414 320 424 322 428 322 c 0
 458 323 l 0
 459 323 459 323 460 323 c 0
 480 323 489 305 489 294 c 0
 489 293 489 294 489 293 c 0
 488 173 l 1
 518 173 l 1
428 173 m 1
 429 249 l 1
 368 187 l 1
 368 174 l 1
 428 173 l 1
213 414 m 1
 153 414 l 1
 154 594 l 1
 145 586 l 1
 103 628 l 1
 163 687 l 0
 166 690 172 696 184 696 c 0
 195 696 214 687 214 666 c 0
 213 414 l 1
431 560 m 2
 437 566 445 569 453 569 c 0
 461 569 469 566 475 560 c 0
 481 554 484 546 484 538 c 0
 484 530 481 522 476 516 c 2
 116 150 l 2
 110 144 103 141 95 141 c 0
 87 141 79 144 73 150 c 0
 67 156 64 164 64 172 c 0
 64 180 67 188 72 194 c 2
 431 560 l 2
  Spiro
    430.915 559.862 ]
    444.866 568.07 o
    460.625 568.237 o
    474.746 560.323 o
    482.954 546.372 o
    483.12 530.613 o
    475.207 516.492 [
    116.626 150.281 ]
    102.675 142.073 o
    86.9162 141.907 o
    72.7948 149.82 o
    64.5866 163.772 o
    64.4209 179.53 o
    72.3338 193.652 [
    0 0 z
  EndSpiro
EndSplineSet
Validated: 1
EndChar

StartChar: onehalf
Encoding: 189 189 76
Width: 536
VWidth: 0
Flags: W
HStem: 51 60<409 519> 264 60<407 447>
VStem: 153 60<414 594>
LayerCount: 2
Back
Fore
SplineSet
519 111 m 1
 519 51 l 1
 366 51 l 0
 344 51 336 70 336 81 c 0
 336 110 l 0
 336 120 341 128 344 131 c 0
 458 243 l 1
 458 253 l 1
 447 264 l 1
 407 264 l 1
 387 243 l 1
 343 283 l 1
 372 314 l 0
 376 319 384 324 394 324 c 0
 461 323 l 0
 466 323 475 321 482 314 c 0
 509 285 l 0
 513 281 517 274 517 265 c 0
 518 231 l 0
 518 226 516 217 509 210 c 0
 409 111 l 1
 519 111 l 1
213 414 m 1
 153 414 l 1
 154 594 l 1
 145 586 l 1
 103 628 l 1
 163 687 l 0
 166 690 172 696 184 696 c 0
 195 696 214 687 214 666 c 0
 213 414 l 1
431 560 m 2
 437 566 445 569 453 569 c 0
 461 569 469 566 475 560 c 0
 481 554 484 546 484 538 c 0
 484 530 481 522 476 516 c 2
 116 150 l 2
 110 144 103 141 95 141 c 0
 87 141 79 144 73 150 c 0
 67 156 64 164 64 172 c 0
 64 180 67 188 72 194 c 2
 431 560 l 2
  Spiro
    430.915 559.862 ]
    444.866 568.07 o
    460.625 568.237 o
    474.746 560.323 o
    482.954 546.372 o
    483.12 530.613 o
    475.207 516.492 [
    116.626 150.281 ]
    102.675 142.073 o
    86.9162 141.907 o
    72.7948 149.82 o
    64.5866 163.772 o
    64.4209 179.53 o
    72.3338 193.652 [
    0 0 z
  EndSpiro
EndSplineSet
Validated: 1
EndChar

StartChar: threequarters
Encoding: 190 190 77
Width: 536
VWidth: 0
Flags: W
HStem: 113 60<368 428 488 518> 385 60<134 172> 631 60<62 158>
VStem: 184 60<457 496> 428 60<50 113 173 249>
LayerCount: 2
Back
Fore
SplineSet
62 631 m 1
 62 691 l 1
 213 690 l 0
 233 690 242 673 242 662 c 0
 242 661 242 661 242 660 c 0
 242 650 238 645 238 645 c 0
 192 572 l 1
 235 530 l 0
 242 523 244 513 244 508 c 0
 244 445 l 0
 244 435 238 428 235 425 c 0
 207 395 l 0
 200 387 191 385 186 385 c 0
 121 385 l 0
 111 384 103 390 99 394 c 0
 69 426 l 1
 112 467 l 1
 134 445 l 1
 172 445 l 1
 184 457 l 1
 184 496 l 1
 133 546 l 0
 129 550 124 558 124 567 c 0
 124 572 125 578 129 583 c 0
 158 631 l 1
 62 631 l 1
518 173 m 1
 518 113 l 1
 488 113 l 1
 487 50 l 1
 427 50 l 1
 428 113 l 1
 337 114 l 0
 315 114 307 133 307 144 c 0
 307 145 l 0
 308 201 l 0
 308 210 314 218 317 221 c 0
 408 313 l 0
 414 320 424 322 428 322 c 0
 458 323 l 0
 459 323 459 323 460 323 c 0
 480 323 489 305 489 294 c 0
 489 293 489 294 489 293 c 0
 488 173 l 1
 518 173 l 1
428 173 m 1
 429 249 l 1
 368 187 l 1
 368 174 l 1
 428 173 l 1
431 560 m 2
 437 566 445 569 453 569 c 0
 461 569 469 566 475 560 c 0
 481 554 484 546 484 538 c 0
 484 530 481 522 476 516 c 2
 116 150 l 2
 110 144 103 141 95 141 c 0
 87 141 79 144 73 150 c 0
 67 156 64 164 64 172 c 0
 64 180 67 188 72 194 c 2
 431 560 l 2
  Spiro
    430.915 559.862 ]
    444.866 568.07 o
    460.625 568.237 o
    474.746 560.323 o
    482.954 546.372 o
    483.12 530.613 o
    475.207 516.492 [
    116.626 150.281 ]
    102.675 142.073 o
    86.9162 141.907 o
    72.7948 149.82 o
    64.5866 163.772 o
    64.4209 179.53 o
    72.3338 193.652 [
    0 0 z
  EndSpiro
EndSplineSet
Validated: 1
EndChar

StartChar: udiaeresis
Encoding: 252 252 78
Width: 536
VWidth: 0
Flags: W
HStem: 51 58<163 324 440 489> 456 20G<62 120.123 366.938 426> 598 61<122 184 305 366>
VStem: 63 59<150 475> 122 62<598 659> 305 61<598 659> 366 59<153 476>
LayerCount: 2
Back
Fore
SplineSet
381 84 m 5xf2
 357 60 l 4
 354 57 346 51 336 51 c 4
 151 51 l 4
 146 51 138 52 131 59 c 4
 72 117 l 4
 69 120 63 128 63 138 c 4
 62 475 l 5
 120 476 l 5
 122 150 l 5
 163 109 l 5
 324 109 l 5
 366 153 l 5
 367 476 l 5
 426 476 l 5
 425 141 l 4
 425 138 424 134 422 129 c 5
 440 109 l 5
 489 109 l 5
 489 50 l 5
 428 50 l 4
 418 50 410 55 407 59 c 4
 381 84 l 5xf2
122 659 m 1xe8
 184 659 l 1
 184 598 l 1
 122 598 l 1
 122 659 l 1xe8
305 659 m 1xe4
 366 659 l 1
 366 598 l 1
 305 598 l 1
 305 659 l 1xe4
EndSplineSet
Validated: 1
EndChar

StartChar: ccedilla
Encoding: 231 231 79
Width: 536
VWidth: 0
Flags: W
HStem: -72 58<122 233> 51 58<227 264 327 427> 416 59<224 427>
VStem: 62 59<213 312>
LayerCount: 2
Back
Fore
SplineSet
327 51 m 1
 302 -24 l 2
 301 -26 299 -30 296 -33 c 0
 266 -63 l 0
 263 -67 255 -72 245 -72 c 0
 122 -72 l 1
 122 -14 l 1
 233 -14 l 1
 249 3 l 1
 264 51 l 1
 215 51 l 0
 211 51 201 52 194 59 c 0
 71 180 l 0
 68 183 62 191 62 201 c 0
 62 324 l 0
 62 329 64 338 71 345 c 0
 191 466 l 0
 194 469 201 475 211 475 c 0
 427 475 l 1
 427 416 l 1
 224 416 l 1
 121 312 l 1
 121 213 l 1
 227 109 l 1
 427 109 l 1
 427 50 l 1
 327 51 l 1
EndSplineSet
Validated: 1
EndChar

StartChar: adiaeresis
Encoding: 228 228 80
Width: 536
VWidth: 0
Flags: W
HStem: 49 60<165 367 426 487> 234 59<166 367> 415 59<122 326> 598 61<122 184 305 366>
VStem: 64 59<153 190> 122 62<598 659> 305 61<598 659> 367 59<109 233 292 373>
LayerCount: 2
Back
Fore
SplineSet
367 109 m 1xfb
 367 233 l 5
 166 234 l 1
 123 190 l 1
 123 153 l 1
 165 110 l 1
 367 109 l 1xfb
426 108 m 1
 488 107 l 1
 487 49 l 1
 152 52 l 0
 142 52 134 58 131 61 c 0
 73 121 l 0
 66 128 64 138 64 142 c 0
 64 202 l 0xfb
 64 212 70 220 73 223 c 0
 132 284 l 0
 139 291 148 293 153 293 c 0
 368 292 l 1
 368 373 l 1
 326 415 l 1
 122 418 l 1
 122 477 l 1xf7
 338 474 l 0
 348 474 356 468 359 465 c 0
 418 405 l 0
 425 398 427 390 427 385 c 0
 426 108 l 1
122 659 m 1xf7
 184 659 l 1
 184 598 l 1
 122 598 l 1
 122 659 l 1xf7
305 659 m 1
 366 659 l 1
 366 598 l 1
 305 598 l 1
 305 659 l 1
EndSplineSet
Validated: 1
EndChar

StartChar: ediaeresis
Encoding: 235 235 81
Width: 536
VWidth: 0
Flags: W
HStem: 51 58<163 428> 231 62<120 368> 415 59<165 325> 598 61<122 184 305 366>
VStem: 61 59<152 231 293 372> 122 62<598 659> 305 61<598 659> 368 59<293 373>
LayerCount: 2
Back
Fore
SplineSet
120 231 m 5
 119 152 l 5
 163 109 l 5
 428 107 l 5
 428 49 l 5
 151 51 l 4
 142 51 134 56 131 59 c 4
 69 119 l 4
 62 126 61 135 61 140 c 4
 63 384 l 4
 63 394 68 401 71 404 c 4
 132 467 l 4
 139 474 149 476 154 476 c 4
 337 474 l 4
 347 474 355 468 358 465 c 4
 417 405 l 4
 424 398 426 390 426 385 c 4
 427 233 l 5
 120 231 l 5
120 293 m 5
 368 293 l 5
 367 373 l 5
 325 415 l 5
 165 417 l 5
 121 372 l 5
 120 293 l 5
122 659 m 1
 184 659 l 1
 184 598 l 1
 122 598 l 1
 122 659 l 1
305 659 m 1
 366 659 l 1
 366 598 l 1
 305 598 l 1
 305 659 l 1
EndSplineSet
Validated: 1
EndChar

StartChar: idiaeresis
Encoding: 239 239 82
Width: 536
VWidth: 0
Flags: W
HStem: 49 21G<244 305> 456 20G<244 305> 598 61<122 184 366 428>
VStem: 122 62<598 659> 244 61<49 476> 366 62<598 659>
LayerCount: 2
Back
Fore
SplineSet
122 659 m 1
 184 659 l 1
 184 598 l 1
 122 598 l 1
 122 659 l 1
366 659 m 1
 428 659 l 1
 428 598 l 1
 366 598 l 1
 366 659 l 1
244 476 m 1
 305 476 l 1
 305 49 l 1
 244 49 l 1
 244 476 l 1
EndSplineSet
Validated: 1
EndChar

StartChar: odiaeresis
Encoding: 246 246 83
Width: 536
VWidth: 0
Flags: W
HStem: 53 58<164 325> 418 59<164 326> 598 61<122 184 305 366>
VStem: 61 58<152 374> 122 62<598 659> 305 61<598 659> 365 59<152 374>
LayerCount: 2
Back
Fore
SplineSet
121 374 m 5xfc
 119 152 l 5
 164 111 l 5
 325 110 l 5
 365 152 l 5xfa
 366 374 l 5
 326 418 l 5
 164 418 l 5
 121 374 l 5xfc
71 407 m 6
 132 468 l 4
 139 475 147 477 152 477 c 4
 339 477 l 4
 349 477 357 471 361 467 c 4
 417 404 l 4
 423 397 425 390 425 385 c 4
 424 140 l 4
 424 130 419 122 416 119 c 4
 358 60 l 4
 351 53 342 51 337 51 c 4
 152 53 l 4
 143 53 136 56 132 60 c 4
 70 118 l 4
 62 125 61 135 61 140 c 4
 63 387 l 4
 63 397 68 404 71 407 c 6
122 659 m 1
 184 659 l 1
 184 598 l 1
 122 598 l 1
 122 659 l 1
305 659 m 1xfc
 366 659 l 1
 366 598 l 1
 305 598 l 1
 305 659 l 1xfc
EndSplineSet
Validated: 1
EndChar

StartChar: mu
Encoding: 956 956 84
Width: 536
VWidth: 0
Flags: W
HStem: -135 21G<62.9672 122> 51 58<163 324 440 489> 456 20G<62 120.123 366.938 426>
VStem: 63 59<-135 68 150 475> 366 59<153 476>
LayerCount: 2
Back
Fore
SplineSet
62 475 m 5
 120 476 l 1
 122 150 l 1
 163 109 l 1
 324 109 l 1
 366 153 l 1
 367 476 l 1
 426 476 l 1
 425 141 l 0
 425 138 424 134 422 129 c 1
 440 109 l 1
 489 109 l 1
 489 50 l 1
 428 50 l 0
 418 50 410 55 407 59 c 0
 381 84 l 1
 357 60 l 0
 354 57 346 51 336 51 c 0
 151 51 l 0
 146 51 138 52 131 59 c 0
 122 68 l 1
 122 -135 l 1
 63 -135 l 1
 62 475 l 5
EndSplineSet
Validated: 1
EndChar

StartChar: acircumflex
Encoding: 226 226 85
Width: 536
VWidth: 0
Flags: HMW
LayerCount: 2
Back
Fore
SplineSet
191 546 m 0
 185 552 182 560 182 566 c 0
 182 575 186 583 191 588 c 0
 253 650 l 0
 259 656 266 659 273 659 c 0
 282 659 290 655 295 650 c 0
 358 588 l 0
 364 582 367 574 367 568 c 0
 367 559 363 551 358 546 c 0
 353 541 345 537 336 537 c 0
 330 537 322 540 316 546 c 0
 274 587 l 1
 233 546 l 0
 228 541 220 537 211 537 c 0
 205 537 197 540 191 546 c 0
367 109 m 1
 367 233 l 5
 166 234 l 1
 123 190 l 1
 123 153 l 1
 165 110 l 1
 367 109 l 1
426 108 m 1
 488 107 l 1
 487 49 l 1
 152 52 l 0
 142 52 134 58 131 61 c 0
 73 121 l 0
 66 128 64 138 64 142 c 0
 64 202 l 0
 64 212 70 220 73 223 c 0
 132 284 l 0
 139 291 148 293 153 293 c 0
 368 292 l 1
 368 373 l 1
 326 415 l 1
 122 418 l 1
 122 477 l 1
 338 474 l 0
 348 474 356 468 359 465 c 0
 418 405 l 0
 425 398 427 390 427 385 c 0
 426 108 l 1
EndSplineSet
Validated: 1
EndChar

StartChar: ecircumflex
Encoding: 234 234 86
Width: 536
VWidth: 0
Flags: W
HStem: 51 58<163 428> 231 62<120 368> 415 59<165 325> 639 20G<269.5 277.5>
VStem: 61 59<152 231 293 372> 368 59<293 373>
LayerCount: 2
Back
Fore
SplineSet
191 546 m 0
 185 552 182 560 182 566 c 0
 182 575 186 583 191 588 c 0
 253 650 l 0
 259 656 266 659 273 659 c 0
 282 659 290 655 295 650 c 0
 358 588 l 0
 364 582 367 574 367 568 c 0
 367 559 363 551 358 546 c 0
 353 541 345 537 336 537 c 0
 330 537 322 540 316 546 c 0
 274 587 l 1
 233 546 l 0
 228 541 220 537 211 537 c 0
 205 537 197 540 191 546 c 0
120 231 m 1
 119 152 l 1
 163 109 l 1
 428 107 l 1
 428 49 l 1
 151 51 l 0
 142 51 134 56 131 59 c 0
 69 119 l 0
 62 126 61 135 61 140 c 0
 63 384 l 0
 63 394 68 401 71 404 c 0
 132 467 l 0
 139 474 149 476 154 476 c 0
 337 474 l 0
 347 474 355 468 358 465 c 0
 417 405 l 0
 424 398 426 390 426 385 c 0
 427 233 l 1
 120 231 l 1
120 293 m 1
 368 293 l 1
 367 373 l 1
 325 415 l 1
 165 417 l 1
 121 372 l 1
 120 293 l 1
EndSplineSet
Validated: 1
EndChar

StartChar: icircumflex
Encoding: 238 238 87
Width: 536
VWidth: 0
Flags: W
HStem: 49 21G<244 305> 639 20G<269.5 277.5>
VStem: 244 61<49 415>
LayerCount: 2
Back
Fore
SplineSet
191 546 m 0
 185 552 182 560 182 566 c 0
 182 575 186 583 191 588 c 0
 253 650 l 0
 259 656 266 659 273 659 c 0
 282 659 290 655 295 650 c 0
 358 588 l 0
 364 582 367 574 367 568 c 0
 367 559 363 551 358 546 c 0
 353 541 345 537 336 537 c 0
 330 537 322 540 316 546 c 0
 274 587 l 1
 233 546 l 0
 228 541 220 537 211 537 c 0
 205 537 197 540 191 546 c 0
244 415 m 1
 305 415 l 1
 305 49 l 1
 244 49 l 1
 244 415 l 1
EndSplineSet
Validated: 1
EndChar

StartChar: ocircumflex
Encoding: 244 244 88
Width: 536
VWidth: 0
Flags: W
HStem: 53 58<164 325> 418 59<164 326> 638 20G<243.5 251.5>
VStem: 61 58<152 374> 365 59<152 374>
LayerCount: 2
Back
Fore
SplineSet
165 545 m 0
 159 551 156 559 156 565 c 0
 156 574 160 582 165 587 c 0
 227 649 l 0
 233 656 240 658 247 658 c 0
 256 658 264 654 269 650 c 0
 332 588 l 0
 338 582 341 574 341 567 c 0
 341 558 337 550 332 545 c 0
 327 540 319 536 310 536 c 0
 304 536 296 539 290 545 c 0
 248 586 l 1
 207 545 l 0
 202 540 194 536 185 536 c 0
 179 536 171 539 165 545 c 0
121 374 m 1
 119 152 l 1
 164 111 l 1
 325 110 l 1
 365 152 l 1
 366 374 l 1
 326 418 l 1
 164 418 l 1
 121 374 l 1
71 407 m 2
 132 468 l 0
 139 475 147 477 152 477 c 0
 339 477 l 0
 349 477 357 471 361 467 c 0
 417 404 l 0
 423 397 425 390 425 385 c 0
 424 140 l 0
 424 130 419 122 416 119 c 0
 358 60 l 0
 351 53 342 51 337 51 c 0
 152 53 l 0
 143 53 136 56 132 60 c 0
 70 118 l 0
 62 125 61 135 61 140 c 0
 63 387 l 0
 63 397 68 404 71 407 c 2
EndSplineSet
Validated: 1
EndChar

StartChar: ucircumflex
Encoding: 251 251 89
Width: 536
VWidth: 0
Flags: W
HStem: 51 58<163 324 440 489> 456 20G<62 120.123 366.938 426> 638 20G<243.5 251.5>
VStem: 63 59<150 475> 366 59<153 476>
LayerCount: 2
Back
Fore
SplineSet
165 545 m 0
 159 551 156 559 156 565 c 0
 156 574 160 582 165 587 c 0
 227 649 l 0
 233 656 240 658 247 658 c 0
 256 658 264 654 269 650 c 0
 332 588 l 0
 338 582 341 574 341 567 c 0
 341 558 337 550 332 545 c 0
 327 540 319 536 310 536 c 0
 304 536 296 539 290 545 c 0
 248 586 l 1
 207 545 l 0
 202 540 194 536 185 536 c 0
 179 536 171 539 165 545 c 0
381 84 m 1
 357 60 l 0
 354 57 346 51 336 51 c 0
 151 51 l 0
 146 51 138 52 131 59 c 0
 72 117 l 0
 69 120 63 128 63 138 c 0
 62 475 l 1
 120 476 l 1
 122 150 l 1
 163 109 l 1
 324 109 l 1
 366 153 l 1
 367 476 l 1
 426 476 l 1
 425 141 l 0
 425 138 424 134 422 129 c 1
 440 109 l 1
 489 109 l 1
 489 50 l 1
 428 50 l 0
 418 50 410 55 407 59 c 0
 381 84 l 1
EndSplineSet
Validated: 1
EndChar

StartChar: aacute
Encoding: 225 225 90
Width: 536
VWidth: 0
InSpiro: 1
Flags: W
HStem: 49 60<165 367 426 487> 234 59<166 367> 415 59<122 326>
VStem: 64 59<153 190> 367 59<109 233 292 373>
LayerCount: 2
Back
Fore
SplineSet
255 550 m 0
 249 556 247 562 247 569 c 0
 247 578 251 586 256 591 c 0
 379 711 l 0
 385 717 393 720 399 720 c 0
 408 720 416 716 421 711 c 0
 425 706 429 698 429 690 c 0
 429 683 426 675 420 669 c 0
 296 549 l 0
 292 544 284 541 276 541 c 0
 269 541 262 543 255 550 c 0
  Spiro
    255.052 549.549 o
    247.213 564.493 o
    248.488 579.454 o
    255.604 590.978 o
    379.302 711.42 o
    394.246 719.258 o
    409.207 717.982 o
    420.729 710.867 o
    427.535 699.159 o
    428.411 684.17 o
    420.178 669.439 o
    296.479 548.997 o
    284.771 542.191 o
    269.781 541.315 o
    0 0 z
  EndSpiro
367 109 m 1
 367 233 l 1
 166 234 l 1
 123 190 l 1
 123 153 l 1
 165 110 l 1
 367 109 l 1
  Spiro
    366.862 233.398 v
    165.679 234.318 v
    123.047 190.289 v
    123.047 153.456 v
    164.866 110.243 v
    367.024 108.722 v
    0 0 z
  EndSpiro
426 108 m 1
 488 107 l 1
 487 49 l 1
 152 52 l 0
 142 52 135 57 131 61 c 0
 73 121 l 0
 66 128 64 137 64 142 c 0
 64 202 l 0
 64 212 70 219 73 223 c 0
 132 284 l 0
 139 291 148 293 153 293 c 0
 368 292 l 1
 368 373 l 1
 326 415 l 1
 122 418 l 1
 122 477 l 1
 338 474 l 0
 348 474 355 468 359 465 c 0
 418 405 l 0
 425 399 427 389 427 385 c 0
 426 108 l 1
  Spiro
    487.561 107.421 v
    487.049 48.8292 v
    152.088 51.7589 [
    143.065 53.343 o
    135.967 56.8619 o
    131.291 60.6811 o
    72.6972 121.228 o
    67.6036 128.583 o
    65.1091 135.901 o
    64.4531 141.602 o
    64.4531 202.148 o
    65.9088 210.979 o
    69.2067 217.974 o
    72.7025 222.527 o
    132.272 284.051 o
    139.734 289.557 o
    147.289 292.265 o
    153.453 292.969 ]
    368.297 291.992 v
    368.121 372.674 v
    325.591 415.203 v
    121.673 417.972 v
    122.468 476.56 v
    338.288 473.63 [
    347.12 472.049 o
    354.084 468.64 o
    358.606 465.052 o
    418.177 405.481 o
    423.483 398.059 o
    426.083 390.609 o
    426.758 384.661 ]
    425.944 108.398 v
    0 0 z
  EndSpiro
EndSplineSet
Validated: 1
EndChar

StartChar: multiply
Encoding: 215 215 91
Width: 536
VWidth: 0
Flags: W
LayerCount: 2
Back
Fore
SplineSet
102 453 m 5
 145 496 l 5
 274 366 l 5
 404 496 l 5
 447 453 l 5
 317 323 l 5
 447 193 l 5
 404 151 l 5
 274 280 l 5
 145 151 l 5
 102 193 l 5
 232 323 l 5
 102 453 l 5
EndSplineSet
Validated: 1
EndChar

StartChar: iacute
Encoding: 237 237 92
Width: 536
VWidth: 0
Flags: W
HStem: 49 21G<244 305>
VStem: 244 61<49 415>
LayerCount: 2
Back
Fore
SplineSet
197 550 m 0
 190.736 556.264 188.275 563.33 188.275 570.031 c 0
 188.275 578.306 192.027 586.027 197 591 c 0
 316 711 l 0
 322.264 717.264 329.53 719.725 336.452 719.725 c 0
 345.001 719.725 353.027 715.973 358 711 c 0
 362.973 706.027 366.725 698.306 366.725 690.031 c 0
 366.725 683.33 364.264 676.264 358 670 c 0
 239 550 l 0
 234.027 545.027 226.001 541.275 217.452 541.275 c 0
 210.53 541.275 203.264 543.736 197 550 c 0
244 415 m 1
 305 415 l 1
 305 49 l 1
 244 49 l 1
 244 415 l 1
EndSplineSet
Validated: 1
EndChar

StartChar: oacute
Encoding: 243 243 93
Width: 536
VWidth: 0
Flags: W
HStem: 53 58<164 325> 418 59<164 326>
VStem: 61 58<152 374> 365 59<152 374>
LayerCount: 2
Back
Fore
SplineSet
197 550 m 4
 191 556 188 563 188 570 c 4
 188 578 192 586 197 591 c 4
 316 711 l 4
 322 717 330 720 336 720 c 4
 345 720 353 716 358 711 c 4
 363 706 367 698 367 690 c 4
 367 683 364 676 358 670 c 4
 239 550 l 4
 234 545 226 541 217 541 c 4
 211 541 203 544 197 550 c 4
121 374 m 1
 119 152 l 1
 164 111 l 1
 325 110 l 1
 365 152 l 1
 366 374 l 1
 326 418 l 1
 164 418 l 1
 121 374 l 1
71 407 m 2
 132 468 l 0
 139 475 147 477 152 477 c 0
 339 477 l 0
 349 477 357 471 361 467 c 0
 417 404 l 0
 423 397 425 390 425 385 c 0
 424 140 l 0
 424 130 419 122 416 119 c 0
 358 60 l 0
 351 53 342 51 337 51 c 0
 152 53 l 0
 143 53 136 56 132 60 c 0
 70 118 l 0
 62 125 61 135 61 140 c 0
 63 387 l 0
 63 397 68 404 71 407 c 2
EndSplineSet
Validated: 1
EndChar

StartChar: uacute
Encoding: 250 250 94
Width: 536
VWidth: 0
Flags: W
HStem: 51 58<163 324 440 489> 456 20G<62 120.123 366.938 426>
VStem: 63 59<150 475> 366 59<153 476>
LayerCount: 2
Back
Fore
SplineSet
196 547 m 0
 189 553 187 561 187 568 c 0
 187 576 190 584 195 589 c 0
 314 714 l 0
 320 721 327 723 335 723 c 0
 343 723 350 720 355 715 c 0
 360 710 364 702 364 693 c 0
 364 686 362 679 356 673 c 0
 237 548 l 0
 232 543 224 539 215 539 c 0
 209 539 202 541 196 547 c 0
381 84 m 1
 357 60 l 0
 354 57 346 51 336 51 c 0
 151 51 l 0
 146 51 138 52 131 59 c 0
 72 117 l 0
 69 120 63 128 63 138 c 0
 62 475 l 1
 120 476 l 1
 122 150 l 1
 163 109 l 1
 324 109 l 1
 366 153 l 1
 367 476 l 1
 426 476 l 1
 425 141 l 0
 425 138 424 134 422 129 c 1
 440 109 l 1
 489 109 l 1
 489 50 l 1
 428 50 l 0
 418 50 410 55 407 59 c 0
 381 84 l 1
EndSplineSet
Validated: 1
EndChar

StartChar: ntilde
Encoding: 241 241 95
Width: 536
VWidth: 0
Flags: W
HStem: 417 58<62 110 226 387> 538 58<348 386> 599 59<225 264>
VStem: 124 59<50 373> 430 59<50 376>
LayerCount: 2
Back
Fore
SplineSet
177 548 m 5
 134 588 l 5
 190 648 l 4
 197 655 207 658 212 658 c 4
 276 658 l 4
 286 658 294 653 297 649 c 4
 348 596 l 5
 386 597 l 5
 437 649 l 5
 479 608 l 5
 419 548 l 4
 416 545 408 539 399 539 c 4
 336 538 l 4
 331 538 321 540 314 547 c 4
 264 599 l 5
 225 599 l 5
 177 548 l 5
169 442 m 1
 193 466 l 0
 196 469 204 475 214 475 c 0
 399 475 l 0
 404 475 412 474 419 467 c 0
 478 409 l 0
 481 406 487 398 487 388 c 0
 489 50 l 1
 430 50 l 1
 428 376 l 1
 387 417 l 1
 226 417 l 1
 184 373 l 1
 183 50 l 1
 124 50 l 1
 125 385 l 0
 125 388 126 392 128 397 c 1
 110 417 l 1
 62 417 l 1
 62 476 l 1
 122 476 l 0
 132 476 140 471 143 467 c 0
 169 442 l 1
EndSplineSet
Validated: 1
EndChar

StartChar: Agrave
Encoding: 192 192 96
Width: 536
VWidth: 0
Flags: W
HStem: 49 21G<60 120.328 427 487> 232 61<124 427>
VStem: 64 60<49 232 293 312> 427 60<49 232 293 312>
LayerCount: 2
Back
Fore
SplineSet
244 690 m 0
 244 704 259 719 273 719 c 0
 281 719 289 715 294 710 c 2
 416 588 l 2
 422 582 425 575 425 568 c 0
 425 552 411 538 395 538 c 0
 388 538 381 541 375 547 c 2
 253 669 l 2
 248 674 244 682 244 690 c 0
123 232 m 1
 120 49 l 1
 60 49 l 1
 64 325 l 2
 64 335 70 343 73 346 c 2
 253 527 l 2
 259 533 267 536 273 536 c 0
 282 536 290 532 295 527 c 2
 478 345 l 2
 485 338 487 329 487 324 c 2
 487 49 l 1
 427 49 l 1
 428 232 l 1
 123 232 l 1
124 293 m 1
 427 293 l 1
 427 312 l 1
 274 464 l 1
 124 312 l 1
 124 293 l 1
EndSplineSet
Validated: 1
EndChar

StartChar: Egrave
Encoding: 200 200 97
Width: 536
VWidth: 0
Flags: W
HStem: 48 62<122 488> 293 61<122 366> 476 61<122 488>
VStem: 61 61<110 293 354 476>
LayerCount: 2
Back
Fore
SplineSet
61 537 m 25
 488 537 l 25
 488 476 l 25
 122 476 l 25
 122 354 l 25
 366 354 l 25
 366 293 l 25
 122 293 l 25
 122 110 l 25
 488 110 l 25
 488 49 l 25
 61 48 l 25
 61 537 l 25
134 711 m 0
 140 717 147 720 154 720 c 0
 162 720 170 716 175 711 c 0
 297 589 l 0
 303 583 306 576 306 569 c 0
 306 561 302 553 297 548 c 0
 292 543 284 539 276 539 c 0
 269 539 262 542 256 548 c 0
 134 670 l 0
 129 675 125 683 125 691 c 0
 125 698 128 705 134 711 c 0
EndSplineSet
Validated: 1
EndChar

StartChar: Igrave
Encoding: 204 204 98
Width: 536
VWidth: 0
Flags: W
HStem: 49 61<183 244 305 366> 415 61<184 244 305 366>
VStem: 183 183<49 109 415 476>
LayerCount: 2
Back
Fore
SplineSet
184 476 m 25
 366 476 l 25
 366 415 l 25
 305 414 l 25
 305 110 l 25
 366 110 l 25
 366 49 l 25
 183 49 l 25
 183 110 l 25
 244 109 l 25
 244 415 l 25
 183 415 l 25
 184 476 l 25
195 711 m 0
 201 717 208 720 215 720 c 0
 223 720 231 716 236 711 c 0
 358 589 l 0
 364 583 367 576 367 569 c 0
 367 561 363 553 358 548 c 0
 353 543 345 539 337 539 c 0
 330 539 323 542 317 548 c 0
 195 670 l 0
 190 675 186 683 186 691 c 0
 186 698 189 705 195 711 c 0
EndSplineSet
Validated: 1
EndChar

StartChar: Ograve
Encoding: 210 210 99
Width: 536
VWidth: 0
Flags: W
HStem: 50 60<163 385> 477 60<164 385>
VStem: 62 60<150 433> 428 60<153 432>
LayerCount: 2
Back
Fore
SplineSet
123 433 m 1
 122 150 l 1
 163 110 l 1
 385 110 l 1
 428 153 l 1
 428 432 l 1
 385 476 l 1
 164 477 l 1
 123 433 l 1
71 465 m 2
 128 527 l 0
 136 535 145 537 151 537 c 0
 398 536 l 0
 408 536 416 530 419 527 c 0
 479 465 l 0
 486 457 488 448 488 444 c 0
 488 140 l 0
 488 130 483 122 479 119 c 0
 418 59 l 0
 411 52 402 50 397 50 c 0
 151 50 l 0
 141 50 133 55 130 58 c 0
 71 115 l 0
 64 123 62 132 62 137 c 0
 64 445 l 0
 64 454 68 461 71 465 c 2
134 711 m 0
 140 717 147 720 154 720 c 0
 162 720 170 716 175 711 c 0
 297 589 l 0
 303 583 306 576 306 569 c 0
 306 561 302 553 297 548 c 0
 292 543 284 539 276 539 c 0
 269 539 262 542 256 548 c 0
 134 670 l 0
 129 675 125 683 125 691 c 0
 125 698 128 705 134 711 c 0
EndSplineSet
Validated: 1
EndChar

StartChar: Ugrave
Encoding: 217 217 100
Width: 536
VWidth: 0
Flags: W
HStem: 50 60<164 386>
VStem: 63 60<152 537> 427 60<153 537>
LayerCount: 2
Back
Fore
SplineSet
62 537 m 1
 122 537 l 1
 123 152 l 1
 164 110 l 1
 386 110 l 1
 427 153 l 1
 428 538 l 1
 488 537 l 1
 487 141 l 0
 487 137 485 128 479 121 c 0
 421 60 l 0
 418 56 410 50 399 50 c 0
 151 50 l 0
 146 50 137 52 130 59 c 0
 71 118 l 1
 68 121 63 129 63 139 c 0
 62 537 l 1
134 711 m 0
 140 717 147 720 154 720 c 0
 162 720 170 716 175 711 c 0
 297 589 l 0
 303 583 306 576 306 569 c 0
 306 561 302 553 297 548 c 0
 292 543 284 539 276 539 c 0
 269 539 262 542 256 548 c 0
 134 670 l 0
 129 675 125 683 125 691 c 0
 125 698 128 705 134 711 c 0
EndSplineSet
Validated: 1
EndChar

StartChar: Atilde
Encoding: 195 195 101
Width: 536
VWidth: 0
Flags: W
HStem: 48 21G<60 120.484 427 487> 172 61<123 427> 457 20G<269.5 277.5> 537 59<346 384> 599 58<223 262>
VStem: 64 59<48 172 233 253> 427 60<48 172 233 252>
LayerCount: 2
Back
Fore
SplineSet
487 264 m 2
 487 48 l 1
 427 48 l 1
 427 172 l 1
 123 172 l 1
 120 48 l 1
 60 48 l 1
 64 266 l 2
 64 276 69 283 73 287 c 2
 253 468 l 2
 259 474 266 477 273 477 c 0
 282 477 290 472 295 468 c 2
 478 286 l 2
 485 279 487 269 487 264 c 2
123 233 m 1
 427 233 l 1
 427 252 l 1
 274 404 l 1
 124 253 l 1
 123 233 l 1
210 657 m 2
 275 657 l 2
 285 657 293 652 296 648 c 2
 346 596 l 1
 384 597 l 1
 435 649 l 1
 477 607 l 1
 417 547 l 2
 414 544 406 539 397 539 c 2
 334 537 l 2
 329 537 320 539 313 546 c 2
 262 599 l 1
 223 599 l 1
 175 547 l 1
 132 587 l 1
 189 648 l 2
 196 655 205 657 210 657 c 2
EndSplineSet
Validated: 1
EndChar

StartChar: Otilde
Encoding: 213 213 102
Width: 536
VWidth: 0
Flags: W
HStem: 50 60<163.125 384.719> 537.947 60.053<164.122 385.235> 603 59<352 390> 665 58<229 268>
VStem: 62.0004 60.0686<149.664 494.236> 428 60<152.572 492.861>
LayerCount: 2
Back
Fore
SplineSet
181 613 m 5
 138 653 l 5
 195 714 l 4
 202 721 211 723 216 723 c 4
 281 723 l 4
 291 723 299 718 302 714 c 4
 352 662 l 5
 390 663 l 5
 441 715 l 5
 483 673 l 5
 423 613 l 4
 420 610 412 605 403 605 c 4
 340 603 l 4
 335 603 326 605 319 612 c 4
 268 665 l 5
 229 665 l 5
 181 613 l 5
123.937 494.236 m 1
 122.069 149.664 l 1
 163.125 110 l 1
 384.719 110 l 1
 428 152.572 l 1
 428 492.861 l 1
 385.235 537.051 l 1
 164.122 537.947 l 1
 123.937 494.236 l 1
71.915 526.304 m 2
 128.915 588.304 l 0
 136.036 596.049 145.541 598.022 151.121 598 c 0
 398.121 597 l 0
 408.264 596.959 416.093 591.443 419.558 587.863 c 0
 479.558 525.863 l 0
 486.378 518.816 488 509.503 488 505 c 0
 488 140 l 0
 488 129.904 482.54 122.057 479.037 118.612 c 0
 418.037 58.6122 l 0
 410.977 51.6679 401.636 50 397 50 c 0
 151 50 l 0
 141.204 50 133.384 55.3051 130.156 58.4243 c 0
 71.1556 115.424 l 0
 63.7762 122.553 61.9725 132.001 62.0004 137.163 c 0
 64.0004 506.163 l 0
 64.0504 515.388 68.1463 522.205 71.915 526.304 c 2
EndSplineSet
Validated: 1
EndChar

StartChar: onesuperior
Encoding: 185 185 103
Width: 536
VWidth: 0
Flags: W
HStem: 640 20G<272.5 280.5>
VStem: 245 60<263 558>
LayerCount: 2
Back
Fore
SplineSet
206 519 m 1
 164 561 l 1
 255 651 l 0
 261 657 269 660 276 660 c 0
 285 660 293 656 297 651 c 0
 306 643 306 634 306 630 c 0
 305 263 l 1
 245 263 l 1
 246 558 l 1
 206 519 l 1
EndSplineSet
Validated: 1
EndChar

StartChar: twosuperior
Encoding: 178 178 104
Width: 536
VWidth: 0
Flags: W
HStem: 264 60<228 396> 600 60<257 296>
VStem: 336 61<520 557>
LayerCount: 2
Back
Fore
SplineSet
206 548 m 1
 163 590 l 1
 223 651 l 0
 230 658 240 660 245 660 c 0
 309 659 l 0
 319 659 327 654 330 650 c 0
 388 589 l 0
 395 582 397 573 397 568 c 0
 395 507 l 0
 395 497 390 489 387 486 c 0
 228 324 l 1
 397 323 l 1
 396 263 l 1
 183 264 l 0
 182 264 183 264 182 264 c 0
 171 265 153 274 153 293 c 0
 153 294 153 294 153 295 c 0
 155 323 l 0
 155 329 157 336 163 343 c 0
 336 520 l 1
 336 557 l 1
 296 599 l 1
 257 600 l 1
 206 548 l 1
EndSplineSet
Validated: 1
EndChar

StartChar: threesuperior
Encoding: 179 179 105
Width: 536
VWidth: 0
Flags: W
HStem: 265 60<226 294> 602 59<153 325>
VStem: 336 60<366 403>
LayerCount: 2
Back
Fore
SplineSet
153 602 m 1
 153 661 l 1
 368 659 l 0
 388 659 397 642 397 631 c 0
 397 630 397 630 397 629 c 0
 397 628 398 629 397 628 c 0
 396 598 l 0
 396 589 391 582 388 578 c 0
 316 504 l 1
 322 502 326 499 327 498 c 0
 388 437 l 0
 395 430 397 420 396 415 c 0
 395 354 l 0
 395 344 390 336 387 333 c 0
 328 273 l 0
 321 265 311 263 306 264 c 0
 214 265 l 0
 205 265 198 269 194 273 c 0
 163 301 l 1
 203 345 l 1
 226 325 l 1
 294 324 l 1
 336 366 l 1
 336 403 l 1
 293 446 l 1
 247 445 l 0
 246 445 234 445 225 453 c 0
 220 458 216 466 216 476 c 0
 216 482 218 489 224 496 c 0
 325 599 l 1
 153 602 l 1
EndSplineSet
Validated: 1
EndChar

StartChar: ordfeminine
Encoding: 170 170 106
Width: 536
VWidth: 0
Flags: W
HStem: 49 60<61 488> 171 60<165 368 427 488> 356 59<166 367> 537 59<123 326>
VStem: 65 59<275 312> 369 58<231 355 414 495>
LayerCount: 2
Back
Fore
SplineSet
368 231 m 1
 367 355 l 1
 166 356 l 1
 124 312 l 1
 124 275 l 1
 165 232 l 1
 368 231 l 1
427 230 m 1
 488 229 l 1
 488 171 l 1
 153 174 l 0
 143 174 135 180 132 183 c 0
 73 243 l 0
 66 250 65 260 65 264 c 0
 65 324 l 0
 65 334 70 341 73 344 c 0
 133 406 l 0
 140 413 149 415 154 415 c 0
 369 414 l 1
 369 495 l 1
 326 537 l 1
 122 540 l 1
 123 598 l 1
 339 596 l 0
 349 596 356 590 359 587 c 0
 419 527 l 0
 426 520 427 512 427 507 c 0
 427 230 l 1
61 109 m 1
 488 109 l 1
 488 49 l 1
 61 49 l 1
 61 109 l 1
EndSplineSet
Validated: 1
EndChar

StartChar: masculine
Encoding: 65541 -1 107
Width: 536
VWidth: 0
Flags: W
HStem: 49 60<61 428> 172 58<165 326> 537 59<165 327>
VStem: 62 58<271 493> 366 59<271 493>
LayerCount: 2
Back
Fore
SplineSet
122 493 m 5
 120 271 l 5
 165 230 l 5
 326 229 l 5
 366 271 l 5
 367 493 l 5
 327 537 l 5
 165 537 l 5
 122 493 l 5
  Spiro
    121.998 493.488 v
    120.242 271.394 v
    164.919 230.207 v
    325.619 228.507 v
    366.281 270.547 v
    367.166 492.516 v
    326.88 536.969 v
    165.479 536.969 v
    0 0 z
  EndSpiro
72 526 m 6
 133 587 l 4
 140 594 149 596 153 596 c 4
 340 596 l 4
 350 596 358 590 362 586 c 4
 418 523 l 4
 424 517 426 509 426 504 c 4
 425 259 l 4
 425 249 420 241 417 238 c 4
 359 179 l 4
 352 171 343 170 338 170 c 4
 153 172 l 4
 144 172 137 176 133 179 c 4
 71 237 l 4
 63 244 62 253 62 259 c 4
 64 506 l 4
 64 516 69 523 72 526 c 6
  Spiro
    72.0809 526.435 [
    132.628 586.981 o
    140.024 592.271 o
    147.442 594.874 o
    153.344 595.562 o
    339.867 595.562 o
    349.247 593.977 o
    356.602 590.242 o
    361.576 585.939 o
    418.217 523.439 o
    422.882 516.557 o
    425.196 509.719 o
    425.805 503.648 o
    424.828 258.531 o
    423.347 249.747 o
    420.052 242.791 o
    416.59 238.28 o
    358.973 178.71 o
    351.466 173.17 o
    343.856 170.463 o
    337.604 169.783 o
    153.034 171.736 o
    144.866 172.977 o
    138.312 175.885 o
    133.486 179.491 o
    70.9862 237.108 o
    65.1677 244.627 o
    62.2907 252.353 o
    61.5478 258.88 o
    63.5009 505.95 o
    65.0442 514.841 o
    68.4526 521.855 o
    0 0 z
  EndSpiro
61 109 m 1
 428 109 l 1
 428 49 l 1
 61 49 l 1
 61 109 l 1
EndSplineSet
Validated: 1
EndChar

StartChar: guillemotleft
Encoding: 171 171 108
Width: 536
VWidth: 0
Flags: W
LayerCount: 2
Back
Fore
SplineSet
254 561 m 1
 297 519 l 1
 106 325 l 1
 297 133 l 1
 254 91 l 1
 43 304 l 0
 38 309 34 317 34 326 c 0
 34 332 37 340 43 346 c 0
 254 561 l 1
437 560 m 1
 480 518 l 1
 289 324 l 1
 480 132 l 1
 437 90 l 1
 226 303 l 0
 221 308 218 316 218 324 c 0
 218 331 220 338 226 345 c 0
 437 560 l 1
EndSplineSet
Validated: 1
EndChar

StartChar: guillemotright
Encoding: 187 187 109
Width: 536
VWidth: 0
Flags: W
LayerCount: 2
Back
Fore
SplineSet
293 561 m 1
 504 346 l 0
 510 339 512 332 512 325 c 0
 512 317 509 309 504 304 c 0
 293 91 l 1
 250 133 l 1
 440 325 l 1
 250 519 l 1
 293 561 l 1
109 560 m 1
 321 345 l 0
 327 339 329 332 329 325 c 0
 329 316 325 308 321 303 c 0
 109 90 l 1
 67 132 l 1
 257 324 l 1
 67 518 l 1
 109 560 l 1
EndSplineSet
Validated: 1
EndChar

StartChar: exclamdown
Encoding: 161 161 110
Width: 536
VWidth: 0
Flags: W
HStem: 49 21G<244 305> 456 20G<244 305> 598 61<244 305>
VStem: 244 61<49 476 598 659>
LayerCount: 2
Back
Fore
SplineSet
244 659 m 1
 305 659 l 1
 305 598 l 1
 244 598 l 1
 244 659 l 1
244 476 m 1
 305 476 l 1
 305 49 l 1
 244 49 l 1
 244 476 l 1
EndSplineSet
Validated: 1
EndChar

StartChar: questiondown
Encoding: 191 191 111
Width: 536
VWidth: 0
Flags: W
HStem: 49.5908 61.9892<220.562 394.384> 601.292 61.035<301.828 368.585>
VStem: 122.07 62.31<145.268 196.436> 303.775 61.449<390.248 480.016 601.292 662.327> 425.925 60.797<144.243 235.915>
LayerCount: 2
Back
Fore
SplineSet
368.585 601.292 m 5
 301.828 601.292 l 5
 301.828 662.327 l 5
 368.585 662.327 l 5
 368.585 601.292 l 5
  Spiro
    368.585 601.292 v
    301.828 601.292 v
    301.828 662.327 v
    368.585 662.327 v
    0 0 z
  EndSpiro
486.722 132.44 m 6
 486.721 131.3 486.686 130.154 486.503 129.027 c 4
 486.321 127.9 486.011 126.798 485.653 125.714 c 4
 484.971 123.641 484.183 121.597 483.207 119.645 c 4
 482.188 117.605 480.815 115.768 479.31 114.057 c 6
 432.173 60.415 l 6
 430.179 58.1455 427.992 56.0195 425.441 54.4023 c 4
 423 52.8555 420.345 51.6484 417.585 50.79 c 4
 414.699 49.8916 411.662 49.5908 408.64 49.5908 c 6
 208.368 49.5908 l 6
 205.743 49.5908 203.107 49.8105 200.573 50.4941 c 4
 198.145 51.1484 195.791 52.0752 193.567 53.251 c 4
 191.247 54.4766 189.169 56.1113 187.248 57.9004 c 6
 131.934 109.398 l 6
 129.765 111.419 127.777 113.655 126.298 116.223 c 4
 124.882 118.677 123.773 121.311 123.008 124.039 c 4
 122.206 126.893 121.997 129.877 122.07 132.839 c 6
 123.977 211.041 l 6
 124.045 213.841 124.364 216.647 125.208 219.318 c 4
 126.015 221.876 127.127 224.339 128.512 226.635 c 4
 129.958 229.033 131.852 231.129 133.909 233.032 c 6
 303.775 390.248 l 5
 303.735 480.175 l 5
 364.93 480.016 l 5
 365.224 375.033 l 6
 365.229 373.654 365.194 372.271 364.974 370.91 c 4
 364.754 369.548 364.375 368.217 363.919 366.915 c 4
 363.048 364.431 361.976 362.008 360.622 359.751 c 4
 359.207 357.391 357.326 355.347 355.307 353.478 c 6
 185.628 196.436 l 5
 184.38 145.268 l 5
 220.562 111.58 l 5
 394.384 111.58 l 5
 425.925 144.243 l 5
 425.686 236.034 l 5
 486.841 235.915 l 5
 486.722 132.44 l 6
  Spiro
    486.722 132.441 ]
    485.653 125.714 o
    483.207 119.645 o
    479.31 114.057 [
    432.173 60.4148 ]
    425.441 54.4028 o
    417.585 50.7898 o
    408.64 49.5908 [
    208.368 49.5908 ]
    200.573 50.4938 o
    193.567 53.2498 o
    187.248 57.9008 [
    131.934 109.399 ]
    126.298 116.223 o
    123.008 124.039 o
    122.07 132.839 [
    123.977 211.041 ]
    125.208 219.319 o
    128.512 226.635 o
    133.909 233.032 [
    303.775 390.248 v
    303.735 480.175 v
    364.93 480.016 v
    365.224 375.033 ]
    363.919 366.915 o
    360.622 359.751 o
    355.307 353.478 [
    185.628 196.436 v
    184.38 145.268 v
    220.562 111.58 v
    394.384 111.58 v
    425.925 144.243 v
    425.686 236.034 v
    486.841 235.915 v
    0 0 z
  EndSpiro
EndSplineSet
Validated: 1
EndChar

StartChar: Adiaeresis
Encoding: 196 196 112
Width: 536
VWidth: 0
Flags: W
HStem: 49 21G<60 120.328 427 487> 232 61<124 427> 577.238 20G<269.994 278.089> 659 61<122 184 366 428>
VStem: 64 60<49 232 293 374> 122 62<659 720> 366 62<659 720> 427 60<49 232 293 373>
LayerCount: 2
Back
Fore
SplineSet
123 232 m 1xf2
 120 49 l 1
 60 49 l 1
 64 387 l 2
 64 396 70 404 73 407 c 2
 253 588 l 2
 259.34 594.762 266.573 597.238 273.415 597.238 c 0
 282.762 597.238 291.381 592.619 296 588 c 2
 479 406 l 2
 486 399 487 390 487 385 c 2
 487 49 l 1
 427 49 l 1xf9
 428 232 l 1
 123 232 l 1xf2
124 293 m 1
 427 293 l 1
 427 373 l 1
 274 525 l 1
 124 374 l 1
 124 293 l 1
122 720 m 1xf4
 184 720 l 1
 184 659 l 1
 122 659 l 1
 122 720 l 1xf4
366 720 m 1xf2
 428 720 l 1
 428 659 l 1
 366 659 l 1
 366 720 l 1xf2
EndSplineSet
Validated: 1
EndChar

StartChar: Ediaeresis
Encoding: 203 203 113
Width: 536
VWidth: 0
Flags: W
HStem: 49 60<122 488> 293 61<122 366> 537 61<122 488> 659 61<122 184 366 428>
VStem: 61 61<109 293 354 537> 122 62<659 720> 366 62<659 720>
LayerCount: 2
Back
Fore
SplineSet
122 720 m 5xf6
 184 720 l 5
 184 659 l 5
 122 659 l 5
 122 720 l 5xf6
366 720 m 5
 428 720 l 5
 428 659 l 5
 366 659 l 5
 366 720 l 5
61 598 m 1xfa
 488 598 l 1
 488 537 l 1
 122 537 l 1
 122 354 l 1
 366 354 l 1
 366 293 l 1
 122 293 l 1
 122 109 l 1
 488 109 l 1
 488 49 l 1
 61 49 l 1
 61 598 l 1xfa
EndSplineSet
Validated: 1
EndChar

StartChar: Idiaeresis
Encoding: 207 207 114
Width: 536
VWidth: 0
Flags: W
HStem: 49 60.667<183.333 244.333 305.333 365.667> 536.667 61.333<183.333 244 305 366> 659 61<122 184 366 428>
VStem: 122 62<659 720> 183.333 182.667<49 109.333 536.667 598> 366 62<659 720>
LayerCount: 2
Back
Fore
SplineSet
183 598 m 29xe8
 366 598 l 25
 366 536.667 l 25
 305 536.667 l 25
 305.333 109.333 l 25
 366.333 109.333 l 25
 365.667 49 l 25
 183.333 49 l 25
 183 109.667 l 25
 244.333 109.667 l 25
 244 536.667 l 25
 183.333 536.667 l 25
 183 598 l 29xe8
122 720 m 1xf0
 184 720 l 1
 184 659 l 1
 122 659 l 1
 122 720 l 1xf0
366 720 m 1xe4
 428 720 l 1
 428 659 l 1
 366 659 l 1
 366 720 l 1xe4
EndSplineSet
Validated: 1
EndChar

StartChar: Odiaeresis
Encoding: 214 214 115
Width: 536
VWidth: 0
Flags: W
HStem: 50 60<163.125 384.719> 537.947 60.053<164.122 385.235> 659 61<122 184 366 428>
VStem: 62.0004 60.0686<149.664 494.236> 122 62<659 720> 366 62<659 720> 428 60<152.572 492.861>
LayerCount: 2
Back
Fore
SplineSet
123.937 494.236 m 5xf2
 122.069 149.664 l 5
 163.125 110 l 5
 384.719 110 l 5
 428 152.572 l 5
 428 492.861 l 5
 385.235 537.051 l 5
 164.122 537.947 l 5
 123.937 494.236 l 5xf2
71.915 526.304 m 6
 128.915 588.304 l 4
 136.036 596.049 145.541 598.022 151.121 598 c 4
 398.121 597 l 4
 408.264 596.959 416.093 591.443 419.558 587.863 c 4
 479.558 525.863 l 4
 486.378 518.816 488 509.503 488 505 c 4
 488 140 l 4
 488 129.904 482.54 122.057 479.037 118.612 c 4
 418.037 58.6122 l 4
 410.977 51.6679 401.636 50 397 50 c 4
 151 50 l 4
 141.204 50 133.384 55.3051 130.156 58.4243 c 4
 71.1556 115.424 l 4
 63.7762 122.553 61.9725 132.001 62.0004 137.163 c 4
 64.0004 506.163 l 4
 64.0504 515.388 68.1463 522.205 71.915 526.304 c 6
122 720 m 1xe8
 184 720 l 1
 184 659 l 1
 122 659 l 1
 122 720 l 1xe8
366 720 m 1xe4
 428 720 l 1
 428 659 l 1
 366 659 l 1
 366 720 l 1xe4
EndSplineSet
Validated: 1
EndChar

StartChar: Udiaeresis
Encoding: 220 220 116
Width: 536
VWidth: 0
Flags: W
HStem: 50 60<163.859 386.311> 577.421 20G<61.3335 121.391 427.304 487.333> 659 61<122 184 366 428>
VStem: 62.6668 59.9642<151.697 597.246> 122 62<659 720> 366 62<659 720> 426.684 59.983<153.19 597.956>
LayerCount: 2
Back
Fore
SplineSet
122 720 m 5xe8
 184 720 l 5
 184 659 l 5
 122 659 l 5
 122 720 l 5xe8
366 720 m 5xe4
 428 720 l 5
 428 659 l 5
 366 659 l 5
 366 720 l 5xe4
61.3335 597.246 m 1
 121.333 597.421 l 1
 122.631 151.697 l 1
 163.859 110 l 1
 386.311 110 l 1
 426.684 153.19 l 1
 427.333 598.044 l 1
 487.333 597.956 l 1
 486.667 141.29 l 0
 486.66 137.086 485.125 127.846 478.582 120.847 c 0
 421.249 59.5135 l 0
 417.591 55.6002 409.718 50 399.333 50 c 0
 151.333 50 l 0
 146.465 50 137.078 51.7494 130.001 58.907 c 0
 71.2715 118.303 l 1
 68.1468 121.499 62.6956 129.352 62.6668 139.246 c 0xf2
 61.3335 597.246 l 1
EndSplineSet
Validated: 1
EndChar

StartChar: Acircumflex
Encoding: 194 194 117
Width: 536
VWidth: 0
Flags: W
HStem: 49 21G<60 120.328 427 487> 232 61<124 427> 597 21G<210 217.5 335 346.5>
VStem: 64 60<49 232 293 312> 427 60<49 232 293 312>
LayerCount: 2
Back
Fore
SplineSet
193 606 m 0
 187 612 184 620 184 627 c 0
 184 636 188 644 193 649 c 2
 255 711 l 2
 261 717 268 719 275 719 c 0
 284 719 292 716 297 711 c 2
 360 649 l 2
 367 642 369 635 369 628 c 0
 369 612 355 597 338 597 c 0
 332 597 324 600 318 606 c 2
 276 647 l 1
 235 606 l 2
 230 601 222 597 213 597 c 0
 207 597 199 600 193 606 c 0
123 232 m 1
 120 49 l 1
 60 49 l 1
 64 325 l 2
 64 335 70 343 73 346 c 2
 253 527 l 2
 259 533 267 536 273 536 c 0
 282 536 290 532 295 527 c 2
 478 345 l 2
 485 338 487 329 487 324 c 2
 487 49 l 1
 427 49 l 1
 428 232 l 1
 123 232 l 1
124 293 m 1
 427 293 l 1
 427 312 l 1
 274 464 l 1
 124 312 l 1
 124 293 l 1
EndSplineSet
Validated: 1
EndChar

StartChar: Ecircumflex
Encoding: 202 202 118
Width: 536
VWidth: 0
Flags: W
HStem: 49 60<122 488> 231 62<122 366> 476 61<122 488> 597 21G<210 217.5 334.5 342.5>
VStem: 61 61<109 231 293 476>
LayerCount: 2
Back
Fore
SplineSet
193 606 m 0
 187 612 184 620 184 627 c 0
 184 636 188 644 193 649 c 0
 255 711 l 0
 261 717 268 719 275 719 c 0
 284 719 292 716 297 711 c 0
 360 649 l 0
 366 643 369 635 369 629 c 0
 369 620 365 612 360 607 c 0
 355 601 347 597 338 597 c 0
 331 597 324 600 318 606 c 0
 276 647 l 1
 235 606 l 0
 230 601 222 597 213 597 c 0
 207 597 199 600 193 606 c 0
61 537 m 5
 488 537 l 5
 488 476 l 5
 122 476 l 5
 122 293 l 5
 366 293 l 5
 366 231 l 5
 122 231 l 5
 122 109 l 5
 488 109 l 5
 488 49 l 5
 61 49 l 5
 61 537 l 5
EndSplineSet
Validated: 1
EndChar

StartChar: Icircumflex
Encoding: 206 206 119
Width: 536
VWidth: 0
Flags: W
HStem: 49 61<183 244 305 366> 476 61<183 244 305 366> 597 21G<210 217.5 334.5 342.5>
VStem: 183 183<49 110 476 537 620 660.625>
LayerCount: 2
Back
Fore
SplineSet
193 606 m 0
 187 612 184 620 184 627 c 0
 184 636 188 644 193 649 c 0
 255 711 l 0
 261 717 268 719 275 719 c 0
 284 719 292 716 297 711 c 0
 360 649 l 0
 366 643 369 635 369 629 c 0
 369 620 365 612 360 607 c 0
 355 601 347 597 338 597 c 0
 331 597 324 600 318 606 c 0
 276 647 l 1
 235 606 l 0
 230 601 222 597 213 597 c 0
 207 597 199 600 193 606 c 0
183 537 m 25
 366 537 l 25
 366 476 l 25
 305 476 l 25
 305 110 l 25
 366 110 l 25
 366 49 l 25
 183 49 l 25
 183 110 l 25
 244 110 l 25
 244 476 l 25
 183 476 l 25
 183 537 l 25
EndSplineSet
Validated: 1
EndChar

StartChar: Ocircumflex
Encoding: 212 212 120
Width: 536
VWidth: 0
Flags: W
HStem: 50 60<163 385> 477 60<164 385> 597 21G<210 217.5 334.5 342.5>
VStem: 62 60<150 433> 428 60<153 432>
LayerCount: 2
Back
Fore
SplineSet
193 606 m 4
 187 612 184 620 184 627 c 4
 184 636 188 644 193 649 c 4
 255 711 l 4
 261 717 268 719 275 719 c 4
 284 719 292 716 297 711 c 4
 360 649 l 4
 366 643 369 635 369 629 c 4
 369 620 365 612 360 607 c 4
 355 601 347 597 338 597 c 4
 331 597 324 600 318 606 c 4
 276 647 l 5
 235 606 l 4
 230 601 222 597 213 597 c 4
 207 597 199 600 193 606 c 4
123 433 m 1
 122 150 l 1
 163 110 l 1
 385 110 l 1
 428 153 l 1
 428 432 l 1
 385 476 l 1
 164 477 l 1
 123 433 l 1
71 465 m 2
 128 527 l 0
 136 535 145 537 151 537 c 0
 398 536 l 0
 408 536 416 530 419 527 c 0
 479 465 l 0
 486 457 488 448 488 444 c 0
 488 140 l 0
 488 130 483 122 479 119 c 0
 418 59 l 0
 411 52 402 50 397 50 c 0
 151 50 l 0
 141 50 133 55 130 58 c 0
 71 115 l 0
 64 123 62 132 62 137 c 0
 64 445 l 0
 64 454 68 461 71 465 c 2
EndSplineSet
Validated: 1
EndChar

StartChar: Ucircumflex
Encoding: 219 219 121
Width: 536
VWidth: 0
Flags: W
HStem: 50 60<164 386> 597 21G<210 217.5 334.5 342.5>
VStem: 63 60<152 537> 427 60<153 537>
LayerCount: 2
Back
Fore
SplineSet
193 606 m 0
 187 612 184 620 184 627 c 0
 184 636 188 644 193 649 c 0
 255 711 l 0
 261 717 268 719 275 719 c 0
 284 719 292 716 297 711 c 0
 360 649 l 0
 366 643 369 635 369 629 c 0
 369 620 365 612 360 607 c 0
 355 601 347 597 338 597 c 0
 331 597 324 600 318 606 c 0
 276 647 l 1
 235 606 l 0
 230 601 222 597 213 597 c 0
 207 597 199 600 193 606 c 0
62 537 m 1
 122 537 l 1
 123 152 l 1
 164 110 l 1
 386 110 l 1
 427 153 l 1
 428 538 l 1
 488 537 l 1
 487 141 l 0
 487 137 485 128 479 121 c 0
 421 60 l 0
 418 56 410 50 399 50 c 0
 151 50 l 0
 146 50 137 52 130 59 c 0
 71 118 l 1
 68 121 63 129 63 139 c 0
 62 537 l 1
EndSplineSet
Validated: 1
EndChar

StartChar: Aacute
Encoding: 193 193 122
Width: 536
VWidth: 0
Flags: W
HStem: 49 21G<60 120.328 427 487> 232 61<124 427>
VStem: 64 60<49 232 293 312> 427 60<49 232 293 312>
LayerCount: 2
Back
Fore
SplineSet
132 547 m 0
 126 553 123 560 123 567 c 0
 123 575 127 583 132 588 c 2
 251 708 l 2
 258 715 265 717 272 717 c 0
 288 717 302 703 302 688 c 0
 302 681 300 674 293 667 c 2
 174 547 l 2
 169 542 161 538 152 538 c 0
 146 538 138 541 132 547 c 0
123 232 m 1
 120 49 l 1
 60 49 l 1
 64 325 l 2
 64 335 70 343 73 346 c 2
 253 527 l 2
 259 533 267 536 273 536 c 0
 282 536 290 532 295 527 c 2
 478 345 l 2
 485 338 487 329 487 324 c 2
 487 49 l 1
 427 49 l 1
 428 232 l 1
 123 232 l 1
124 293 m 1
 427 293 l 1
 427 312 l 1
 274 464 l 1
 124 312 l 1
 124 293 l 1
EndSplineSet
Validated: 1
EndChar

StartChar: Eacute
Encoding: 201 201 123
Width: 536
VWidth: 0
Flags: W
HStem: 49 60<122 488> 231 62<122 366> 476 61<122 488>
VStem: 61 61<109 231 293 476>
LayerCount: 2
Back
Fore
SplineSet
253 549 m 0
 247 555 244 562 244 569 c 0
 244 577 248 585 253 590 c 0
 372 710 l 0
 378 716 386 719 392 719 c 0
 401 719 409 715 414 710 c 0
 419 705 423 697 423 689 c 0
 423 682 420 675 414 669 c 0
 295 549 l 0
 290 544 282 540 273 540 c 0
 267 540 259 543 253 549 c 0
61 537 m 1
 488 537 l 1
 488 476 l 1
 122 476 l 1
 122 293 l 1
 366 293 l 1
 366 231 l 1
 122 231 l 1
 122 109 l 1
 488 109 l 1
 488 49 l 1
 61 49 l 1
 61 537 l 1
EndSplineSet
Validated: 1
EndChar

StartChar: Iacute
Encoding: 205 205 124
Width: 536
VWidth: 0
Flags: W
HStem: 49 61<183 244 305 366> 415 61<183 244 305 366>
VStem: 183 183<49 110 415 476>
LayerCount: 2
Back
Fore
SplineSet
197 550 m 0
 191 556 188 563 188 570 c 0
 188 578 192 586 197 591 c 0
 316 711 l 0
 322 717 330 720 336 720 c 0
 345 720 353 716 358 711 c 0
 363 706 367 698 367 690 c 0
 367 683 364 676 358 670 c 0
 239 550 l 0
 234 545 226 541 217 541 c 0
 211 541 203 544 197 550 c 0
183 476 m 25
 366 476 l 25
 366 415 l 25
 305 415 l 25
 305 110 l 25
 366 110 l 25
 366 49 l 25
 183 49 l 25
 183 110 l 25
 244 110 l 25
 244 415 l 25
 183 415 l 25
 183 476 l 25
EndSplineSet
Validated: 1
EndChar

StartChar: Oacute
Encoding: 211 211 125
Width: 536
VWidth: 0
Flags: W
HStem: 50 60<163 385> 477 60<164 385>
VStem: 62 60<150 433> 428 60<153 432>
LayerCount: 2
Back
Fore
SplineSet
254 550 m 0
 248 556 245 563 245 570 c 0
 245 578 249 586 254 591 c 0
 373 711 l 0
 379 717 387 720 393 720 c 0
 402 720 410 716 415 711 c 0
 420 706 424 698 424 690 c 0
 424 683 421 676 415 670 c 0
 296 550 l 0
 291 545 283 541 274 541 c 0
 268 541 260 544 254 550 c 0
123 433 m 1
 122 150 l 1
 163 110 l 1
 385 110 l 1
 428 153 l 1
 428 432 l 1
 385 476 l 1
 164 477 l 1
 123 433 l 1
71 465 m 2
 128 527 l 0
 136 535 145 537 151 537 c 0
 398 536 l 0
 408 536 416 530 419 527 c 0
 479 465 l 0
 486 457 488 448 488 444 c 0
 488 140 l 0
 488 130 483 122 479 119 c 0
 418 59 l 0
 411 52 402 50 397 50 c 0
 151 50 l 0
 141 50 133 55 130 58 c 0
 71 115 l 0
 64 123 62 132 62 137 c 0
 64 445 l 0
 64 454 68 461 71 465 c 2
EndSplineSet
Validated: 1
EndChar

StartChar: Uacute
Encoding: 218 218 126
Width: 536
VWidth: 0
Flags: W
HStem: 50 60<164 386>
VStem: 63 60<152 537> 427 60<153 537>
LayerCount: 2
Back
Fore
SplineSet
62 537 m 1
 122 537 l 1
 123 152 l 1
 164 110 l 1
 386 110 l 1
 427 153 l 1
 428 538 l 1
 488 537 l 1
 487 141 l 0
 487 137 485 128 479 121 c 0
 421 60 l 0
 418 56 410 50 399 50 c 0
 151 50 l 0
 146 50 137 52 130 59 c 0
 71 118 l 1
 68 121 63 129 63 139 c 0
 62 537 l 1
254 548 m 0
 248 554 245 561 245 568 c 0
 245 576 249 584 254 589 c 0
 373 709 l 0
 379 715 387 718 393 718 c 0
 402 718 410 714 415 709 c 0
 420 704 424 696 424 688 c 0
 424 681 421 674 415 668 c 0
 296 548 l 0
 291 543 283 539 274 539 c 0
 268 539 260 542 254 548 c 0
EndSplineSet
Validated: 1
EndChar

StartChar: Ntilde
Encoding: 209 209 127
Width: 536
VWidth: 0
Flags: W
HStem: 49 21G<61 122 464 488> 456 20G<61 85.0656 428 488> 538 58<348 386> 599 59<225 264>
VStem: 61 61<49 354> 428 60<171 476>
LayerCount: 2
Back
Fore
SplineSet
177 548 m 1
 134 588 l 1
 190 648 l 0
 197 655 207 658 212 658 c 0
 276 658 l 0
 286 658 294 653 297 649 c 0
 348 596 l 1
 386 597 l 1
 437 649 l 1
 479 608 l 1
 419 548 l 0
 416 545 408 539 399 539 c 0
 336 538 l 0
 331 538 321 540 314 547 c 0
 264 599 l 1
 225 599 l 1
 177 548 l 1
61 476 m 5
 428 171 l 5
 428 476 l 5
 488 476 l 5
 488 49 l 5
 122 354 l 5
 122 49 l 5
 61 49 l 5
 61 476 l 5
EndSplineSet
Validated: 1
EndChar

StartChar: a
Encoding: 97 97 128
Width: 536
VWidth: 0
Flags: W
HStem: 49 60<165 367 426 487> 234 59<166 367> 415 59<122 326>
VStem: 64 59<153 190> 367 59<109 233 292 373>
LayerCount: 2
Back
Fore
SplineSet
367 109 m 5
 367 233 l 5
 166 234 l 5
 123 190 l 5
 123 153 l 5
 165 110 l 5
 367 109 l 5
426 108 m 5
 488 107 l 5
 487 49 l 5
 152 52 l 4
 142 52 134 58 131 61 c 4
 73 121 l 4
 66 128 64 138 64 142 c 4
 64 202 l 4
 64 212 70 220 73 223 c 4
 132 284 l 4
 139 291 148 293 153 293 c 4
 368 292 l 5
 368 373 l 5
 326 415 l 5
 122 418 l 5
 122 477 l 5
 338 474 l 4
 348 474 356 468 359 465 c 4
 418 405 l 4
 425 398 427 390 427 385 c 4
 426 108 l 5
EndSplineSet
Validated: 1
EndChar

StartChar: b
Encoding: 98 98 129
Width: 536
VWidth: 0
Flags: W
HStem: 52 57<122 262> 416 59<122 266> 639 20G<62 122>
VStem: 62 60<109 416 475 659> 368 59<213 312>
LayerCount: 2
Back
Fore
SplineSet
62 52 m 5
 62 659 l 5
 122 659 l 5
 122 475 l 5
 278 475 l 4
 288 475 296 469 299 466 c 4
 418 345 l 4
 425 338 427 329 427 324 c 4
 427 201 l 4
 427 191 421 183 418 180 c 4
 295 59 l 4
 288 52 278 51 274 51 c 4
 62 52 l 5
122 109 m 5
 262 109 l 5
 368 213 l 5
 368 312 l 5
 266 416 l 5
 122 416 l 5
 122 109 l 5
EndSplineSet
Validated: 1
EndChar

StartChar: c
Encoding: 99 99 130
Width: 536
VWidth: 0
InSpiro: 1
Flags: W
HStem: 50.7812 58.5668<226.87 427.179> 416.016 58.593<223.665 427.246>
VStem: 62.5 58.594<213.444 312.188>
LayerCount: 2
Back
Fore
SplineSet
427.246 474.609 m 1
 427.246 416.016 l 1
 223.665 416.016 l 1
 121.094 312.188 l 1
 121.094 213.444 l 1
 226.87 109.348 l 1
 427.313 108.887 l 1
 427.179 50.293 l 1
 214.776 50.7812 l 0
 210.282 50.792 201.17 52.4297 194.294 59.1973 c 0
 71.2471 180.291 l 0
 67.8311 183.653 62.5 191.315 62.5 201.172 c 0
 62.5 324.219 l 0
 62.5 328.781 64.1406 337.911 70.9551 344.809 c 0
 190.584 465.902 l 0
 193.931 469.289 201.591 474.609 211.426 474.609 c 0
 427.246 474.609 l 1
  Spiro
    427.246 474.609 v
    427.246 416.016 v
    223.665 416.016 v
    121.094 312.188 v
    121.094 213.444 v
    226.87 109.348 v
    427.313 108.887 v
    427.179 50.2931 v
    214.776 50.7813 [
    209.004 51.4625 o
    201.654 54.0137 o
    194.294 59.1971 o
    71.2473 180.291 o
    67.4648 185.003 o
    64.0059 192.133 o
    62.5 201.172 o
    62.5 324.219 o
    63.1764 330.045 o
    65.7383 337.426 o
    70.9552 344.809 o
    190.584 465.902 o
    195.283 469.661 o
    202.403 473.107 o
    211.426 474.609 ]
    0 0 z
  EndSpiro
EndSplineSet
Validated: 1
EndChar

StartChar: d
Encoding: 100 100 131
Width: 536
VWidth: 0
Flags: W
HStem: 51 58<227 367> 416 59<224 367> 639 20G<367 427>
VStem: 62 59<213 312> 367 60<109 416 475 659>
LayerCount: 2
Back
Fore
SplineSet
427 52 m 5
 215 51 l 4
 211 51 201 52 194 59 c 4
 71 180 l 4
 68 183 62 191 62 201 c 4
 62 324 l 4
 62 329 64 338 71 345 c 4
 191 466 l 4
 194 469 201 475 211 475 c 4
 367 475 l 5
 367 659 l 5
 427 659 l 5
 427 52 l 5
367 109 m 5
 367 416 l 5
 224 416 l 5
 121 312 l 5
 121 213 l 5
 227 109 l 5
 367 109 l 5
EndSplineSet
Validated: 1
EndChar

StartChar: e
Encoding: 101 101 132
Width: 536
VWidth: 0
Flags: W
HStem: 51 58<163 428> 231 62<120 368> 415 59<165 325>
VStem: 61 59<152 231 293 372> 368 59<293 373>
LayerCount: 2
Back
Fore
SplineSet
120 231 m 5
 119 152 l 5
 163 109 l 5
 428 107 l 5
 428 49 l 5
 151 51 l 4
 142 51 134 56 131 59 c 4
 69 119 l 4
 62 126 61 135 61 140 c 4
 63 384 l 4
 63 394 68 401 71 404 c 4
 132 467 l 4
 139 474 149 476 154 476 c 4
 337 474 l 4
 347 474 355 468 358 465 c 4
 417 405 l 4
 424 398 426 390 426 385 c 4
 427 233 l 5
 120 231 l 5
120 293 m 5
 368 293 l 5
 367 373 l 5
 325 415 l 5
 165 417 l 5
 121 372 l 5
 120 293 l 5
EndSplineSet
Validated: 1
EndChar

StartChar: f
Encoding: 102 102 133
Width: 536
VWidth: 0
Flags: W
HStem: 48.8848 21G<183 243.077> 414.923 61.077<61.0752 184.405 244.639 365.846> 599 60<284.73 427>
VStem: 184.639 60<49.1152 414.923 476 557.827>
LayerCount: 2
Back
Fore
SplineSet
284.73 599 m 1
 244.953 557.827 l 1
 244.639 476 l 1
 366.154 476 l 1
 365.846 414.923 l 5
 244.405 414.923 l 1
 243 48.8848 l 1
 183 49.1152 l 1
 184.405 415.077 l 1
 61.0752 414.919 l 1
 60.9238 475.849 l 1
 184.639 476 l 1
 185 570.115 l 2
 185.031 578.262 187.764 584.985 193.424 590.845 c 2
 250.424 649.845 l 2
 256.373 656.002 263.438 659 272 659 c 2
 427 659 l 1
 427 599 l 1
 284.73 599 l 1
EndSplineSet
Validated: 1
EndChar

StartChar: g
Encoding: 103 103 134
Width: 536
VWidth: 0
Flags: W
HStem: -72 60<226 387> 109 60<226 322> 171 60<407 429> 417 60<226 384>
VStem: 62 60<272 313> 429 60<30 171 231 375>
LayerCount: 2
Back
Fore
SplineSet
429 231 m 1
 429 375 l 1
 384 417 l 1
 226 415 l 1
 122 313 l 1
 122 272 l 1
 226 169 l 1
 322 171 l 1
 373 222 l 2
 379 228 386 231 394 231 c 2
 429 231 l 1
429 171 m 1
 407 171 l 1
 356 120 l 2
 351 114 344 111 335 111 c 2
 214 109 l 2
 206 109 199 112 193 118 c 2
 71 238 l 2
 65 244 62 251 62 259 c 2
 62 326 l 2
 62 335 65 342 71 347 c 2
 193 466 l 2
 199 472 206 475 214 475 c 2
 396 477 l 2
 404 477 411 474 417 469 c 2
 480 410 l 2
 486 404 489 397 489 388 c 2
 488 18 l 2
 488 10 485 3 480 -3 c 2
 422 -63 l 2
 416 -69 409 -72 400 -72 c 2
 214 -72 l 2
 206 -72 199 -69 193 -63 c 2
 132 -3 l 1
 174 39 l 1
 226 -12 l 1
 387 -12 l 1
 428 30 l 1
 429 171 l 1
EndSplineSet
Validated: 1
EndChar

StartChar: h
Encoding: 104 104 135
Width: 536
VWidth: 0
Flags: W
HStem: 48 21G<366 426> 416 60<224 321>
VStem: 59 60<50 315 398 666> 366 60<48 372>
LayerCount: 2
Back
Fore
SplineSet
60 50 m 1
 59 666 l 1
 119 666 l 1
 119 398 l 1
 191 468 l 2
 197 473 204 476 212 476 c 2
 333 475 l 2
 341 475 348 472 354 467 c 2
 417 407 l 2
 423 401 426 394 426 385 c 2
 426 48 l 1
 366 48 l 1
 366 372 l 1
 321 415 l 1
 224 416 l 1
 119 315 l 1
 120 50 l 1
 60 50 l 1
EndSplineSet
Validated: 1
EndChar

StartChar: i
Encoding: 105 105 136
Width: 536
VWidth: 0
Flags: W
HStem: 49 21G<244 305> 456 20G<244 305> 598 61<244 305>
VStem: 244 61<49 476 598 659>
LayerCount: 2
Back
Fore
SplineSet
244 659 m 1
 305 659 l 1
 305 598 l 1
 244 598 l 1
 244 659 l 1
244 476 m 1
 305 476 l 1
 305 49 l 1
 244 49 l 1
 244 476 l 1
EndSplineSet
Validated: 1
EndChar

StartChar: j
Encoding: 106 106 137
Width: 536
VWidth: 0
Flags: W
HStem: -72.999 59.8974<224.672 323.528> 456.065 20G<366.956 427> 598 61<366 428>
VStem: 366 62<29.3086 475.935 598 659>
LayerCount: 2
Back
Fore
SplineSet
426 16.9346 m 2
 425.982 8.67285 423.182 1.85254 417.388 -4.03711 c 2
 357.388 -65.0371 l 2
 351.391 -71.1338 344.31 -74.0684 335.758 -73.999 c 2
 211.758 -72.999 l 2
 203.381 -72.9316 196.486 -70.0098 190.612 -64.0371 c 2
 130.612 -3.03711 l 1
 173.388 39.0371 l 1
 224.672 -13.1016 l 1
 323.528 -13.8984 l 1
 366.026 29.3086 l 1
 367 476.065 l 1
 427 475.935 l 1
 426 16.9346 l 2
366 659 m 1
 428 659 l 1
 428 598 l 1
 366 598 l 1
 366 659 l 1
EndSplineSet
Validated: 1
EndChar

StartChar: k
Encoding: 107 107 138
Width: 536
VWidth: 0
Flags: W
HStem: 49 21G<122 184> 233 60<184 205> 456 20G<366.328 406> 639 20G<122 184>
VStem: 122 62<49 233 293 659>
LayerCount: 2
Back
Fore
SplineSet
259 262 m 1
 425 91 l 1
 382 50 l 1
 205 233 l 1
 184 233 l 1
 184 49 l 1
 122 49 l 1
 122 659 l 1
 184 659 l 1
 184 293 l 1
 206 293 l 1
 386 476 l 1
 428 434 l 1
 259 262 l 1
EndSplineSet
Validated: 1
EndChar

StartChar: l
Encoding: 108 108 139
Width: 536
VWidth: 0
Flags: W
HStem: 49 60<317 366> 639 20G<244 304>
VStem: 244 60<123 659>
LayerCount: 2
Back
Fore
SplineSet
304 123 m 1
 317 109 l 1
 366 109 l 1
 366 49 l 1
 305 49 l 2
 297 49 290 52 284 58 c 2
 253 89 l 2
 247 95 244 102 244 110 c 2
 244 659 l 1
 304 659 l 1
 304 123 l 1
EndSplineSet
Validated: 1
EndChar

StartChar: m
Encoding: 109 109 140
Width: 536
VWidth: 0
Flags: W
HStem: 49 21G<62 122 244 305 427 487> 415 60<166 203 346 386>
VStem: 62 60<49 372 458 475> 244 61<49 373> 427 60<49 374>
CounterMasks: 1 38
LayerCount: 2
Back
Fore
SplineSet
305 373 m 1
 305 49 l 1
 244 49 l 1
 244 373 l 1
 203 416 l 1
 166 416 l 1
 122 372 l 1
 122 49 l 1
 62 49 l 1
 62 475 l 1
 123 475 l 1
 123 458 l 1
 132 467 l 2
 138 473 145 476 153 476 c 2
 216 476 l 2
 225 476 232 473 238 467 c 2
 274 428 l 1
 312 466 l 2
 318 472 325 475 333 475 c 2
 398 475 l 2
 406 475 413 472 419 466 c 2
 478 407 l 2
 484 401 487 394 487 386 c 2
 487 49 l 1
 427 49 l 1
 427 374 l 1
 386 415 l 1
 346 415 l 1
 305 373 l 1
EndSplineSet
Validated: 1
EndChar

StartChar: n
Encoding: 110 110 141
Width: 536
VWidth: 0
Flags: W
HStem: 417 58<62 111 227 388>
VStem: 125 59<50 373> 431 58<51 376>
LayerCount: 2
Back
Fore
SplineSet
170 442 m 5
 194 466 l 4
 197 469 205 475 215 475 c 4
 400 475 l 4
 405 475 413 474 420 467 c 4
 479 409 l 4
 482 406 488 398 488 388 c 4
 489 51 l 5
 431 50 l 5
 429 376 l 5
 388 417 l 5
 227 417 l 5
 185 373 l 5
 184 50 l 5
 125 50 l 5
 126 385 l 4
 126 388 127 392 129 397 c 5
 111 417 l 5
 62 417 l 5
 62 476 l 5
 123 476 l 4
 133 476 141 471 144 467 c 4
 170 442 l 5
EndSplineSet
Validated: 1
EndChar

StartChar: o
Encoding: 111 111 142
Width: 536
VWidth: 0
Flags: W
HStem: 53 58<164 325> 418 59<164 326>
VStem: 61 58<152 374> 365 59<152 374>
LayerCount: 2
Back
Fore
SplineSet
121 374 m 5
 119 152 l 5
 164 111 l 5
 325 110 l 5
 365 152 l 5
 366 374 l 5
 326 418 l 5
 164 418 l 5
 121 374 l 5
  Spiro
    120.998 374.488 v
    119.242 152.394 v
    163.919 111.207 v
    324.619 109.507 v
    365.281 151.547 v
    366.166 373.516 v
    325.88 417.969 v
    164.479 417.969 v
    0 0 z
  EndSpiro
71 407 m 6
 132 468 l 4
 139 475 148 477 152 477 c 4
 339 477 l 4
 349 477 357 471 361 467 c 4
 417 404 l 4
 423 398 425 390 425 385 c 4
 424 140 l 4
 424 130 419 122 416 119 c 4
 358 60 l 4
 351 52 342 51 337 51 c 4
 152 53 l 4
 143 53 136 57 132 60 c 4
 70 118 l 4
 62 125 61 134 61 140 c 4
 63 387 l 4
 63 397 68 404 71 407 c 6
  Spiro
    71.0809 407.435 [
    131.628 467.981 o
    139.024 473.271 o
    146.442 475.874 o
    152.344 476.562 o
    338.867 476.562 o
    348.247 474.977 o
    355.602 471.242 o
    360.576 466.939 o
    417.217 404.439 o
    421.882 397.557 o
    424.196 390.719 o
    424.805 384.648 o
    423.828 139.531 o
    422.347 130.747 o
    419.052 123.791 o
    415.59 119.28 o
    357.973 59.7102 o
    350.466 54.1704 o
    342.856 51.4631 o
    336.604 50.7829 o
    152.034 52.736 o
    143.866 53.9766 o
    137.312 56.885 o
    132.486 60.4909 o
    69.9862 118.108 o
    64.1677 125.627 o
    61.2907 133.353 o
    60.5478 139.88 o
    62.5009 386.95 o
    64.0442 395.841 o
    67.4526 402.855 o
    0 0 z
  EndSpiro
EndSplineSet
Validated: 1
EndChar

StartChar: p
Encoding: 112 112 143
Width: 536
VWidth: 0
Flags: W
HStem: -134 21G<61 121> 50 59<121 264> 416 57<121 261>
VStem: 61 60<-134 50 109 416> 367 59<213 312>
LayerCount: 2
Back
Fore
SplineSet
61 473 m 5
 273 474 l 4
 277 474 287 473 294 466 c 4
 417 345 l 4
 420 342 426 334 426 324 c 4
 426 201 l 4
 426 196 424 187 417 180 c 4
 297 59 l 4
 294 56 287 50 277 50 c 4
 121 50 l 5
 121 -134 l 5
 61 -134 l 5
 61 473 l 5
121 416 m 5
 121 109 l 5
 264 109 l 5
 367 213 l 5
 367 312 l 5
 261 416 l 5
 121 416 l 5
EndSplineSet
Validated: 1
EndChar

StartChar: q
Encoding: 113 113 144
Width: 536
VWidth: 0
Flags: W
HStem: -72 62<426 487> 109 59<223 366> 416 58<226 366>
VStem: 61 59<272 312> 365 122<-72 -10> 366 60<-10 109 168 416>
LayerCount: 2
Back
Fore
SplineSet
426 473 m 1xf4
 426 -10 l 1xf4
 487 -10 l 1
 487 -72 l 1
 365 -73 l 1xf8
 366 109 l 5
 210 109 l 4
 200 109 193 115 190 118 c 4
 70 239 l 4
 63 246 61 255 61 260 c 4
 61 324 l 0
 61 334 67 342 70 345 c 0
 193 466 l 0
 200 473 210 474 214 474 c 0
 426 473 l 1xf4
366 416 m 1
 226 416 l 1
 120 312 l 1
 120 272 l 5
 223 168 l 5
 366 168 l 5
 366 416 l 1
EndSplineSet
Validated: 1
EndChar

StartChar: r
Encoding: 114 114 145
Width: 536
VWidth: 0
Flags: W
HStem: 49 21G<122.06 182> 415 60<62 113.673 285 384>
VStem: 122 60<50 313> 429 60<354 372>
LayerCount: 2
Back
Fore
SplineSet
182 313 m 1
 182 50 l 1
 122 49 l 9
 123 384 l 26
 123 393 120 399 114 406 c 24
 107 412 101 415 91 415 c 26
 62 415 l 25
 61 475 l 17
 122 476 l 2
 139 476 181 446 182 414 c 2
 182 396 l 1
 251 466 l 2
 257 472 264 475 272 475 c 2
 396 476 l 2
 405 476 412 473 417 467 c 2
 480 406 l 2
 486 400 489 393 489 384 c 2
 489 354 l 1
 429 354 l 1
 429 372 l 1
 384 415 l 1
 285 415 l 1
 182 313 l 1
EndSplineSet
Validated: 1
EndChar

StartChar: s
Encoding: 115 115 146
Width: 536
VWidth: 0
Flags: W
HStem: 50 59.934<165.208 323.782> 416 60<164.857 321.716>
VStem: 366 60<353 372.431>
LayerCount: 2
Back
Fore
SplineSet
366 372.431 m 1
 321.716 416 l 1
 164.857 416 l 1
 136.444 386.166 l 1
 417.572 164.561 l 2
 424.686 158.953 428.458 151.691 428.955 142.646 c 0
 429.452 133.602 426.499 125.972 420.043 119.618 c 2
 357.043 57.6182 l 2
 351.094 51.7627 344.184 48.9541 335.836 49 c 2
 152.836 50 l 2
 144.697 50.0449 137.986 52.7832 132.138 58.4424 c 2
 70.1377 118.442 l 2
 63.9922 124.39 61 131.447 61 140 c 2
 61 168 l 1
 121 168 l 1
 121 152.716 l 1
 165.208 109.934 l 1
 323.782 109.067 l 1
 353.699 138.51 l 1
 73.4277 359.439 l 2
 66.4521 364.938 62.707 372.009 62.0762 380.868 c 0
 61.4453 389.728 64.1504 397.258 70.2754 403.689 c 2
 130.275 466.689 l 2
 136.233 472.945 143.361 476 152 476 c 2
 334 476 l 2
 342.287 476 349.133 473.196 355.04 467.385 c 2
 417.04 406.385 l 2
 423.072 400.449 426 393.463 426 385 c 2
 426 353 l 1
 366 353 l 1
 366 372.431 l 1
EndSplineSet
Validated: 1
EndChar

StartChar: t
Encoding: 116 116 147
Width: 536
VWidth: 0
Flags: W
HStem: 49 60<317 366> 415 61<121 244 304 427> 639 20G<244 304>
VStem: 244 60<123 415 476 659>
LayerCount: 2
Back
Fore
SplineSet
304 123 m 1
 317 109 l 1
 366 109 l 1
 366 49 l 1
 305 49 l 2
 297 49 290 52 284 58 c 2
 253 89 l 2
 247 95 244 102 244 110 c 2
 244 415 l 1
 121 415 l 1
 121 476 l 1
 244 476 l 1
 244 659 l 1
 304 659 l 1
 304 476 l 1
 427 476 l 1
 427 415 l 1
 304 415 l 1
 304 123 l 1
EndSplineSet
Validated: 1
EndChar

StartChar: u
Encoding: 117 117 148
Width: 536
VWidth: 0
Flags: W
HStem: 51 58<163 324 440 489> 456 20G<62 120.123 366.938 426>
VStem: 63 59<150 475> 366 59<153 476>
LayerCount: 2
Back
Fore
SplineSet
381 84 m 5
 357 60 l 4
 354 57 346 51 336 51 c 4
 151 51 l 4
 146 51 138 52 131 59 c 4
 72 117 l 4
 69 120 63 128 63 138 c 4
 62 475 l 5
 120 476 l 5
 122 150 l 5
 163 109 l 5
 324 109 l 5
 366 153 l 5
 367 476 l 5
 426 476 l 5
 425 141 l 4
 425 138 424 134 422 129 c 5
 440 109 l 5
 489 109 l 5
 489 50 l 5
 428 50 l 4
 418 50 410 55 407 59 c 4
 381 84 l 5
EndSplineSet
Validated: 1
EndChar

StartChar: v
Encoding: 118 118 149
Width: 536
VWidth: 0
Flags: W
HStem: 455 20G<62 122 427 487>
VStem: 62 60<391.231 475> 427 60<394.278 475>
LayerCount: 2
Back
Fore
SplineSet
122 391.231 m 1
 273.086 136.64 l 1
 427 394.278 l 1
 427 475 l 1
 487 475 l 1
 487 386 l 2
 487 380.274 485.69 375.53 482.754 370.614 c 2
 298.754 62.6143 l 2
 293.062 53.0859 284.055 47.9834 272.956 48 c 0
 261.857 48.0166 252.865 53.1445 247.201 62.6895 c 2
 66.2012 367.689 l 2
 63.2949 372.587 62 377.306 62 383 c 2
 62 475 l 1
 122 475 l 1
 122 391.231 l 1
EndSplineSet
Validated: 1
EndChar

StartChar: w
Encoding: 119 119 150
Width: 536
VWidth: 0
Flags: W
HStem: 457 19G<61 121 429 489>
VStem: 61 60<151 476> 244 61<211 293> 429 60<154 477>
LayerCount: 2
Back
Fore
SplineSet
305 211 m 2
 395 122 l 1
 429 154 l 1
 429 477 l 1
 489 477 l 1
 489 141 l 2
 489 132 486 125 480 119 c 2
 416 58 l 2
 410 53 402 50 395 50 c 0
 388 50 380 53 374 59 c 2
 274 158 l 1
 173 56 l 2
 167 50 160 46 152 46 c 0
 144 46 137 50 131 56 c 2
 70 118 l 2
 64 124 61 131 61 139 c 2
 61 476 l 1
 121 476 l 1
 121 151 l 1
 152 120 l 1
 244 211 l 2
 244 293 l 1
 305 293 l 1
 305 211 l 2
EndSplineSet
Validated: 1
EndChar

StartChar: x
Encoding: 120 120 151
Width: 536
VWidth: 0
Flags: W
HStem: 48.5 21G<59.5 119.5 427.5 487.5> 455.5 20G<59.5 119.5 427.5 487.5>
VStem: 59.5 60<48.5 67.0254 457.975 475.5> 427.5 60<48.5 67.0254 457.975 475.5>
LayerCount: 2
Back
Fore
SplineSet
273.625 220.125 m 1
 119.5 67.0254 l 1
 119.5 48.5 l 1
 59.5 48.5 l 1
 59.5 79.5 l 2
 59.5 87.9043 62.3848 94.8447 68.3447 100.771 c 2
 231 262.5 l 1
 68.3447 424.229 l 2
 62.3848 430.155 59.5 437.096 59.5 445.5 c 2
 59.5 475.5 l 1
 119.5 475.5 l 1
 119.5 457.975 l 1
 273.875 304.75 l 1
 427.5 457.975 l 1
 427.5 475.5 l 1
 487.5 475.5 l 1
 487.5 445.5 l 2
 487.5 437.096 484.615 430.155 478.655 424.229 c 2
 316.125 262.625 l 1
 478.655 100.771 l 2
 484.61 94.8398 487.5 87.9043 487.5 79.5 c 2
 487.5 48.5 l 1
 427.5 48.5 l 1
 427.5 67.0254 l 1
 273.625 220.125 l 1
EndSplineSet
Validated: 1
EndChar

StartChar: y
Encoding: 121 121 152
Width: 536
VWidth: 0
Flags: W
HStem: 456 20G<62 122 366 426>
VStem: 62 60<274 476> 366 60<212 476>
LayerCount: 2
Back
Fore
SplineSet
232 78 m 1
 71 241 l 2
 65 247 62 254 62 262 c 2
 62 476 l 1
 122 476 l 1
 122 274 l 1
 275 121 l 1
 366 212 l 1
 366 476 l 1
 426 476 l 1
 426 200 l 2
 426 192 423 185 417 179 c 2
 110 -128 l 1
 68 -86 l 1
 232 78 l 1
EndSplineSet
Validated: 1
EndChar

StartChar: z
Encoding: 122 122 153
Width: 536
VWidth: 0
Flags: W
HStem: 49 60<184 488> 415 61<61 366>
LayerCount: 2
Back
Fore
SplineSet
61 476 m 1
 488 476 l 1
 184 109 l 1
 488 109 l 1
 488 49 l 1
 61 49 l 1
 366 415 l 1
 61 415 l 1
 61 476 l 1
EndSplineSet
Validated: 1
EndChar

StartChar: ae
Encoding: 230 230 154
Width: 536
VWidth: 0
Flags: W
HStem: 49 60<165 202 348 487> 231 62<305 430> 294 60<227 245> 415 60<61 201 347 386>
VStem: 61 60<151 190> 245 60<153 231 293 294 354 372> 430 60<293 373>
LayerCount: 2
Back
Fore
SplineSet
245 294 m 1
 227 294 l 1
 121 190 l 1
 121 151 l 1
 165 109 l 1
 202 109 l 1
 245 153 l 1
 245 294 l 1
245 354 m 1
 245 372 l 1
 201 415 l 1
 61 415 l 1
 61 475 l 1
 213 475 l 2
 223 475 231 470 234 467 c 2
 274 428 l 1
 314 467 l 2
 317 470 325 475 335 475 c 2
 399 475 l 2
 403 475 413 474 420 467 c 2
 481 407 l 2
 485 403 490 395 490 385 c 2
 490 232 l 1
 305 231 l 1
 305 152 l 1
 348 109 l 1
 487 109 l 1
 487 49 l 1
 335 49 l 2
 330 49 321 51 314 58 c 2
 275 98 l 1
 236 58 l 2
 229 50 220 49 215 49 c 2
 153 49 l 2
 143 49 135 54 132 57 c 2
 70 117 l 2
 63 124 61 134 61 139 c 2
 61 203 l 2
 61 213 67 221 70 224 c 2
 194 345 l 2
 201 352 210 354 215 354 c 2
 245 354 l 1
305 293 m 1
 430 293 l 1
 430 373 l 1
 386 415 l 1
 347 415 l 1
 305 375 l 1
 305 293 l 1
EndSplineSet
Validated: 1
EndChar

StartChar: oslash
Encoding: 248 248 155
Width: 536
VWidth: 0
Flags: W
HStem: 52.0039 59.8001<224.48 324.624> 416.1 59.899<225.525 325.091>
VStem: 121.625 59.657<210.438 372.522> 366.05 59.95<152.33 311.271>
LayerCount: 2
Back
Fore
SplineSet
355.254 384.687 m 1
 325.091 416.896 l 1
 225.525 416.1 l 1
 181.949 372.522 l 1
 181.282 210.438 l 1
 355.254 384.687 l 1
366.701 311.271 m 1
 196 140.574 l 1
 224.48 111.804 l 1
 324.624 110.202 l 1
 366.05 152.33 l 5
 366.701 311.271 l 1
426.949 371.274 m 1
 426 139.877 l 2
 425.966 131.638 423.168 124.841 417.391 118.966 c 2
 358.391 58.9658 l 2
 352.333 52.8057 345.159 49.8652 336.521 50.0039 c 2
 211.521 52.0039 l 2
 203.409 52.1338 196.733 54.9111 190.963 60.6123 c 2
 153.272 97.8467 l 1
 112.213 56.7871 l 1
 69.7871 99.2129 l 1
 121.625 150.875 l 1
 122 385.123 l 2
 122.014 393.453 124.896 400.322 130.787 406.213 c 2
 191.787 467.213 l 2
 197.647 473.073 204.472 475.933 212.76 475.999 c 2
 337.76 476.999 l 2
 346.576 477.069 353.869 473.942 359.896 467.507 c 2
 397.747 427.093 l 1
 438.787 468.213 l 1
 481.213 425.787 l 1
 426.949 371.274 l 1
EndSplineSet
Validated: 1
EndChar

StartChar: aring
Encoding: 229 229 156
Width: 536
VWidth: 0
Flags: W
HStem: 49 60<165 367 426 487> 234 59<166 367> 415 59<122 326> 516 60<258.194 293.802> 612 60<258.198 293.806>
VStem: 64 59<153 190> 198 60<576.198 611.806> 294 60<576.194 611.802> 367 59<109 233 292 373>
LayerCount: 2
Back
Fore
SplineSet
276 672 m 4
 319.085 672 354 637.058 354 594 c 4
 354 550.915 319.058 516 276 516 c 4
 232.915 516 198 550.942 198 594 c 4
 198 637.085 232.942 672 276 672 c 4
258 594 m 4
 258 584.065 266.093 576 276 576 c 4
 285.935 576 294 584.093 294 594 c 4
 294 603.935 285.907 612 276 612 c 4
 266.065 612 258 603.907 258 594 c 4
367 109 m 1
 367 233 l 1
 166 234 l 1
 123 190 l 1
 123 153 l 1
 165 110 l 1
 367 109 l 1
426 108 m 1
 488 107 l 1
 487 49 l 1
 152 52 l 0
 142 52 134 58 131 61 c 0
 73 121 l 0
 66 128 64 138 64 142 c 0
 64 202 l 0
 64 212 70 220 73 223 c 0
 132 284 l 0
 139 291 148 293 153 293 c 0
 368 292 l 1
 368 373 l 1
 326 415 l 1
 122 418 l 1
 122 477 l 1
 338 474 l 0
 348 474 356 468 359 465 c 0
 418 405 l 0
 425 398 427 390 427 385 c 0
 426 108 l 1
EndSplineSet
Validated: 1
EndChar

StartChar: division
Encoding: 65542 -1 157
Width: 536
VWidth: 0
Flags: W
HStem: 79 122<214 336> 293 61<61 488> 445 122<214 336>
VStem: 214 122<79 201 445 567>
LayerCount: 2
Back
Fore
SplineSet
214 567 m 1
 336 567 l 1
 336 445 l 1
 214 445 l 1
 214 567 l 1
61 354 m 1
 488 354 l 1
 488 293 l 1
 61 293 l 1
 61 354 l 1
214 201 m 1
 336 201 l 1
 336 79 l 1
 214 79 l 1
 214 201 l 1
EndSplineSet
Validated: 1
EndChar

StartChar: fm
Encoding: 65543 -1 158
Width: 536
VWidth: 0
Flags: W
HStem: 354 122<244 366> 537 122<61 488>
VStem: 244 122<354 476>
LayerCount: 2
Back
Fore
SplineSet
61 659 m 1
 488 659 l 1
 488 537 l 1
 61 537 l 1
 61 659 l 1
244 476 m 1
 366 476 l 1
 366 354 l 1
 244 354 l 1
 244 476 l 1
244 231 m 1
 366 231 l 1
 343 79 271 10 122 -13 c 1
 244 231 l 1
EndSplineSet
Validated: 1
EndChar

StartChar: dup
Encoding: 65544 -1 159
Width: 536
VWidth: 0
Flags: W
HStem: 49 21G<244 305> 457 20G<244 305> 537 122<61 488>
VStem: 244 61<49 233 293 477>
LayerCount: 2
Back
Fore
SplineSet
244 233 m 1
 305 233 l 1
 305 49 l 1
 244 49 l 1
 244 233 l 1
244 477 m 1
 305 477 l 1
 305 293 l 1
 244 293 l 1
 244 477 l 1
438 407 m 1
 481 365 l 1
 382 265 l 1
 483 161 l 1
 440 119 l 1
 297 265 l 1
 438 407 l 1
112 407 m 1
 253 265 l 1
 110 119 l 1
 68 161 l 1
 169 265 l 1
 70 365 l 1
 112 407 l 1
61 659 m 1
 488 659 l 1
 488 537 l 1
 61 537 l 1
 61 659 l 1
EndSplineSet
Validated: 1
EndChar

StartChar: A
Encoding: 65 65 160
Width: 536
VWidth: 0
Flags: W
HStem: 49 21G<60 120.328 427 487> 232 61<124 427> 577 20G<270 278>
VStem: 64 60<49 232 293 374> 427 60<49 232 293 373>
LayerCount: 2
Back
Fore
SplineSet
123 232 m 1
 120 49 l 1
 60 49 l 1
 64 387 l 2
 64 396 70 404 73 407 c 2
 253 588 l 2
 259 595 267 597 273 597 c 0
 283 597 291 593 296 588 c 2
 479 406 l 2
 486 399 487 390 487 385 c 2
 487 49 l 1
 427 49 l 1
 428 232 l 1
 123 232 l 1
124 293 m 1
 427 293 l 1
 427 373 l 1
 274 525 l 1
 124 374 l 1
 124 293 l 1
EndSplineSet
Validated: 1
EndChar

StartChar: B
Encoding: 66 66 161
Width: 536
VWidth: 0
Flags: W
HStem: 49 60<61 122 183 323> 293 61<183 323> 538 60<61 122 183 325>
VStem: 122 61<109 293 354 538>
CounterMasks: 1 e0
LayerCount: 2
Back
Fore
SplineSet
122 109 m 9
 122 538 l 17
 61 538 l 1
 61 598 l 1
 338 598 l 2
 348 598 356 592 360 589 c 2
 480 464 l 2
 486 458 488 451 488 444 c 0
 488 434 484 426 479 421 c 2
 378 324 l 1
 479 225 l 2
 485 219 488 211 488 205 c 0
 488 196 484 188 479 183 c 2
 357 58 l 2
 350 51 341 49 336 49 c 2
 61 49 l 1
 61 109 l 1
 122 109 l 9
324 293 m 9
 183 293 l 25
 183 109 l 17
 323 109 l 1
 416 203 l 1
 324 293 l 9
323 354 m 17
 416 444 l 1
 325 538 l 1
 183 538 l 9
 183 354 l 25
 323 354 l 17
EndSplineSet
Validated: 1
EndChar

StartChar: C
Encoding: 67 67 162
Width: 536
VWidth: 0
Flags: W
HStem: 50.001 59.898<287.384 384.25> 536.1 59.899<286.432 384.818>
VStem: 62.0039 59.7941<272.771 371.678>
LayerCount: 2
Back
Fore
SplineSet
480.04 527.385 m 5
 437.96 484.615 l 5
 384.818 536.9 l 5
 286.432 536.1 l 5
 120.203 371.678 l 5
 121.798 272.771 l 5
 287.384 109.899 l 5
 384.25 109.106 l 5
 436.284 163.698 l 5
 479.716 122.302 l 5
 418.716 58.3019 l 4
 415.039 54.4437 407.122 48.916 396.754 49.001 c 4
 274.754 50.001 l 4
 270.253 50.0379 260.954 51.736 253.963 58.6122 c 4
 70.9628 238.612 l 4
 67.653 241.868 62.1637 249.61 62.0039 259.516 c 4
 60.0039 383.516 l 4
 59.921 388.659 61.6167 398.122 68.903 405.329 c 4
 252.903 587.329 l 4
 256.137 590.527 263.917 595.919 273.756 595.999 c 4
 396.756 596.999 l 4
 401.529 597.038 410.912 595.398 418.04 588.385 c 4
 480.04 527.385 l 5
EndSplineSet
Validated: 1
EndChar

StartChar: D
Encoding: 68 68 163
Width: 536
VWidth: 0
Flags: W
HStem: 49.3334 60.2956<61.4062 122.088 183.131 323.592> 537.704 60.296<61.406 122.088 183.043 324.065>
VStem: 122.088 61.043<109.629 537.704> 427.299 60.034<213.108 433.018>
LayerCount: 2
Back
Fore
SplineSet
183.131 109.629 m 21
 323.592 109.97 l 5
 427.299 213.108 l 5
 426.7 433.018 l 5
 324.065 537.364 l 5
 183.043 537.704 l 13
 183.131 109.629 l 21
122.088 537.853 m 21
 61.2607 538 l 5
 61.406 598 l 5
 336.739 597.333 l 4
 346.807 597.309 354.638 591.844 358.054 588.37 c 4
 478.054 466.371 l 4
 484.976 459.333 486.654 450.006 486.667 445.415 c 4
 487.333 200.748 l 4
 487.361 190.685 481.938 182.826 478.488 179.395 c 4
 357.155 58.7284 l 4
 350.107 51.7197 340.76 50.0115 336.073 50.0001 c 4
 61.4062 49.3334 l 5
 61.2605 109.333 l 5
 122.088 109.48 l 13
 122.088 537.853 l 21
EndSplineSet
Validated: 1
EndChar

StartChar: E
Encoding: 69 69 164
Width: 536
VWidth: 0
Flags: W
HStem: 49 60<122 488> 293 61<122 366> 537 61<122 488>
VStem: 61 61<109 293 354 537>
LayerCount: 2
Back
Fore
SplineSet
61 598 m 1
 488 598 l 1
 488 537 l 1
 122 537 l 1
 122 354 l 1
 366 354 l 1
 366 293 l 1
 122 293 l 1
 122 109 l 1
 488 109 l 1
 488 49 l 1
 61 49 l 1
 61 598 l 1
EndSplineSet
Validated: 1
EndChar

StartChar: F
Encoding: 70 70 165
Width: 536
VWidth: 0
Flags: W
HStem: 49 21G<61 122> 293 61<122 428> 537 61<122 488>
VStem: 61 61<49 293 354 537>
LayerCount: 2
Back
Fore
SplineSet
61 598 m 1
 488 598 l 1
 488 537 l 1
 122 537 l 1
 122 354 l 1
 428 354 l 1
 428 293 l 1
 122 293 l 1
 122 49 l 1
 61 49 l 1
 61 598 l 1
EndSplineSet
Validated: 1
EndChar

StartChar: G
Encoding: 71 71 166
Width: 536
VWidth: 0
Flags: W
HStem: 51 60<225 366> 232 61<244 366 426 489> 538 60<225 325>
VStem: 63 60<212 435> 366 59<111 232>
LayerCount: 2
Back
Fore
SplineSet
244 293 m 1
 489 293 l 1
 489 233 l 1
 426 232 l 1
 425 80 l 0
 425 69 416 51 395 51 c 0
 213 51 l 0
 208 51 199 52 192 59 c 0
 72 178 l 0
 69 181 63 189 63 199 c 0
 63 447 l 0
 63 452 64 461 71 468 c 0
 191 589 l 0
 194 593 202 598 212 598 c 0
 337 598 l 0
 342 598 352 596 359 589 c 0
 419 528 l 1
 376 486 l 1
 325 538 l 1
 225 538 l 1
 123 435 l 1
 123 212 l 1
 225 111 l 1
 366 111 l 1
 366 232 l 1
 244 231 l 1
 244 293 l 1
EndSplineSet
Validated: 1
EndChar

StartChar: H
Encoding: 72 72 167
Width: 536
VWidth: 0
Flags: W
HStem: 49 21G<61 122 428 488> 293 61<122 428> 578 20G<61 122 428 488>
VStem: 61 61<49 293 354 598> 428 60<49 293 354 598>
LayerCount: 2
Back
Fore
SplineSet
61 598 m 1
 122 598 l 1
 122 354 l 1
 428 354 l 1
 428 598 l 1
 488 598 l 1
 488 49 l 1
 428 49 l 1
 428 293 l 1
 122 293 l 1
 122 49 l 1
 61 49 l 1
 61 598 l 1
EndSplineSet
Validated: 1
EndChar

StartChar: I
Encoding: 73 73 168
Width: 536
VWidth: 0
Flags: W
HStem: 48.6667 61.0003<183.333 244.333 305.333 366> 537 61<183.667 244 305.333 366>
VStem: 183.333 182.667<48.6667 109 537 597.667>
LayerCount: 2
Back
Fore
SplineSet
183.667 598 m 29
 366 597.667 l 25
 366 537 l 25
 305.333 536.667 l 25
 305.333 109.333 l 25
 366.333 109 l 25
 366 48.3333 l 25
 183.333 48.6667 l 25
 183.333 109.667 l 25
 244.333 109.333 l 25
 244 536.667 l 25
 183 537 l 25
 183.667 598 l 29
EndSplineSet
Validated: 1
EndChar

StartChar: J
Encoding: 74 74 169
Width: 536
VWidth: 0
Flags: W
HStem: 50 60<164.13 263.28> 537.143 60.57<244.286 305 365 427.143>
VStem: 62.0069 59.7211<150.989 230.355> 305 60<153.135 537.143>
LayerCount: 2
Back
Fore
SplineSet
60.0069 230.355 m 1
 119.993 231.645 l 1
 121.728 150.989 l 1
 164.13 110 l 1
 263.28 110 l 1
 305 153.135 l 1
 305 537.143 l 1
 244.286 536.857 l 1
 244.283 598.002 l 1
 427.428 597.713 l 1
 427.143 537.143 l 5
 365 537.143 l 1
 365 141 l 0
 365 136.501 363.379 127.19 356.564 120.143 c 0
 297.564 59.1432 l 0
 294.048 55.5081 286.193 50 276 50 c 0
 152 50 l 0
 147.506 50 138.195 51.6192 131.149 58.4303 c 0
 71.1493 116.43 l 0
 67.772 119.695 62.2208 127.411 62.0069 137.355 c 0
 60.0069 230.355 l 1
EndSplineSet
Validated: 1
EndChar

StartChar: K
Encoding: 75 75 170
Width: 536
VWidth: 0
Flags: W
HStem: 49 21G<60 123 428 488> 578 20G<60 123 427 487>
VStem: 60 63<49 187.845 274.155 598> 428 60<49 67.5732 578.402 597>
LayerCount: 2
Back
Fore
SplineSet
123 187.845 m 5
 123 49 l 1
 60 49 l 1
 60 598 l 1
 123 598 l 1
 122.999 274.155 l 1
 427 578.402 l 1
 427 597 l 1
 487 597 l 1
 487 566 l 2
 487 557.64 484.145 550.736 478.242 544.815 c 2
 257.298 323.199 l 1
 479.213 101.213 l 2
 485.133 95.291 488 88.375 488 80 c 2
 488 49 l 1
 428 49 l 1
 428 67.5732 l 1
 214.648 280.501 l 1
 123 187.845 l 5
EndSplineSet
Validated: 1
EndChar

StartChar: L
Encoding: 76 76 171
Width: 536
VWidth: 0
Flags: W
HStem: 49 60<122 488> 578 20G<61 122>
VStem: 61 61<109 598>
LayerCount: 2
Back
Fore
SplineSet
61 598 m 1
 122 598 l 1
 122 109 l 1
 488 109 l 1
 488 49 l 1
 61 49 l 1
 61 598 l 1
EndSplineSet
Validated: 1
EndChar

StartChar: M
Encoding: 77 77 172
Width: 536
VWidth: 0
Flags: W
HStem: 49 21G<61 121> 578 20G<453.5 459>
VStem: 61 60<49 494> 244 61<294 370> 427 60<47 496>
LayerCount: 2
Back
Fore
SplineSet
305 370 m 2
 305 294 l 1
 244 294 l 1
 244 370 l 2
 121 494 l 1
 121 49 l 1
 61 49 l 1
 61 566 l 2
 61 579 68 589 80 594 c 0
 84 596 87 596 91 596 c 0
 98 596 106 593 112 587 c 2
 273 426 l 1
 436 589 l 2
 442 595 450 598 457 598 c 0
 461 598 464 598 468 596 c 0
 480 591 487 581 487 568 c 2
 487 47 l 1
 427 47 l 1
 427 496 l 1
 305 370 l 2
EndSplineSet
Validated: 1
EndChar

StartChar: N
Encoding: 78 78 173
Width: 536
VWidth: 0
Flags: W
HStem: 48 21G<61 122> 578 20G<61 142 428 488>
VStem: 61 61<49 508> 428 60<50 200 292 598>
LayerCount: 2
Back
Fore
SplineSet
61 49 m 29
 61 598 l 25
 122 598 l 25
 428 292 l 25
 428 598 l 25
 488 598 l 25
 488 50 l 25
 428 50 l 25
 428 200 l 25
 122 508 l 25
 122 48 l 25
 61 49 l 29
EndSplineSet
Validated: 1
EndChar

StartChar: O
Encoding: 79 79 174
Width: 536
VWidth: 0
Flags: W
HStem: 50 60<163.125 384.719> 537.947 60.053<164.122 385.235>
VStem: 62.0004 60.0686<149.664 494.236> 428 60<152.572 492.861>
LayerCount: 2
Back
Fore
SplineSet
123.937 494.236 m 5
 122.069 149.664 l 5
 163.125 110 l 5
 384.719 110 l 5
 428 152.572 l 5
 428 492.861 l 5
 385.235 537.051 l 5
 164.122 537.947 l 5
 123.937 494.236 l 5
71.915 526.304 m 6
 128.915 588.304 l 4
 136.036 596.049 145.541 598.022 151.121 598 c 4
 398.121 597 l 4
 408.264 596.959 416.093 591.443 419.558 587.863 c 4
 479.558 525.863 l 4
 486.378 518.816 488 509.503 488 505 c 4
 488 140 l 4
 488 129.904 482.54 122.057 479.037 118.612 c 4
 418.037 58.6122 l 4
 410.977 51.6679 401.636 50 397 50 c 4
 151 50 l 4
 141.204 50 133.384 55.3051 130.156 58.4243 c 4
 71.1556 115.424 l 4
 63.7762 122.553 61.9725 132.001 62.0004 137.163 c 4
 64.0004 506.163 l 4
 64.0504 515.388 68.1463 522.205 71.915 526.304 c 6
EndSplineSet
Validated: 1
EndChar

StartChar: P
Encoding: 80 80 175
Width: 536
VWidth: 0
Flags: W
HStem: 48 21G<60 122> 231.167 61.5<122 324.372> 536.999 60.998<122 324.604>
VStem: 60 62<48 231.167 292.667 536.999> 427.808 60.188<398.087 437.233>
LayerCount: 2
Back
Fore
SplineSet
121.833 292.667 m 5
 324.372 292.941 l 5
 427.808 398.087 l 5
 427.196 437.233 l 5
 324.604 538.114 l 5
 122 536.999 l 5
 121.833 292.667 l 5
122 231.167 m 5
 122 48 l 5
 60 48 l 5
 60 597.997 l 5
 337.28 597.999 l 6
 345.463 597.999 352.199 595.128 358.034 589.391 c 6
 478.034 471.391 l 6
 483.95 465.573 486.866 458.765 486.996 450.469 c 6
 487.996 386.469 l 6
 488.128 378.015 485.316 370.988 479.387 364.961 c 6
 358.387 241.961 l 6
 352.486 235.963 345.553 233.071 337.14 233 c 6
 122 231.167 l 5
EndSplineSet
Validated: 1
EndChar

StartChar: Q
Encoding: 81 81 176
Width: 536
VWidth: 0
Flags: W
HStem: 52 60<226 274> 536 60<226 324>
VStem: 63 60<214 434> 245 60<175 232> 425 60<213 432>
LayerCount: 2
Back
Fore
SplineSet
380 83 m 1
 481 -26 l 1
 437 -66 l 1
 329 53 l 1
 214 52 l 2
 206 52 199 55 193 61 c 2
 72 180 l 2
 66 186 63 193 63 201 c 2
 64 446 l 2
 64 454 67 461 73 467 c 2
 192 587 l 2
 198 593 205 596 213 596 c 2
 337 596 l 2
 345 596 352 593 358 587 c 2
 478 465 l 2
 484 459 487 452 487 444 c 2
 485 200 l 2
 485 191 482 185 476 179 c 2
 380 83 l 1
337 124 m 5
 425 213 l 1
 427 432 l 1
 324 536 l 1
 226 536 l 1
 124 434 l 1
 123 214 l 1
 226 112 l 1
 274 112 l 1
 249 152 l 2
 246 157 245 161 245 167 c 2
 245 232 l 1
 305 232 l 1
 305 175 l 1
 337 124 l 5
EndSplineSet
Validated: 1
EndChar

StartChar: R
Encoding: 82 82 177
Width: 536
VWidth: 0
Flags: W
HStem: 49 21G<61 122 427 487> 294 60<121 200 286 386> 537 60<121 385>
VStem: 61 60<49 294 354 537> 428 60<49 67 396 494>
LayerCount: 2
Back
Fore
SplineSet
286 294 m 1
 478 100 l 2
 484 94 487 87 487 79 c 2
 487 49 l 1
 427 49 l 1
 427 67 l 1
 200 294 l 1
 121 294 l 1
 122 49 l 1
 61 49 l 1
 61 597 l 1
 397 597 l 2
 405 597 412 594 418 588 c 2
 479 528 l 2
 485 522 488 515 488 507 c 2
 488 384 l 2
 488 376 485 369 479 363 c 2
 420 303 l 2
 414 297 407 294 399 294 c 2
 286 294 l 1
121 354 m 1
 386 354 l 1
 428 396 l 1
 428 494 l 1
 385 537 l 1
 121 537 l 1
 121 354 l 1
EndSplineSet
Validated: 1
EndChar

StartChar: S
Encoding: 83 83 178
Width: 536
VWidth: 0
Flags: W
HStem: 48 60.051<165.376 386.78> 476 21G<429 489> 536 60<168.427 388.573>
VStem: 65 60<151.427 170.5 460.921 492.573> 427 60<152.694 184.079 476 495.573>
LayerCount: 2
Back
Fore
SplineSet
429 495.573 m 1
 388.573 536 l 1
 168.427 536 l 1
 125 492.573 l 1
 125 460.921 l 1
 473.814 224.845 l 2
 482.474 218.984 487 210.456 487 200 c 2
 487 141 l 2
 487 133.079 484.446 126.527 479.085 120.696 c 2
 422.085 58.6963 l 2
 416.139 52.2285 408.907 49.0352 400.121 49 c 2
 153.121 48 l 2
 144.702 47.9658 137.74 50.834 131.787 56.7871 c 2
 70.7871 117.787 l 2
 64.8652 123.709 62 130.625 62 139 c 2
 62 170.5 l 1
 122 170.5 l 1
 122 151.427 l 1
 165.376 108.051 l 1
 386.78 108.946 l 1
 427 152.694 l 1
 427 184.079 l 1
 78.1855 420.155 l 2
 69.5264 426.016 65 434.544 65 445 c 2
 65 505 l 2
 65 513.375 67.8652 520.291 73.7871 526.213 c 2
 134.787 587.213 l 2
 140.709 593.135 147.625 596 156 596 c 2
 401 596 l 2
 409.375 596 416.291 593.135 422.213 587.213 c 2
 480.213 529.213 l 2
 486.135 523.291 489 516.375 489 508 c 2
 489 476 l 1
 429 476 l 1
 429 495.573 l 1
EndSplineSet
Validated: 1
EndChar

StartChar: T
Encoding: 84 84 179
Width: 536
VWidth: 0
Flags: W
HStem: 49 21G<244 305> 537 61<61 244 305 488>
VStem: 244 61<49 537>
LayerCount: 2
Back
Fore
SplineSet
61 598 m 1
 488 598 l 1
 488 537 l 1
 305 537 l 1
 305 49 l 1
 244 49 l 1
 244 537 l 1
 61 537 l 1
 61 598 l 1
EndSplineSet
Validated: 1
EndChar

StartChar: U
Encoding: 85 85 180
Width: 536
VWidth: 0
Flags: W
HStem: 50 60<163.859 386.311> 577.421 20G<61.3335 121.391 427.304 487.333>
VStem: 62.6668 59.9642<151.697 597.246> 426.684 59.983<153.19 597.956>
LayerCount: 2
Back
Fore
SplineSet
61.3335 597.246 m 5
 121.333 597.421 l 5
 122.631 151.697 l 5
 163.859 110 l 5
 386.311 110 l 5
 426.684 153.19 l 5
 427.333 598.044 l 5
 487.333 597.956 l 5
 486.667 141.29 l 4
 486.66 137.086 485.125 127.846 478.582 120.847 c 4
 421.249 59.5135 l 4
 417.591 55.6002 409.718 50 399.333 50 c 4
 151.333 50 l 4
 146.465 50 137.078 51.7494 130.001 58.907 c 4
 71.2715 118.303 l 5
 68.1468 121.499 62.6956 129.352 62.6668 139.246 c 4
 61.3335 597.246 l 5
EndSplineSet
Validated: 1
EndChar

StartChar: V
Encoding: 86 86 181
Width: 536
VWidth: 0
Flags: W
HStem: 48 21G<266.5 279.5> 578 20G<59 119.471 428 488>
VStem: 61 60<513 596> 428 60<512 598>
LayerCount: 2
Back
Fore
SplineSet
121 513 m 1
 273 155 l 1
 428 512 l 1
 428 598 l 1
 488 598 l 1
 488 506 l 2
 488 502 487 498 486 494 c 2
 301 66 l 2
 296 55 286 48 273 48 c 0
 260 48 250 55 245 66 c 2
 63 495 l 2
 62 499 61 502 61 506 c 2
 59 596 l 1
 119 598 l 1
 121 513 l 1
EndSplineSet
Validated: 1
EndChar

StartChar: W
Encoding: 87 87 182
Width: 536
VWidth: 0
Flags: W
HStem: 48 21G<148 155.5 392.5 400> 577 20G<61 121.045 427 487>
VStem: 62 60<150 597> 244 60<213 352> 427 60<151 598>
LayerCount: 2
Back
Fore
SplineSet
273 157 m 1
 173 57 l 2
 167 51 159 48 152 48 c 0
 144 48 137 51 131 57 c 2
 71 117 l 2
 65 123 62 130 62 138 c 2
 61 597 l 1
 121 597 l 1
 122 150 l 1
 152 121 l 1
 244 213 l 1
 244 352 l 1
 304 352 l 1
 304 211 l 1
 396 121 l 1
 427 151 l 1
 427 598 l 1
 487 598 l 1
 487 138 l 2
 487 129 484 122 478 116 c 2
 417 57 l 2
 411 52 404 49 396 49 c 0
 389 49 381 52 375 58 c 2
 273 157 l 1
EndSplineSet
Validated: 1
EndChar

StartChar: X
Encoding: 88 88 183
Width: 536
VWidth: 0
Flags: W
HStem: 578.003 20G<62.9971 122.998 427.999 488>
VStem: 62.9971 59.9999<50 126.669 520.331 598.001> 428 60<50 126.669 520.331 598.001>
LayerCount: 2
Back
Fore
SplineSet
275.488 280.832 m 5
 122.997 126.669 l 1
 122.997 50 l 1
 62.9971 50 l 1
 62.9971 139 l 2
 62.9971 147.315 65.8203 154.186 71.6689 160.098 c 2
 233.3 323.498 l 1
 71.6719 486.902 l 2
 65.8232 492.814 63 499.684 63 507.999 c 2
 62.9971 598.001 l 1
 122.997 598.003 l 1
 123 520.331 l 1
 275.505 366.166 l 1
 427.997 520.331 l 1
 428 598.003 l 1
 488 598.001 l 1
 487.997 507.999 l 2
 487.997 499.684 485.173 492.814 479.325 486.902 c 2
 317.693 323.5 l 1
 479.328 160.098 l 2
 485.175 154.187 488 147.315 488 139 c 2
 488 50 l 1
 428 50 l 1
 428 126.669 l 1
 275.488 280.832 l 5
EndSplineSet
Validated: 1
EndChar

StartChar: Y
Encoding: 89 89 184
Width: 536
VWidth: 0
Flags: W
HStem: 48.7273 21G<244.182 305.182> 578 20G<62.5 122.5 428.5 488.5>
VStem: 62.5 60<578.522 598> 244.182 61<48.7273 371> 428.5 60<579.854 598>
LayerCount: 2
Back
Fore
SplineSet
305.182 371 m 5
 305.182 48.7273 l 1
 244.182 48.7273 l 1
 244.182 371 l 1
 71.4033 544.671 l 2
 65.4551 550.649 62.5 557.566 62.5 566 c 2
 62.5 598 l 1
 122.5 598 l 1
 122.5 578.522 l 1
 276.297 426.397 l 1
 428.5 579.854 l 1
 428.5 598 l 1
 488.5 598 l 1
 488.5 567.5 l 2
 488.5 559.17 485.678 552.277 479.8 546.374 c 2
 305.182 371 l 5
EndSplineSet
Validated: 1
EndChar

StartChar: Z
Encoding: 90 90 185
Width: 536
VWidth: 0
Flags: W
HStem: 49 60.5<122 487.5> 537 61<61.25 427>
VStem: 62 60<109.5 128.573> 427 60<518.427 537>
LayerCount: 2
Back
Fore
SplineSet
487 506 m 2
 487 497.625 484.135 490.709 478.213 484.787 c 2
 122 128.573 l 1
 122 109.5 l 1
 488 109.5 l 1
 487.5 49.5 l 5
 62 49 l 1
 62 141 l 2
 62 149.375 64.8652 156.291 70.7871 162.213 c 2
 427 518.427 l 1
 427 537 l 1
 61 537 l 1
 61.25 598 l 1
 487.001 597.835 l 1
 487 506 l 2
EndSplineSet
Validated: 1
EndChar

StartChar: AE
Encoding: 198 198 186
Width: 536
VWidth: 0
Flags: W
HStem: 49 60<366 488> 231 62<122 305> 293 61<366 488> 537 61<366 488>
VStem: 60 62<49 231 293 374> 305 183<49 109 293 354> 305 61<109 231 354 537>
LayerCount: 2
Back
Fore
SplineSet
306 537 m 1xdc
 122 374 l 1
 122 293 l 1
 305 293 l 1
 306 537 l 1xdc
61 49 m 1
 61 121 60 191 60 256 c 0
 60 299 60 340 62 378 c 1
 62 406 74 420 94 438 c 2
 240 570 l 2
 256 584 266 593 280 598 c 1
 384 598 408 598 488 598 c 1
 488 537 l 1xdc
 366 537 l 1
 366 354 l 1xba
 488 354 l 1
 488 293 l 1xbc
 366 293 l 1
 366 109 l 1xba
 488 109 l 1
 488 49 l 1
 305 49 l 1xbc
 305 231 l 1xda
 122 231 l 1
 122 49 l 1
 61 49 l 1
EndSplineSet
Validated: 1
EndChar

StartChar: Ooblique
Encoding: 216 216 187
Width: 536
VWidth: 0
Flags: W
HStem: 50 60<163.125 384.719> 537.947 60.053<164.122 385.235>
VStem: 62.0004 60.4326<216.75 494.236> 428 60<152.572 432.25>
LayerCount: 2
Back
Fore
SplineSet
428 432.25 m 1
 132.5 139.587 l 1
 163.125 110 l 1
 384.719 110 l 1
 428 152.572 l 5
 428 432.25 l 1
415.405 505.875 m 1
 385.235 537.051 l 1
 164.122 537.947 l 1
 123.937 494.236 l 1
 122.433 216.75 l 1
 415.405 505.875 l 1
71.915 526.304 m 2
 128.915 588.304 l 0
 136.036 596.049 145.541 598.022 151.121 598 c 0
 398.121 597 l 0
 408.264 596.959 416.093 591.443 419.558 587.863 c 0
 479.558 525.863 l 0
 486.378 518.816 488 509.503 488 505 c 0
 488 140 l 0
 488 129.904 482.54 122.057 479.037 118.612 c 0
 418.037 58.6122 l 0
 410.977 51.6679 401.636 50 397 50 c 0
 151 50 l 0
 141.204 50 133.384 55.3051 130.156 58.4243 c 0
 71.1556 115.424 l 0
 63.7762 122.553 61.9725 132.001 62.0004 137.163 c 0
 64.0004 506.163 l 0
 64.0504 515.388 68.1463 522.205 71.915 526.304 c 2
EndSplineSet
Validated: 1
EndChar

StartChar: Aring
Encoding: 197 197 188
Width: 536
VWidth: 0
Flags: W
HStem: 49 21G<60 120.328 427 487> 232 61<124 427> 577 20G<270 278> 617 60<258.207 293.793> 713 60<258.207 293.793>
VStem: 64 60<49 232 293 374> 198 60<677.207 712.793> 294 60<677.207 712.793> 427 60<49 232 293 373>
LayerCount: 2
Back
Fore
SplineSet
276 773 m 0
 319 773 354 738 354 695 c 0
 354 652 319 617 276 617 c 0
 233 617 198 652 198 695 c 0
 198 738 233 773 276 773 c 0
258 695 m 0
 258 685 266 677 276 677 c 0
 286 677 294 685 294 695 c 0
 294 705 286 713 276 713 c 0
 266 713 258 705 258 695 c 0
123 232 m 1
 120 49 l 1
 60 49 l 1
 64 387 l 2
 64 396 70 404 73 407 c 2
 253 588 l 2
 259 595 267 597 273 597 c 0
 283 597 291 593 296 588 c 2
 479 406 l 2
 486 399 487 390 487 385 c 2
 487 49 l 1
 427 49 l 1
 428 232 l 1
 123 232 l 1
124 293 m 1
 427 293 l 1
 427 373 l 1
 274 525 l 1
 124 374 l 1
 124 293 l 1
EndSplineSet
Validated: 1
EndChar

StartChar: Ccedilla
Encoding: 199 199 189
Width: 536
VWidth: 0
Flags: W
HStem: -72 60<123 294> 50 60<287 317 378 384> 536 60<286 385>
VStem: 62 60<273 372>
LayerCount: 2
Back
Fore
SplineSet
378 49 m 1
 366 -17 l 2
 364 -24 362 -29 357 -33 c 2
 327 -63 l 2
 321 -69 314 -72 306 -72 c 2
 123 -72 l 1
 123 -12 l 1
 294 -12 l 1
 308 3 l 1
 317 50 l 1
 275 50 l 0
 270 50 261 52 254 59 c 0
 71 239 l 0
 68 242 62 250 62 260 c 0
 60 384 l 0
 60 389 62 398 69 405 c 0
 253 587 l 0
 256 591 264 596 274 596 c 0
 397 597 l 0
 402 597 411 595 418 588 c 0
 480 527 l 1
 438 485 l 1
 385 537 l 1
 286 536 l 1
 120 372 l 1
 122 273 l 1
 287 110 l 1
 384 109 l 1
 436 164 l 1
 480 122 l 1
 419 58 l 0
 415 54 407 49 397 49 c 0
 378 49 l 1
EndSplineSet
Validated: 1
EndChar

StartChar: semicolon
Encoding: 59 59 190
Width: 536
VWidth: 0
Flags: W
HStem: 293 122<244 366>
VStem: 244 122<107.091 170.727 293 415>
LayerCount: 2
Back
Fore
SplineSet
365.504 82.5987 m 6
 365.506 77.8235 364.982 73.0347 363.58 68.4702 c 4
 362.238 64.1042 360.482 59.8646 358.364 55.8182 c 4
 356.148 51.5867 353.156 47.8094 349.774 44.4369 c 6
 234.118 -70.8904 l 5
 151.166 7.9479 l 5
 244.182 107.091 l 5
 244.182 170.727 l 5
 365.455 170.727 l 5
 365.504 82.5987 l 6
  Spiro
    365.504 82.5987 ]
    363.58 68.4702 o
    358.364 55.8182 o
    349.774 44.4369 [
    234.118 -70.8904 v
    151.166 7.9479 v
    244.182 107.091 v
    244.182 170.727 v
    365.455 170.727 v
    0 0 z
  EndSpiro
244 415 m 1
 366 415 l 1
 366 293 l 1
 244 293 l 1
 244 415 l 1
EndSplineSet
Validated: 1
EndChar

StartChar: asterisk
Encoding: 42 42 191
Width: 536
VWidth: 0
Flags: W
HStem: 578 20G<244 305>
VStem: 244 61<170 354 414 598>
LayerCount: 2
Back
Fore
SplineSet
244 354 m 1
 305 354 l 1
 305 170 l 1
 244 170 l 1
 244 354 l 1
244 598 m 1
 305 598 l 1
 305 414 l 1
 244 414 l 1
 244 598 l 1
438 528 m 1
 481 486 l 1
 382 386 l 1
 483 282 l 1
 440 240 l 1
 297 386 l 1
 438 528 l 1
112 528 m 1
 253 386 l 1
 110 240 l 1
 68 282 l 1
 169 386 l 1
 70 486 l 1
 112 528 l 1
EndSplineSet
Validated: 1
EndChar

StartChar: copyright
Encoding: 169 169 208
Width: 536
VWidth: 0
Flags: W
HStem: 50 60<196.558 354.907> 171.2 60<286.143 365.6> 415.2 60<285.802 366> 538 60<197.889 354.713>
VStem: 65.3333 59.9997<182.295 464.369> 183.599 60<274.312 372.148> 427.333 60<182.426 463.766>
LayerCount: 2
Back
Fore
SplineSet
366 475.2 m 1
 366 415.2 l 1
 285.802 415.2 l 1
 243.6 372.148 l 1
 243.599 274.312 l 1
 286.143 231.2 l 1
 365.6 231.2 l 1
 365.6 171.2 l 1
 273.6 171.2 l 0
 268.715 171.2 259.325 172.955 252.247 180.128 c 0
 192.245 240.93 l 0
 188.97 244.249 183.598 252.08 183.599 262.002 c 0
 183.6 384.4 l 0
 183.6 389.008 185.258 398.343 192.176 405.401 c 0
 251.776 466.201 l 0
 255.236 469.73 263.084 475.2 273.2 475.2 c 0
 366 475.2 l 1
73.963 497.723 m 2
 163.965 589.057 l 0
 171.044 596.24 180.436 598 185.333 598 c 0
 367.333 598 l 0
 377.461 598 385.31 592.524 388.778 588.979 c 0
 478.778 496.979 l 0
 485.681 489.923 487.333 480.591 487.333 476 c 0
 487.333 170 l 0
 487.333 160 481.922 152.162 478.547 148.787 c 0
 388.547 58.7868 l 0
 381.476 51.7158 372.107 50 367.333 50 c 0
 184 50 l 0
 173.913 50 166.067 55.4556 162.629 58.9458 c 0
 73.963 148.946 l 0
 67.0065 156.007 65.3333 165.351 65.3333 170 c 0
 65.3333 476.667 l 0
 65.3333 486.58 70.6985 494.41 73.963 497.723 c 2
125.333 464.369 m 1
 125.333 182.295 l 1
 196.558 110 l 1
 354.907 110 l 1
 427.333 182.426 l 1
 427.333 463.766 l 1
 354.713 538 l 1
 197.889 538 l 1
 125.333 464.369 l 1
EndSplineSet
Validated: 1
EndChar

StartChar: registered
Encoding: 174 174 209
Width: 536
VWidth: 0
Flags: W
HStem: 50 60<197 355> 293 60<243 269> 415 61<243 293> 538 60<198 355>
VStem: 65 60<182 464> 183 60<170 293 353 415> 305 60<171 226 367 402> 427 60<182 464>
LayerCount: 2
Back
Fore
SplineSet
74 498 m 2
 164 589 l 0
 171 596 180 598 185 598 c 0
 367 598 l 0
 377 598 385 593 389 589 c 0
 479 497 l 0
 486 490 487 481 487 476 c 0
 487 170 l 0
 487 160 482 152 479 149 c 0
 389 59 l 0
 381 52 372 50 367 50 c 0
 184 50 l 0
 174 50 166 55 163 59 c 0
 74 149 l 0
 67 156 65 165 65 170 c 0
 65 477 l 0
 65 487 71 494 74 498 c 2
125 464 m 1
 125 182 l 1
 197 110 l 1
 355 110 l 1
 427 182 l 1
 427 464 l 1
 355 538 l 1
 198 538 l 1
 125 464 l 1
183 476 m 1
 305 475 l 2
 315 475 323 470 326 467 c 2
 358 437 l 2
 365 430 367 421 367 415 c 2
 367 354 l 2
 367 344 362 336 358 332 c 2
 331 306 l 1
 362 247 l 2
 363 244 365 239 365 233 c 2
 365 171 l 1
 305 171 l 1
 305 226 l 1
 269 293 l 1
 243 293 l 1
 243 170 l 1
 183 170 l 1
 183 476 l 1
243 415 m 1
 243 353 l 1
 293 353 l 1
 307 367 l 1
 307 402 l 1
 293 415 l 1
 243 415 l 1
EndSplineSet
Validated: 1
EndChar

StartChar: boxA
Encoding: 65561 -1 210
Width: 536
VWidth: 0
Flags: W
HStem: -13 62<61 488> 171 60<61 488> 415 60<61 244>
VStem: 0 61<49 171 293 415 475 556> 244 60<293 415 475 555> 488 61<49 171>
LayerCount: 2
Back
Fore
SplineSet
0 231 m 1
 549 231 l 1
 549 -13 l 1
 0 -13 l 1
 0 231 l 1
61 171 m 1
 61 49 l 1
 488 49 l 1
 488 171 l 1
 61 171 l 1
60 293 m 1
 0 293 l 1
 2 569 l 2
 2 579 8 587 11 590 c 2
 133 710 l 2
 139 716 146 718 152 718 c 0
 162 718 170 714 175 709 c 2
 296 588 l 2
 303 581 304 572 304 567 c 2
 304 293 l 1
 244 293 l 1
 244 415 l 1
 61 415 l 1
 60 293 l 1
61 475 m 1
 244 475 l 1
 244 555 l 1
 153 646 l 1
 62 556 l 1
 61 475 l 1
EndSplineSet
Validated: 1
EndChar

StartChar: insert
Encoding: 65562 -1 211
Width: 536
VWidth: 0
Flags: W
HStem: 456 20G<253.073 292.856>
LayerCount: 2
Back
Fore
SplineSet
0 18 m 25
 0 202 l 29
 273 476 l 25
 548 199 l 25
 547 18 l 25
 273 291 l 25
 0 18 l 25
EndSplineSet
Validated: 1
EndChar

StartChar: boxB
Encoding: 65563 -1 212
Width: 536
VWidth: 0
Flags: W
HStem: -13 62<61 488> 171 60<61 488> 294 60<245 304.5 365.5 446.5> 476.5 59<365.5 444.217> 658.718 59.782<245.07 304.5 365.5 446.617>
VStem: 0 61<49 171> 304.5 61<354 476.5 535.5 658.718> 488 61<49 171 396.353 433.646 580.148 615.501>
LayerCount: 2
Back
Fore
SplineSet
0 231 m 1
 549 231 l 1
 549 -13 l 1
 0 -13 l 1
 0 231 l 1
61 171 m 1
 61 49 l 1
 488 49 l 1
 488 171 l 1
 61 171 l 1
244.93 659 m 5
 245.07 719 l 5
 459.07 718.5 l 6
 468.994 718.477 476.813 713.086 480.126 709.8 c 6
 541.126 649.3 l 6
 548.26 642.225 550 632.842 550 628 c 6
 550 567.5 l 6
 550 557.355 544.515 549.504 540.945 546.022 c 6
 501.493 507.548 l 5
 540.397 466.007 l 6
 546.966 458.993 548.5 449.741 548.5 445.5 c 6
 548.5 384 l 6
 548.5 374.049 543.114 366.216 539.802 362.876 c 6
 480.302 302.876 l 6
 473.226 295.741 463.844 294 459 294 c 6
 245 294 l 5
 245 354 l 5
 304.5 354 l 5
 304.5 658.861 l 5
 244.93 659 l 5
365.5 354 m 5
 446.5 354 l 5
 488.5 396.353 l 5
 488.5 433.646 l 5
 448.367 476.5 l 5
 365.5 476.5 l 5
 365.5 354 l 5
365.5 658.718 m 5
 365.5 535.5 l 5
 444.217 535.5 l 5
 490 580.148 l 5
 490 615.501 l 5
 446.617 658.529 l 5
 365.5 658.718 l 5
EndSplineSet
Validated: 1
EndChar

StartChar: box6
Encoding: 65564 -1 213
Width: 536
VWidth: 0
Flags: W
HStem: -73 60<61 488> 48.5 60<226.854 325.21> 172 60<183.5 201.501> 233 60<286.999 323.288> 537 61<61 488>
VStem: 0 61<-13 537> 123.5 60<151.499 172 232 371.858> 367.5 60<152.566 189.858> 488 61<-13 537>
LayerCount: 2
Back
Fore
SplineSet
183.5 232 m 1
 201.501 232 l 1
 253.2 284.126 l 0
 256.61 287.564 264.452 293 274.5 293 c 0
 335.5 293 l 0
 340.07 293 349.398 291.355 356.452 284.471 c 0
 418.452 223.971 l 0
 422.017 220.493 427.5 212.642 427.5 202.5 c 0
 427.5 140.5 l 0
 427.5 136.065 425.901 126.767 419.145 119.728 c 0
 359.645 57.7277 l 0
 356.096 54.0299 348.237 48.5 338 48.5 c 0
 214.5 48.5 l 0
 209.795 48.5 200.44 50.1917 193.374 57.1997 c 0
 132.374 117.7 l 0
 128.936 121.11 123.5 128.952 123.5 139 c 0
 123.5 384 l 0
 123.5 388.505 125.123 397.818 131.945 404.866 c 0
 192.445 467.366 l 1
 235.555 425.634 l 1
 183.5 371.858 l 1
 183.5 232 l 1
183.5 172 m 1
 183.5 151.499 l 1
 226.854 108.5 l 1
 325.21 108.5 l 1
 367.5 152.566 l 1
 367.5 189.858 l 1
 323.288 233 l 1
 286.999 233 l 1
 235.3 180.874 l 0
 228.225 173.74 218.843 172 214 172 c 0
 183.5 172 l 1
61 537 m 1
 61 -13 l 1
 488 -13 l 1
 488 537 l 1
 61 537 l 1
0 598 m 1
 549 598 l 1
 549 -73 l 1
 0 -73 l 1
 0 598 l 1
EndSplineSet
Validated: 1
EndChar

StartChar: plusminus
Encoding: 177 177 214
Width: 536
VWidth: 0
Flags: W
HStem: 109 62<61 488> 415 61<61 244 305 488> 639 20G<244 305>
VStem: 244 61<231 415 476 659>
LayerCount: 2
Back
Fore
SplineSet
244 659 m 1
 305 659 l 1
 305 476 l 1
 488 476 l 1
 488 415 l 1
 305 415 l 1
 305 231 l 1
 244 231 l 1
 244 415 l 1
 61 415 l 1
 61 476 l 1
 244 476 l 1
 244 659 l 1
61 171 m 1
 488 171 l 1
 488 109 l 1
 61 109 l 1
 61 171 l 1
EndSplineSet
Validated: 1
EndChar

StartChar: ETH
Encoding: 208 208 215
Width: 536
VWidth: 0
Flags: W
HStem: 49 61<61 122 183 324> 298 54<62 122 183 306> 538 60<61 122 183 324>
VStem: 122 61<110 298 352 538> 427 60<213 433>
LayerCount: 2
Back
Fore
SplineSet
122 538 m 1
 61 538 l 1
 61 598 l 1
 337 597 l 2
 347 597 355 592 358 588 c 2
 478 466 l 2
 485 459 487 450 487 445 c 2
 487 201 l 2
 487 191 482 183 478 179 c 2
 357 59 l 2
 350 52 341 50 336 50 c 2
 61 49 l 1
 61 109 l 1
 122 109 l 1
 122 298 l 1
 62 298 l 1
 62 352 l 1
 122 352 l 1
 122 538 l 1
183 110 m 1
 324 110 l 1
 427 213 l 1
 427 433 l 1
 324 537 l 1
 183 538 l 1
 183 352 l 1
 306 352 l 1
 306 298 l 1
 183 298 l 1
 183 110 l 1
EndSplineSet
Validated: 1
EndChar

StartChar: rightarrow
Encoding: 65565 -1 216
Width: 536
VWidth: 0
Flags: W
HStem: 293 61<0 305> 456 20G<305 328.66>
LayerCount: 2
Back
Fore
SplineSet
305 476 m 5
 486 323 l 5
 486.042 323.042 305 171 305 171 c 5
 305 293 l 5
 0 293 l 5
 0 354 l 5
 305 354 l 5
 305 476 l 5
EndSplineSet
Validated: 1
EndChar

StartChar: THORN
Encoding: 222 222 217
Width: 536
VWidth: 0
Flags: W
HStem: 141.319 60<120 323.399> 446.666 60<120 323.574> 577 20G<62 120>
VStem: 62 58<50 141.319 201.319 446.666 506.666 597> 427.333 60<305.712 342.907>
LayerCount: 2
Back
Fore
SplineSet
62 597 m 1
 120 597 l 1
 120 506.666 l 1
 336 506.666 l 2
 346 506.666 353.838 501.255 357.213 497.88 c 2
 478.547 376.547 l 2
 485.618 369.476 487.333 360.107 487.333 355.333 c 2
 487.333 293.333 l 2
 487.333 283.365 481.938 275.53 478.605 272.178 c 2
 357.138 150.045 l 2
 350.06 142.928 340.679 141.198 335.851 141.2 c 2
 120 141.319 l 1
 120 50 l 1
 62 50 l 1
 62 597 l 1
120 446.666 m 1
 120 201.319 l 1
 323.399 201.207 l 1
 427.333 305.712 l 1
 427.333 342.907 l 1
 323.574 446.666 l 1
 120 446.666 l 1
EndSplineSet
Validated: 1
EndChar

StartChar: upshift
Encoding: 65566 -1 218
Width: 536
VWidth: 0
Flags: W
HStem: -11 60<241 306> 315 60<147 181 366 399>
VStem: 181 60<49 315> 306 60<49 315>
LayerCount: 2
Back
Fore
SplineSet
181 -11 m 1
 181 315 l 1
 25 315 l 1
 273 637 l 1
 520 315 l 1
 366 315 l 1
 366 -11 l 1
 181 -11 l 1
241 49 m 5
 306 49 l 1
 306 375 l 1
 399 375 l 1
 273 539 l 1
 147 375 l 1
 241 375 l 1
 241 49 l 5
EndSplineSet
Validated: 1
EndChar

StartChar: human
Encoding: 65567 -1 219
Width: 536
VWidth: 0
Flags: W
HStem: 354 61<61 244 305 488> 601.5 60<246.461 303.491>
VStem: 184.5 60<537.191 599.507> 244 60.807<245.31 354 415 491.508> 305.5 60<537.023 599.477>
LayerCount: 2
Back
Fore
SplineSet
111.124 57.386 m 5xd8
 72.8756 103.614 l 5
 244 245.202 l 5
 244 354 l 5
 61 354 l 5
 61 415 l 5
 244 415 l 5xd8
 244.29 480.836 l 5
 207.698 494.19 184.5 530.704 184.5 568.5 c 4xe8
 184.5 621.717 226.698 661.5 275 661.5 c 4
 328.84 661.5 365.5 616.012 365.5 568.5 c 4
 365.5 526.456 339.16 492.796 304.28 480.516 c 5
 305 415 l 5
 488 415 l 5
 488 354 l 5
 305 354 l 5
 304.807 245.31 l 5
 478.187 101.062 l 5
 439.813 54.938 l 5
 274.447 192.519 l 5
 111.124 57.386 l 5xd8
244.5 568.5 m 4xe8
 244.5 550.241 258.259 535.5 275 535.5 c 4
 289.859 535.5 305.5 548.219 305.5 568.5 c 4
 305.5 586.759 291.741 601.5 275 601.5 c 4
 260.141 601.5 244.5 588.781 244.5 568.5 c 4xe8
EndSplineSet
Validated: 1
EndChar

StartChar: underB
Encoding: 65568 -1 220
Width: 536
VWidth: 0
Flags: W
HStem: 171 60<0 549> 294.282 60<124.43 183.93 244.93 325.93> 476.782 59<244.93 323.646> 659.282 60<124.5 183.93 244.93 326.047>
VStem: 183.93 61<354.282 476.782 535.782 659> 367.93 60<396.635 433.928 580.43 615.783>
LayerCount: 2
Back
Fore
SplineSet
124.359 659.282 m 5
 124.5 719.282 l 5
 338.5 718.782 l 6
 348.424 718.759 356.242 713.368 359.556 710.082 c 6
 420.556 649.582 l 6
 427.689 642.507 429.43 633.124 429.43 628.282 c 6
 429.43 567.782 l 6
 429.43 557.637 423.944 549.786 420.375 546.304 c 6
 380.923 507.83 l 5
 419.826 466.289 l 6
 426.396 459.275 427.93 450.023 427.93 445.782 c 6
 427.93 384.282 l 6
 427.93 374.331 422.544 366.498 419.231 363.158 c 6
 359.731 303.158 l 6
 352.655 296.023 343.273 294.282 338.43 294.282 c 6
 124.43 294.282 l 5
 124.43 354.282 l 5
 183.93 354.282 l 5
 183.93 659.143 l 5
 124.359 659.282 l 5
244.93 354.282 m 5
 325.93 354.282 l 5
 367.93 396.635 l 5
 367.93 433.928 l 5
 327.797 476.782 l 5
 244.93 476.782 l 5
 244.93 354.282 l 5
244.93 659 m 5
 244.93 535.782 l 5
 323.646 535.782 l 5
 369.43 580.43 l 5
 369.43 615.783 l 5
 326.047 658.811 l 5
 244.93 659 l 5
0 231 m 1
 549 231 l 1
 549 171 l 1
 0 171 l 1
 0 231 l 1
EndSplineSet
Validated: 1
EndChar

StartChar: downshift
Encoding: 65569 -1 221
Width: 536
VWidth: 0
Flags: W
HStem: 272 60<148.941 183 368.505 400.818> 598.039 59.922<243.003 308.504>
VStem: 183 60<332 598.039> 308.505 60<332.166 598.123>
LayerCount: 2
Back
Fore
SplineSet
183.003 657.961 m 5
 368.504 658.201 l 5
 368.505 332.166 l 5
 522.516 332.164 l 5
 275.029 9.77148 l 5
 27.0586 332 l 5
 183 332 l 5
 183.003 657.961 l 5
243.003 598.039 m 5
 243 272 l 5
 148.941 272 l 5
 274.971 108.229 l 5
 400.818 272.166 l 5
 308.505 272.167 l 5
 308.504 598.123 l 5
 243.003 598.039 l 5
EndSplineSet
Validated: 1
EndChar

StartChar: boxquestion
Encoding: 65570 -1 222
Width: 536
VWidth: 0
Flags: W
HStem: -73 60<61 488> 49 60<244 305> 537.5 60<226.283 324.785> 659 61<61 488>
VStem: 0 61<-13 659> 122.5 60<415 494.429> 245 60<49 109 171.5 250.645> 367.5 60<398.855 493.361> 488 61<-13 659>
LayerCount: 2
Back
Fore
SplineSet
182.5 415 m 1
 122.5 415 l 1
 122.5 507 l 0
 122.5 517.095 127.96 524.942 131.461 528.386 c 0
 192.961 588.886 l 0
 200.021 595.832 209.363 597.5 214 597.5 c 0
 337.5 597.5 l 0
 347.689 597.5 355.544 591.993 359.058 588.363 c 0
 419.058 526.363 l 0
 425.878 519.316 427.5 510.003 427.5 505.5 c 0
 427.5 386.5 l 0
 427.5 376.548 422.113 368.714 418.799 365.373 c 0
 305 250.645 l 1
 305 171.5 l 1
 245 171.5 l 1
 245 263 l 0
 245 267.705 246.692 277.061 253.701 284.127 c 0
 367.5 398.855 l 1
 367.5 493.361 l 1
 324.785 537.5 l 1
 226.283 537.5 l 1
 182.5 494.429 l 1
 182.5 415 l 1
244 109 m 1
 305 109 l 1
 305 49 l 1
 244 49 l 1
 244 109 l 1
61 659 m 1
 61 -13 l 1
 488 -13 l 1
 488 659 l 1
 61 659 l 1
0 720 m 1
 549 720 l 1
 549 -73 l 1
 0 -73 l 1
 0 720 l 1
EndSplineSet
Validated: 1
EndChar

StartChar: boxsolid
Encoding: 65571 -1 223
Width: 536
VWidth: 0
Flags: W
VStem: 0 549<-73 720>
LayerCount: 2
Back
Fore
SplineSet
0 720 m 1
 549 720 l 1
 549 -73 l 1
 0 -73 l 1
 0 720 l 1
EndSplineSet
Validated: 1
EndChar

StartChar: badcommhi
Encoding: 65587 -1 240
Width: 536
VWidth: 0
Flags: W
HStem: 293 62<0 149 391 549>
LayerCount: 2
Back
Fore
SplineSet
0 689 m 25
 336 355 l 25
 550 355 l 25
 549 294 l 25
 391 293 l 25
 550 140 l 25
 551 -43 l 25
 215 293 l 25
 0 293 l 25
 0 355 l 25
 149 355 l 25
 0 507 l 25
 0 689 l 25
EndSplineSet
Validated: 1
EndChar

StartChar: commhi
Encoding: 65588 -1 241
Width: 536
VWidth: 0
Flags: HW
HStem: 292.667 59.333<0 549.333>
LayerCount: 2
Back
Fore
SplineSet
0 352 m 1
 536 352 l 5
 536 292.667 l 5
 0 292.667 l 1
 0 352 l 1
EndSplineSet
EndChar

StartChar: commjag
Encoding: 65589 -1 242
Width: 536
VWidth: 0
Flags: W
HStem: 49.3333 59.9997<165.595 549.333> 295.333 60<0 264.405>
LayerCount: 2
Back
Fore
SplineSet
0 295.333 m 1
 0 355.333 l 1
 407.595 355.333 l 1
 165.595 109.333 l 1
 549.333 109.333 l 1
 549.333 49.3333 l 1
 22.4049 49.3333 l 1
 264.405 295.333 l 1
 0 295.333 l 1
EndSplineSet
Validated: 1
EndChar

StartChar: commlo
Encoding: 65590 -1 243
Width: 536
VWidth: 0
Flags: W
HStem: 48 62<0 548.667>
LayerCount: 2
Back
Fore
SplineSet
0 110 m 5
 548.667 110 l 5
 548.667 48 l 5
 0 48 l 5
 0 110 l 5
EndSplineSet
Validated: 1
EndChar

StartChar: clockleft
Encoding: 65591 -1 244
Width: 536
VWidth: 0
Flags: W
HStem: -136 66<426.33 487.822> -75 66<243.905 305.962> 46 66<122.317 183.683> 230 66<60.3303 121.822> 414 66<122.028 183.972> 534 66<245.028 306.972> 594 66<425.028 486.972>
VStem: 58 66<232.178 293.67> 120 66<48.0382 110.095 416.028 477.972> 242 66<-72.6826 -11.3174 536.317 597.683> 424 66<-133.822 -72.3303 4 250 596.317 657.683>
LayerCount: 2
Back
Fore
SplineSet
423 627 m 0x3a60
 423 645 438 660 456 660 c 0
 474 660 489 645 489 627 c 0
 489 609 474 594 456 594 c 0
 438 594 423 609 423 627 c 0x3a60
243 567 m 0
 243 585 258 600 276 600 c 0
 294 600 309 585 309 567 c 0
 309 549 294 534 276 534 c 0x3c60
 258 534 243 549 243 567 c 0
120 447 m 0x38e0
 120 465 135 480 153 480 c 0
 171 480 186 465 186 447 c 0
 186 429 171 414 153 414 c 0
 135 414 120 429 120 447 c 0x38e0
58 262 m 0x3960
 58 281 73 296 92 296 c 0
 110 296 124 281 124 262 c 0
 124 244 110 230 92 230 c 0
 73 230 58 244 58 262 c 0x3960
120 80 m 0x38e0
 120 98 135 112 153 112 c 0
 171 112 186 98 186 80 c 0
 186 61 171 46 153 46 c 0
 135 46 120 61 120 80 c 0x38e0
242 -42 m 0
 242 -24 256 -9 274 -9 c 0
 293 -9 308 -24 308 -42 c 0
 308 -60 293 -75 274 -75 c 0x7860
 256 -75 242 -60 242 -42 c 0
424 -104 m 0
 424 -85 439 -70 458 -70 c 0
 476 -70 490 -85 490 -104 c 0
 490 -122 476 -136 458 -136 c 0xb860
 439 -136 424 -122 424 -104 c 0
536 385 m 1
 536 300 l 1
 488 250 l 1
 488 4 l 1
 428 4 l 1
 428 262 l 2
 428 267 429 276 436 284 c 2
 536 385 l 1
EndSplineSet
Validated: 1
EndChar

StartChar: clockright
Encoding: 65592 -1 245
Width: 536
VWidth: 0
Flags: W
HStem: -13.5 66<123.503 185.497> 108 66<243.503 305.497> 291 66<303.503 365.497> 475.5 66<245.003 306.997> 594 66<122.003 183.997>
VStem: 121.5 66<-11.4965 50.4965 596.595 657.405> 241.5 66<110.003 171.997 478.095 538.905> 301.5 66<293.003 354.997>
LayerCount: 2
Back
Fore
SplineSet
120 627 m 0xfc
 120 645.216 134.784 660 153 660 c 0
 171.216 660 186 645.216 186 627 c 0
 186 608.784 171.216 594 153 594 c 0
 134.784 594 120 608.784 120 627 c 0xfc
243 508.5 m 0
 243 526.716 257.784 541.5 276 541.5 c 0
 294.216 541.5 309 526.716 309 508.5 c 0
 309 490.284 294.216 475.5 276 475.5 c 0
 257.784 475.5 243 490.284 243 508.5 c 0
301.5 324 m 0xfd
 301.5 342.216 316.284 357 334.5 357 c 0
 352.716 357 367.5 342.216 367.5 324 c 0
 367.5 305.784 352.716 291 334.5 291 c 0
 316.284 291 301.5 305.784 301.5 324 c 0xfd
241.5 141 m 0xfe
 241.5 159.216 256.284 174 274.5 174 c 0
 292.716 174 307.5 159.216 307.5 141 c 0
 307.5 122.784 292.716 108 274.5 108 c 0
 256.284 108 241.5 122.784 241.5 141 c 0xfe
121.5 19.5 m 0
 121.5 37.7158 136.284 52.5 154.5 52.5 c 0
 172.716 52.5 187.5 37.7158 187.5 19.5 c 0
 187.5 1.28418 172.716 -13.5 154.5 -13.5 c 0
 136.284 -13.5 121.5 1.28418 121.5 19.5 c 0
137.578 537.002 m 1
 180.422 494.998 l 1
 -3.51826e-07 310.967 l 1
 -3.51826e-07 339.536 -1.69962e-06 368.104 -1.69962e-06 396.673 c 1
 137.578 537.002 l 1
EndSplineSet
Validated: 1
EndChar

StartChar: lock
Encoding: 65593 -1 246
Width: 536
VWidth: 0
Flags: W
LayerCount: 2
Back
Fore
SplineSet
547 753.5 m 1
 547 480 l 1
 423.509 355.833 l 1
 549 230 l 1
 548 -44 l 1
 286.926 218.503 l 1
 -1 -71 l 1
 -2 203 l 1
 150.38 355.797 l 1
 0 507 l 1
 0 780.5 l 1
 286.963 492.753 l 1
 547 753.5 l 1
EndSplineSet
Validated: 1
EndChar

StartChar: leftarrow
Encoding: 65594 -1 248
Width: 536
VWidth: 0
Flags: W
HStem: 293 61<230 535> 456 20G<206.34 230>
LayerCount: 2
Back
Fore
SplineSet
230 476 m 1
 230 354 l 1
 535 354 l 1
 535 293 l 1
 230 293 l 1
 230 171 l 1
 49 323 l 1
 230 476 l 1
EndSplineSet
Validated: 1
EndChar

StartChar: thorn
Encoding: 254 254 249
Width: 536
VWidth: 0
Flags: W
HStem: 48.5 60<122 262.538> 414 60<122 264.037> 638 20G<60 122>
VStem: 60 62<-132 48.5 108.5 414 474 658> 367 60<213.39 310.61>
LayerCount: 2
Back
Fore
SplineSet
60 658 m 1
 122 658 l 1
 122 474 l 1
 276.5 474 l 2
 286.524 474 294.364 468.576 297.757 465.169 c 2
 418.257 344.169 l 2
 425.296 337.101 427 327.739 427 323 c 2
 427 201 l 2
 427 191.024 421.601 183.188 418.257 179.83 c 2
 296.257 57.3302 l 2
 289.183 50.2279 279.808 48.5 275 48.5 c 2
 122 48.5 l 1
 122 -132 l 1
 60 -132 l 1
 60 658 l 1
122 414 m 1
 122 108.5 l 1
 262.538 108.5 l 1
 367 213.39 l 1
 367 310.61 l 1
 264.037 414 l 1
 122 414 l 1
EndSplineSet
Validated: 1
EndChar

StartChar: keyleft
Encoding: 65595 -1 250
Width: 536
VWidth: 0
Flags: W
HStem: 226 60<276.99 399.67> 354 60.667<492.925 536> 490 60<275.791 399.445>
VStem: 176 60<325.791 449.01> 440 96<354.722 412.994>
LayerCount: 2
Back
Fore
SplineSet
236 388 m 0
 236 333.156 280.211 286 338 286 c 0
 392.844 286 440 330.211 440 388 c 0
 440 442.844 395.789 490 338 490 c 0
 283.156 490 236 445.789 236 388 c 0
176 388 m 0
 176 479.809 250.86 550 338 550 c 0
 420.28 550 485.196 489.874 497.786 414.667 c 1
 536 414.667 l 1
 536 354 l 1
 496.471 354 l 1
 480.688 279.415 414.017 226 338 226 c 0
 246.191 226 176 300.86 176 388 c 0
EndSplineSet
Validated: 1
EndChar

StartChar: keyright
Encoding: 65596 -1 251
Width: 536
VWidth: 0
Flags: W
HStem: 232 182.667<183.333 366> 354 60.667<0 183.333 366 427.333>
VStem: 183.333 182.667<232 354> 427.333 122<171.333 354.667>
LayerCount: 2
Back
Fore
SplineSet
0 414.667 m 29x70
 549.333 414.667 l 29x70
 549.333 171.333 l 29
 427.333 171.333 l 29
 427.333 354.667 l 29
 366 354.667 l 29
 366 232 l 29
 183.333 232 l 29xb0
 183.333 354 l 29
 0 354 l 29
 0 414.667 l 29x70
EndSplineSet
Validated: 1
EndChar

StartChar: box4
Encoding: 65597 -1 252
Width: 536
VWidth: 0
Flags: W
HStem: -74 61<59 488> 49 21G<307 367> 171 60<183 307 367 427> 455 20G<330.5 342.5> 538 58<59 488>
VStem: 0 59<-13 538> 123 60<231 249> 307 60<49 171 231 373> 488 59<-13 538>
LayerCount: 2
Back
Fore
SplineSet
367 231 m 1
 427 231 l 1
 427 171 l 1
 367 171 l 1
 367 49 l 1
 307 49 l 1
 307 171 l 1
 153 171 l 0
 142 171 123 180 123 201 c 2
 123 261 l 2
 123 266 125 275 132 283 c 2
 315 467 l 2
 316 467 324 475 337 475 c 0
 348 475 367 467 367 445 c 2
 367 231 l 1
307 231 m 1
 307 373 l 1
 183 249 l 1
 183 231 l 1
 307 231 l 1
59 538 m 1
 59 -13 l 1
 488 -13 l 1
 488 538 l 1
 59 538 l 1
0 596 m 1
 547 596 l 1
 547 -74 l 1
 0 -74 l 1
 0 596 l 1
EndSplineSet
Validated: 1
EndChar

StartChar: underA
Encoding: 65598 -1 253
Width: 536
VWidth: 0
Flags: W
HStem: 172 58<0 544> 418 60<183 366>
VStem: 122 61<297 418 478 560> 366 60<296 418 478 558>
LayerCount: 2
Back
Fore
SplineSet
0 230 m 1
 544 230 l 1
 544 172 l 1
 0 172 l 1
 0 230 l 1
182 296 m 1
 122 297 l 1
 124 573 l 2
 124 583 130 590 133 594 c 2
 255 713 l 2
 261 719 268 721 275 721 c 0
 284 721 292 718 297 713 c 2
 418 592 l 2
 425 584 426 575 426 570 c 2
 426 296 l 1
 366 296 l 1
 366 418 l 1
 183 418 l 1
 182 296 l 1
183 478 m 1
 366 478 l 1
 366 558 l 1
 275 649 l 1
 184 560 l 1
 183 478 l 1
EndSplineSet
Validated: 1
EndChar

StartChar: magcard
Encoding: 65599 -1 254
Width: 536
VWidth: 0
Flags: W
HStem: 108 66<60 492> 232 62<60 488> 474 64<60 488>
VStem: 0 60<174 232 294 474> 488 60<174 232 294 474>
LayerCount: 2
Back
Fore
SplineSet
60 232 m 1
 60 174 l 1
 492 174 l 1
 492 232 l 1
 60 232 l 1
60 474 m 1
 60 294 l 1
 488 294 l 1
 488 474 l 5
 60 474 l 1
0 538 m 1
 548 538 l 1
 548 108 l 1
 0 108 l 1
 0 538 l 1
EndSplineSet
Validated: 1
EndChar

StartChar: boxhuman
Encoding: 65600 -1 255
Width: 536
VWidth: 0
Flags: W
HStem: -70 54<97.7893 447.961> 294 61<62 244 305 490> 541.5 60<246.461 303.491> 660 60<62 490>
VStem: 0 62<32.2826 294 355 660> 184.5 60<477.191 539.507> 244 60.807<185.31 294 355 431.508> 305.5 60<477.023 539.477> 490 58<26.9643 294 355 660>
LayerCount: 2
Back
Fore
SplineSet
244.5 508.5 m 0xfd80
 244.5 490.241 258.259 475.5 275 475.5 c 0
 289.859 475.5 305.5 488.219 305.5 508.5 c 0
 305.5 526.759 291.741 541.5 275 541.5 c 0
 260.141 541.5 244.5 528.781 244.5 508.5 c 0xfd80
0 720 m 1
 548 720 l 1
 548 -70 l 1
 0 -70 l 1
 0 720 l 1
490 26.9643 m 1
 490 294 l 1
 305 294 l 1
 304.807 185.31 l 1xfb80
 490 26.9643 l 1
490 355 m 1
 490 660 l 1
 62 660 l 1
 62 355 l 1
 244 355 l 1xfb80
 244.29 420.836 l 1
 207.698 434.19 184.5 470.704 184.5 508.5 c 0xfd80
 184.5 561.717 226.698 601.5 275 601.5 c 0
 328.84 601.5 365.5 556.012 365.5 508.5 c 0
 365.5 466.456 339.16 432.796 304.28 420.516 c 1
 305 355 l 1
 490 355 l 1
97.7893 -16 m 1
 447.961 -16 l 1
 274.447 132.519 l 1
 97.7893 -16 l 1
62 294 m 1
 62 32.2826 l 1
 244 185.202 l 1
 244 294 l 1
 62 294 l 1
EndSplineSet
Validated: 1
EndChar

StartChar: apl_bracketright
Encoding: 65602 -1 257
Width: 536
VWidth: 0
Flags: W
HStem: -13 62<184 305> 598 61<184 305>
VStem: 184 182<-13 49 598 659> 305 61<49 598>
LayerCount: 2
Back
Fore
SplineSet
184 659 m 1xe0
 366 659 l 1
 366 -13 l 1
 184 -13 l 1
 184 49 l 1xe0
 305 49 l 1
 305 598 l 1xd0
 184 598 l 1
 184 659 l 1xe0
EndSplineSet
Validated: 1
EndChar

StartChar: apl_bracketleft
Encoding: 65603 -1 258
Width: 536
VWidth: 0
Flags: W
HStem: -13 62<244 366> 598 61<244 366>
VStem: 184 182<-13 49 598 659> 184 60<49 598>
LayerCount: 2
Back
Fore
SplineSet
184 659 m 1xe0
 366 659 l 1
 366 598 l 1xe0
 244 598 l 1
 244 49 l 1xd0
 366 49 l 1
 366 -13 l 1
 184 -13 l 1
 184 659 l 1xe0
EndSplineSet
Validated: 1
EndChar

StartChar: apl_stile
Encoding: 65604 -1 259
Width: 536
VWidth: 0
Flags: W
VStem: 244 61<-195 781>
LayerCount: 2
Back
Fore
SplineSet
244 781 m 1
 305 781 l 1
 305 -195 l 1
 244 -195 l 1
 244 781 l 1
EndSplineSet
Validated: 1
EndChar

StartChar: apl_2vertical
Encoding: 65605 -1 260
Width: 536
VWidth: 0
Flags: W
VStem: 92 60<-195 781> 396 62<-195 781>
LayerCount: 2
Back
Fore
SplineSet
396 781 m 1
 458 781 l 1
 458 -195 l 1
 396 -195 l 1
 396 781 l 1
92 781 m 1
 152 781 l 1
 152 -195 l 1
 92 -195 l 1
 92 781 l 1
EndSplineSet
Validated: 1
EndChar

StartChar: apl_2horizontal
Encoding: 65606 -1 261
Width: 536
VWidth: 0
Flags: W
HStem: -104 61<0 549> 629 60<0 549>
LayerCount: 2
Back
Fore
SplineSet
0 -43 m 1
 549 -43 l 1
 549 -104 l 1
 0 -104 l 1
 0 -43 l 1
0 689 m 1
 549 689 l 1
 549 629 l 1
 0 629 l 1
 0 689 l 1
EndSplineSet
Validated: 1
EndChar

StartChar: apl_leftvbar
Encoding: 65607 -1 262
Width: 536
VWidth: 0
Flags: W
VStem: 92 60<-195 781>
LayerCount: 2
Back
Fore
SplineSet
92 781 m 1
 152 781 l 1
 152 -195 l 1
 92 -195 l 1
 92 781 l 1
EndSplineSet
Validated: 1
EndChar

StartChar: apl_rightvbar
Encoding: 65608 -1 263
Width: 536
VWidth: 0
Flags: W
VStem: 396 62<-195 781>
LayerCount: 2
Back
Fore
SplineSet
396 781 m 1
 458 781 l 1
 458 -195 l 1
 396 -195 l 1
 396 781 l 1
EndSplineSet
Validated: 1
EndChar

StartChar: apl_midvbar
Encoding: 65609 -1 264
Width: 536
VWidth: 0
Flags: W
VStem: 244 61<-195 781>
LayerCount: 2
Back
Fore
SplineSet
244 781 m 1
 305 781 l 1
 305 -195 l 1
 244 -195 l 1
 244 781 l 1
EndSplineSet
Validated: 1
EndChar

StartChar: apl_leftsolid
Encoding: 65610 -1 265
Width: 536
VWidth: 0
Flags: W
VStem: 0 274<-195 781>
LayerCount: 2
Back
Fore
SplineSet
0 781 m 1
 274 781 l 1
 274 -195 l 1
 0 -195 l 1
 0 781 l 1
EndSplineSet
Validated: 1
EndChar

StartChar: apl_rightsolid
Encoding: 65611 -1 266
Width: 536
VWidth: 0
Flags: W
VStem: 274 275<-195 781>
LayerCount: 2
Back
Fore
SplineSet
274 781 m 1
 549 781 l 1
 549 -195 l 1
 274 -195 l 1
 274 781 l 1
EndSplineSet
Validated: 1
EndChar

StartChar: apl_topsolid
Encoding: 65612 -1 267
Width: 536
VWidth: 0
Flags: W
HStem: 293 488<0 549>
VStem: 0 549<293 781>
LayerCount: 2
Back
Fore
SplineSet
0 781 m 1
 549 781 l 1
 549 293 l 1
 0 293 l 1
 0 781 l 1
EndSplineSet
Validated: 1
EndChar

StartChar: apl_bottomsolid
Encoding: 65613 -1 268
Width: 536
VWidth: 0
Flags: W
HStem: -195 488<0 549>
VStem: 0 549<-195 293>
LayerCount: 2
Back
Fore
SplineSet
0 293 m 1
 549 293 l 1
 549 -195 l 1
 0 -195 l 1
 0 293 l 1
EndSplineSet
Validated: 1
EndChar

StartChar: apl_solid
Encoding: 65614 -1 269
Width: 536
VWidth: 0
Flags: W
VStem: 0 549<-195 781>
LayerCount: 2
Back
Fore
SplineSet
0 781 m 1
 549 781 l 1
 549 -195 l 1
 0 -195 l 1
 0 781 l 1
EndSplineSet
Validated: 1
EndChar

StartChar: apl_midhbar
Encoding: 65615 -1 270
Width: 536
VWidth: 0
Flags: W
HStem: 293 61<0 549>
LayerCount: 2
Back
Fore
SplineSet
0 354 m 1
 549 354 l 1
 549 293 l 1
 0 293 l 1
 0 354 l 1
EndSplineSet
Validated: 1
EndChar

StartChar: apl_lowerleft
Encoding: 65616 -1 271
Width: 536
VWidth: 0
Flags: W
HStem: 293 61<436.419 549>
VStem: 242 62<485.474 781>
LayerCount: 2
Back
Fore
SplineSet
244 781 m 1
 305 781 l 1
 305 740 304 700 304 661 c 0
 304 492 325 361 549 354 c 1
 549 293 l 1
 272 293 242 405 242 600 c 0
 242 654 244 715 244 781 c 1
EndSplineSet
Validated: 1
EndChar

StartChar: apl_upperleft
Encoding: 65617 -1 272
Width: 536
VWidth: 0
Flags: W
HStem: 293 61<437.492 549>
VStem: 238 63<-195 154.973>
LayerCount: 2
Back
Fore
SplineSet
244 -195 m 1
 244 -109 238 -28 238 43 c 0
 238 230 276 354 549 354 c 1
 549 293 l 1
 330 286 301 152 301 -11 c 0
 301 -70 305 -133 305 -195 c 1
 244 -195 l 1
EndSplineSet
Validated: 1
EndChar

StartChar: apl_leftjoin
Encoding: 65618 -1 273
Width: 536
VWidth: 0
Flags: W
HStem: 293 61<305 549>
VStem: 244 61<-195 293 354 781>
LayerCount: 2
Back
Fore
SplineSet
244 781 m 1
 305 781 l 1
 305 354 l 1
 549 354 l 1
 549 293 l 1
 305 293 l 1
 305 -195 l 1
 244 -195 l 1
 244 781 l 1
EndSplineSet
Validated: 1
EndChar

StartChar: apl_bottomjoin
Encoding: 65619 -1 274
Width: 536
VWidth: 0
Flags: W
HStem: 293 61<0 244 305 549>
VStem: 244 61<354 781>
LayerCount: 2
Back
Fore
SplineSet
244 781 m 1
 305 781 l 1
 305 354 l 1
 549 354 l 1
 549 293 l 1
 0 293 l 1
 0 354 l 1
 244 354 l 1
 244 781 l 1
EndSplineSet
Validated: 1
EndChar

StartChar: apl_intersect
Encoding: 65620 -1 275
Width: 536
VWidth: 0
Flags: W
HStem: 293 61<0 244 305 549>
VStem: 244 61<-195 293 354 781>
LayerCount: 2
Back
Fore
SplineSet
244 781 m 1
 305 781 l 1
 305 354 l 1
 549 354 l 1
 549 293 l 1
 305 293 l 1
 305 -195 l 1
 244 -195 l 1
 244 293 l 1
 0 293 l 1
 0 354 l 1
 244 354 l 1
 244 781 l 1
EndSplineSet
Validated: 1
EndChar

StartChar: apl_lowerright
Encoding: 65621 -1 276
Width: 536
VWidth: 0
Flags: W
HStem: 293 61<0 112.581>
VStem: 245 62<486.588 781>
LayerCount: 2
Back
Fore
SplineSet
244 781 m 1
 305 781 l 1
 305 715 307 654 307 600 c 0
 307 405 277 293 0 293 c 1
 0 354 l 1
 225 361 245 493 245 664 c 0
 245 701 244 741 244 781 c 1
EndSplineSet
Validated: 1
EndChar

StartChar: apl_upperright
Encoding: 65622 -1 277
Width: 536
VWidth: 0
Flags: W
HStem: 293 61<0 111.508>
VStem: 248 63<-195 154.973>
LayerCount: 2
Back
Fore
SplineSet
0 354 m 1
 273 354 311 230 311 43 c 0
 311 -28 305 -109 305 -195 c 1
 244 -195 l 1
 244 -133 248 -70 248 -11 c 0
 248 152 219 286 0 293 c 1
 0 354 l 1
EndSplineSet
Validated: 1
EndChar

StartChar: apl_rightjoin
Encoding: 65623 -1 278
Width: 536
VWidth: 0
Flags: W
HStem: 293 61<0 244>
VStem: 244 61<-195 293 354 781>
LayerCount: 2
Back
Fore
SplineSet
244 781 m 1
 305 781 l 1
 305 -195 l 1
 244 -195 l 1
 244 293 l 1
 0 293 l 1
 0 354 l 1
 244 354 l 1
 244 781 l 1
EndSplineSet
Validated: 1
EndChar

StartChar: apl_topjoin
Encoding: 65624 -1 279
Width: 536
VWidth: 0
Flags: W
HStem: 293 61<0 244 305 549>
VStem: 244 61<-195 293>
LayerCount: 2
Back
Fore
SplineSet
0 354 m 1
 549 354 l 1
 549 293 l 1
 305 293 l 1
 305 -195 l 1
 244 -195 l 1
 244 293 l 1
 0 293 l 1
 0 354 l 1
EndSplineSet
Validated: 1
EndChar

